<?xml version="1.0" encoding="UTF-8" standalone="no"?>
<!-- Created with Inkscape (http://www.inkscape.org/) -->

<svg
   xmlns:dc="http://purl.org/dc/elements/1.1/"
   xmlns:cc="http://creativecommons.org/ns#"
   xmlns:rdf="http://www.w3.org/1999/02/22-rdf-syntax-ns#"
   xmlns:svg="http://www.w3.org/2000/svg"
   xmlns="http://www.w3.org/2000/svg"
   xmlns:sodipodi="http://sodipodi.sourceforge.net/DTD/sodipodi-0.dtd"
   xmlns:inkscape="http://www.inkscape.org/namespaces/inkscape"
   width="465.3512"
   height="175.35677"
   id="svg2"
   version="1.1"
   inkscape:version="0.48.4 r9939"
   sodipodi:docname="logo-green-text2.svg">
  <defs
     id="defs4" />
  <sodipodi:namedview
     id="base"
     pagecolor="#ffffff"
     bordercolor="#666666"
     borderopacity="1.0"
     inkscape:pageopacity="0.0"
     inkscape:pageshadow="2"
     inkscape:zoom="1.4"
     inkscape:cx="186.45038"
     inkscape:cy="155.06001"
     inkscape:document-units="px"
     inkscape:current-layer="layer1"
     showgrid="false"
     inkscape:window-width="1024"
     inkscape:window-height="1256"
     inkscape:window-x="0"
     inkscape:window-y="24"
     inkscape:window-maximized="1"
     fit-margin-top="1"
     fit-margin-left="1"
     fit-margin-right="1"
     fit-margin-bottom="1"
     units="mm" />
  <metadata
     id="metadata7">
    <rdf:RDF>
      <cc:Work
         rdf:about="">
        <dc:format>image/svg+xml</dc:format>
        <dc:type
           rdf:resource="http://purl.org/dc/dcmitype/StillImage" />
        <dc:title></dc:title>
      </cc:Work>
    </rdf:RDF>
  </metadata>
  <g
     inkscape:label="Layer 1"
     inkscape:groupmode="layer"
     id="layer1"
     transform="translate(-177.26732,-259.29292)">
    <path
       style="fill:#00940f;fill-opacity:1;stroke:#00940f;stroke-width:0.48934665;stroke-opacity:1"
       inkscape:connector-curvature="0"
       d="m 292.72425,304.37075 -19.59087,46.15796 c 0,0 -12.25069,-30.39051 -24.2583,-40.61047 -5.43949,-4.62967 -11.96236,-5.4992 -16.50739,-3.7749 -4.54502,1.7243 -7.38689,3.85003 -11.72654,7.91838 -0.63229,5.92202 8.22491,3.54222 8.17756,12.16505 3.28927,-2.87 5.40069,-4.16148 9.31354,-3.56395 6.67451,1.21441 27.2931,44.45056 25.26715,52.09529 0,0 -2.16005,4.89232 -4.36102,6.04545 -3.68048,1.92827 -9.5163,-2.68874 -12.46271,0.2409 -3.47723,3.45745 -4.14019,11.57291 -0.36818,14.70613 6.82185,5.66658 20.66539,1.18672 26.02324,-5.5336 17.47885,-21.92364 36.4345,-78.25249 36.4345,-78.25249 -5.62451,-11.3732 -9.7844,3.12049 -15.94098,-7.59375 z"
       id="path3035"
       sodipodi:nodetypes="ccszcccssssscc" />
    <path
       style="fill:none;stroke:#00940f;stroke-width:16.63778687;stroke-opacity:1"
       inkscape:connector-curvature="0"
       d="m 340.76336,346.97106 c 0,41.8778 -33.94255,75.81643 -75.81643,75.81643 -41.87388,0 -75.81741,-33.93814 -75.81741,-75.81643 0,-41.8729 33.94255,-75.81594 75.81741,-75.81594 41.8734,0 75.81643,33.94304 75.81643,75.81594 z"
       id="path3037" />
    <g
       style="font-size:50.08578873px;font-style:normal;font-variant:normal;font-weight:bold;font-stretch:normal;text-align:start;line-height:125%;letter-spacing:0px;word-spacing:-0.24347258px;writing-mode:lr-tb;text-anchor:start;fill:#000000;fill-opacity:1;stroke:none;font-family:Inconsolata;-inkscape-font-specification:Inconsolata Bold"
       id="text2984">
      <path
         d="m 367.98914,280.91691 0,31.20345 3.55609,0 0,-15.32625 11.66999,0 0,-3.00515 -11.66999,0 0,-9.81681 14.42471,0 0,-3.05524 -17.9808,0"
         id="path3146"
         inkscape:connector-curvature="0" />
      <path
         d="m 392.28075,289.28124 0,12.77188 c 0,1.95334 0,3.95678 0.90155,6.01029 1.30222,3.00515 4.10703,4.65798 7.11218,4.65798 2.85488,0 5.55952,-1.55266 7.06209,-4.05695 l -0.0501,1.70292 c 0,0.60103 0,1.20206 0.10017,1.753 l 3.80652,0 c -0.25043,-0.65111 -0.30052,-1.4024 -0.30052,-2.05352 l 0,-20.7856 -3.60617,0 0,12.57153 c 0,1.75301 -0.15026,3.10532 -0.90155,4.50773 -1.0518,1.95334 -3.10532,3.40583 -5.30909,3.40583 -1.753,0 -3.45592,-1.00172 -4.35746,-2.8048 -0.80138,-1.60275 -0.80138,-3.40584 -0.80138,-4.90841 l 0,-12.77188 -3.65626,0"
         id="path3148"
         inkscape:connector-curvature="0" />
      <path
         d="m 417.62416,312.12036 3.65626,0 0,-13.17256 c 0,-1.50257 0.20035,-2.65455 1.15198,-3.90669 0.85145,-1.15197 3.05523,-3.20549 5.45935,-3.20549 1.15197,0 2.30394,0.50086 3.10532,1.45248 1.25214,1.50258 1.25214,3.45593 1.25214,5.05867 l 0,13.77359 3.55609,0 0,-13.87376 c 0,-1.753 0,-3.65627 -0.80137,-5.50944 -1.15197,-2.55437 -3.50601,-4.00686 -6.11047,-4.00686 -3.10531,0 -5.91012,2.00343 -7.61304,4.5578 l 0,-4.00686 -3.65626,0 0,22.83912"
         id="path3150"
         inkscape:connector-curvature="0" />
      <path
         d="m 462.10034,293.03768 c -1.80308,-2.65455 -4.85832,-4.2573 -8.56467,-4.2573 -6.71149,0 -11.46964,5.05868 -11.46964,11.92042 0,6.91183 4.75815,12.02059 11.2693,12.02059 3.1554,0 6.26073,-1.30223 8.41441,-3.65626 l -2.05352,-2.40412 c -1.55265,1.753 -3.80652,2.75472 -6.06038,2.75472 -4.45763,0 -7.86346,-3.70635 -7.86346,-9.06553 0,-5.20892 3.35575,-8.4645 7.56295,-8.4645 3.90669,0 5.75987,2.70464 5.91012,3.00515 0.20035,0.3506 -0.10017,0.85146 0.30052,1.15197 l 2.55437,-3.00514"
         id="path3152"
         inkscape:connector-curvature="0" />
      <path
         d="m 473.72024,283.12069 -0.45077,6.16055 -5.45935,0 -0.0501,2.95506 5.35918,0 c -0.30051,3.90669 -0.45077,7.81339 -0.45077,11.66999 0,2.05352 0,4.35747 1.35232,6.26073 1.10188,1.50257 2.85489,2.40411 5.20892,2.40411 2.70463,0 5.35918,-1.15197 7.31253,-2.55437 l -1.10189,-2.85489 c -1.95335,1.45248 -3.75644,2.1036 -5.15884,2.1036 -1.70291,0 -3.45592,-0.95163 -3.8566,-3.70635 0,-0.20034 -0.15026,-1.0518 -0.15026,-4.40755 0,-2.95505 0.15026,-5.96021 0.45077,-8.91527 l 7.51287,0 0,-3.00514 -7.46278,0 c 0,0 0.3506,-4.10704 0.60103,-5.40927 0.0501,-0.50086 0.45077,-0.80137 0.25043,-1.35232 l -3.9067,0.65112"
         id="path3154"
         inkscape:connector-curvature="0" />
      <path
         d="m 494.6561,289.23116 0,2.95506 5.50944,0 0,17.07925 -5.80995,0 0,2.85489 14.82539,0 0,-2.85489 -5.35918,0 0,-20.03431 -9.1657,0 m 7.4127,-9.91699 c -1.45249,0 -2.60446,1.15197 -2.60446,2.55437 0,1.40241 1.15197,2.55438 2.60446,2.55438 1.45248,0 2.60446,-1.15197 2.60446,-2.55438 0,-1.4024 -1.15198,-2.55437 -2.60446,-2.55437"
         id="path3156"
         inkscape:connector-curvature="0" />
      <path
         d="m 537.42937,300.80097 c 0,-7.91354 -5.00858,-12.02059 -10.2175,-12.02059 -5.80995,0 -10.81853,5.00859 -10.81853,12.12076 0,6.96192 4.9585,11.87034 10.71836,11.87034 5.40926,0 10.31767,-4.35747 10.31767,-11.97051 m -10.46793,-8.96535 c 3.30566,0 6.81167,2.85489 6.81167,9.11561 0,5.75986 -3.30567,8.66484 -6.61133,8.66484 -3.65625,0 -6.96192,-3.40584 -6.96192,-9.06553 0,-5.6096 3.25558,-8.71492 6.76158,-8.71492"
         id="path3158"
         inkscape:connector-curvature="0" />
      <path
         d="m 542.83863,312.12036 3.65627,0 0,-13.17256 c 0,-1.50257 0.20034,-2.65455 1.15197,-3.90669 0.85146,-1.15197 3.05524,-3.20549 5.45935,-3.20549 1.15197,0 2.30395,0.50086 3.10532,1.45248 1.25214,1.50258 1.25214,3.45593 1.25214,5.05867 l 0,13.77359 3.5561,0 0,-13.87376 c 0,-1.753 -10e-6,-3.65627 -0.80138,-5.50944 -1.15197,-2.55437 -3.50601,-4.00686 -6.11046,-4.00686 -3.10532,0 -5.91013,2.00343 -7.61304,4.5578 l 0,-4.00686 -3.65627,0 0,22.83912"
         id="path3160"
         inkscape:connector-curvature="0" />
      <path
         d="m 568.98341,291.93579 1.75301,2.30394 c 1.90325,-1.95334 4.45763,-2.55437 6.61132,-2.55437 2.70463,0 4.05695,1.15197 4.70806,2.20377 0.75129,1.25215 0.70121,2.75472 0.70121,3.95678 l 0,0.80137 -0.70121,0 c -3.40583,0 -7.01201,10e-6 -9.91698,1.05181 -3.60617,1.30222 -5.20892,4.00686 -5.20892,6.51115 0,3.35574 2.90498,6.51115 7.66312,6.51115 2.8048,0 5.70978,-1.0518 8.21407,-3.10532 l 0,2.50429 3.40584,0 0,-14.17428 c 0,-1.85317 -0.0501,-3.60618 -1.10189,-5.40926 -1.50257,-2.4542 -4.40756,-3.75644 -7.96364,-3.75644 -3.05523,0 -6.0103,0.95164 -8.16399,3.15541 m 13.92385,9.46621 0,1.55266 c 0,1.15197 0,2.65455 -1.55266,4.30738 -0.85145,0.85146 -3.00515,2.70463 -6.01029,2.70463 -3.05523,0 -4.80824,-1.95335 -4.80824,-3.95677 0,-1.70292 1.15198,-3.5561 4.00687,-4.2573 2.1036,-0.50085 5.15883,-0.3506 7.56295,-0.3506 l 0.80137,0"
         id="path3162"
         inkscape:connector-curvature="0" />
      <path
         d="m 593.72579,278.8634 0,2.90497 6.51115,0 0,27.4971 -6.81166,0 0,2.85489 17.17942,0 0,-2.85489 -6.76158,0 0,-30.40207 -10.11733,0"
         id="path3164"
         inkscape:connector-curvature="0" />
    </g>
    <g
       style="font-size:50.08578873px;font-style:normal;font-variant:normal;font-weight:bold;font-stretch:normal;text-align:start;line-height:125%;letter-spacing:0px;word-spacing:-0.24347258px;writing-mode:lr-tb;text-anchor:start;fill:#000000;fill-opacity:1;stroke:none;font-family:Inconsolata;-inkscape-font-specification:Inconsolata Bold"
       id="text2992">
      <path
         d="m 367.81058,332.09581 0,31.20345 3.65627,0 0,-13.7736 6.11046,0 c 1.95335,0 3.80653,-0.0501 5.70978,-1.00171 2.90498,-1.45249 4.40755,-4.45764 4.40755,-7.61304 0,-3.1554 -1.50257,-6.21064 -4.45763,-7.71321 -1.95335,-1.0518 -3.9067,-1.10189 -5.91013,-1.10189 l -9.5163,0 m 3.65627,3.30566 5.86003,0 c 1.30223,0 2.55438,0.0501 3.85661,0.65112 1.90326,1.00171 2.95506,3.00515 2.95506,5.00858 0,2.00342 -1.00172,3.8566 -2.8048,4.75815 -1.20206,0.60102 -2.40412,0.65111 -3.60618,0.65111 l -6.31081,0 0.0501,-11.06896"
         id="path3123"
         inkscape:connector-curvature="0" />
      <path
         d="m 394.907,340.46014 0,22.8892 3.60617,0 0,-11.11904 c 0,-1.4024 0.0501,-2.90498 1.60275,-5.35918 2.1036,-3.30566 4.80824,-3.85661 6.46107,-3.85661 1.90325,0 3.10531,0.90155 3.75643,1.70292 0.30051,0.40068 0.45077,0.80137 0.85146,1.15197 l 1.70291,-3.45592 c -1.45248,-1.50257 -3.55609,-2.50429 -6.11046,-2.50429 -3.35575,0 -6.76158,1.70292 -8.26416,4.9585 l 0.15026,-4.40755 -3.75643,0"
         id="path3125"
         inkscape:connector-curvature="0" />
      <path
         d="m 438.03086,351.97987 c 0,-7.91355 -5.00858,-12.02059 -10.2175,-12.02059 -5.80995,0 -10.81853,5.00858 -10.81853,12.12076 0,6.96192 4.9585,11.87033 10.71836,11.87033 5.40926,0 10.31767,-4.35747 10.31767,-11.9705 m -10.46793,-8.96536 c 3.30566,0 6.81167,2.8549 6.81167,9.11561 0,5.75986 -3.30567,8.66485 -6.61133,8.66485 -3.65625,0 -6.96192,-3.40584 -6.96192,-9.06553 0,-5.6096 3.25558,-8.71493 6.76158,-8.71493"
         id="path3127"
         inkscape:connector-curvature="0" />
      <path
         d="m 446.29502,347.57232 c 0,-2.75472 2.30395,-5.00858 5.05866,-5.00858 2.8048,0 5.05867,2.25386 5.05867,5.00858 0,2.75471 -2.25387,5.00858 -5.05867,5.00858 -2.8048,0 -5.05866,-2.25387 -5.05866,-5.00858 m 5.25901,-7.86347 c -4.55781,0 -8.51459,3.60618 -8.51459,8.06381 0,2.50429 1.25215,4.85832 3.35575,6.21064 -1.65283,1.4024 -2.60446,2.95506 -2.60446,4.40755 0,0.95163 0.40069,2.30395 1.85317,3.05523 -2.4542,1.55266 -3.70635,3.25558 -3.70635,5.05867 0,2.50428 2.30396,5.45935 10.31768,5.45935 7.76329,0 10.5681,-3.95678 10.5681,-7.01201 0,-2.00343 -1.15198,-4.00687 -3.55609,-4.9585 -2.40412,-1.00171 -5.15884,-0.65111 -7.7633,-0.65111 -1.70292,0 -2.8048,-0.15026 -3.25558,-0.30052 -0.90154,-0.25043 -1.4024,-0.80137 -1.4024,-1.50257 0,-1.20206 1.4024,-2.35403 1.65283,-2.55438 0.90155,0.3506 1.90326,0.50086 2.90498,0.50086 4.50771,0 8.21407,-3.60618 8.21407,-7.81338 0,-1.4024 -0.40069,-2.75472 -1.15198,-3.90669 1.20206,-0.7012 2.60447,-1.10189 4.00687,-1.10189 0.45077,0 0.85146,0.0501 1.30223,0.15026 l -0.40069,-2.95506 c -2.30394,-0.20035 -4.60789,0.55094 -6.36089,2.00343 -1.45249,-1.4024 -3.35575,-2.15369 -5.45935,-2.15369 m -3.45592,22.38835 c 0.85145,0.10017 2.05352,0.20034 3.80652,0.30051 1.70291,0.0501 3.55609,-0.10017 4.85832,0.10017 2.1036,0.3506 2.75472,1.65283 2.75472,2.65455 0,1.00171 -0.60104,2.20378 -2.15369,3.05523 -1.70292,0.90155 -3.60618,1.00172 -5.15884,1.00172 -1.0518,0 -3.00515,-0.0501 -4.70806,-0.75129 -1.85318,-0.75128 -2.25386,-2.00343 -2.25386,-2.8048 0,-1.65283 1.55266,-2.85489 2.85489,-3.55609"
         id="path3129"
         inkscape:connector-curvature="0" />
      <path
         d="m 470.03568,340.46014 0,22.8892 3.60618,0 0,-11.11904 c 0,-1.4024 0.0501,-2.90498 1.60274,-5.35918 2.1036,-3.30566 4.80824,-3.85661 6.46107,-3.85661 1.90326,0 3.10532,0.90155 3.75643,1.70292 0.30052,0.40068 0.45078,0.80137 0.85146,1.15197 l 1.70292,-3.45592 c -1.45249,-1.50257 -3.5561,-2.50429 -6.11047,-2.50429 -3.35574,0 -6.76158,1.70292 -8.26415,4.9585 l 0.15025,-4.40755 -3.75643,0"
         id="path3131"
         inkscape:connector-curvature="0" />
      <path
         d="m 494.6278,343.11468 1.753,2.30395 c 1.90326,-1.95335 4.45764,-2.55438 6.61133,-2.55438 2.70463,0 4.05695,1.15198 4.70806,2.20378 0.75129,1.25214 0.7012,2.75472 0.7012,3.95678 l 0,0.80137 -0.7012,0 c -3.40583,0 -7.01201,0 -9.91699,1.0518 -3.60617,1.30223 -5.20892,4.00687 -5.20892,6.51115 0,3.35575 2.90498,6.51115 7.66313,6.51115 2.8048,0 5.70978,-1.0518 8.21407,-3.10531 l 0,2.50429 3.40583,0 0,-14.17428 c 0,-1.85318 -0.0501,-3.60618 -1.10189,-5.40927 -1.50257,-2.4542 -4.40755,-3.75643 -7.96364,-3.75643 -3.05523,0 -6.01029,0.95163 -8.16398,3.1554 m 13.92385,9.46622 0,1.55266 c 0,1.15197 0,2.65454 -1.55266,4.30737 -0.85146,0.85146 -3.00515,2.70464 -6.01029,2.70464 -3.05523,0 -4.80824,-1.95335 -4.80824,-3.95678 0,-1.70292 1.15198,-3.55609 4.00686,-4.25729 2.1036,-0.50086 5.15884,-0.3506 7.56296,-0.3506 l 0.80137,0"
         id="path3133"
         inkscape:connector-curvature="0" />
      <path
         d="m 517.01615,363.29926 3.30567,0 0,-15.22608 c 0,-1.10189 0.10017,-2.10361 0.75128,-3.30567 0.80137,-1.50257 1.80309,-2.1036 2.75472,-2.1036 0.80137,0 1.70292,0.50086 2.1036,1.753 0.30052,0.95163 0.25043,2.05352 0.25043,3.00515 l 0,15.8772 3.35575,0 0,-15.12591 c 0,-1.20206 0.10017,-2.15369 0.95163,-3.60618 0.40069,-0.60103 1.25215,-2.05352 2.65455,-2.05352 0.75128,0 1.45249,0.45078 1.80309,1.30223 0.45077,0.95163 0.3506,2.25387 0.3506,3.30567 l 0,16.22779 3.40583,0 0,-16.27788 c 0,-1.90326 0.0501,-3.80652 -0.95163,-5.35918 -0.85146,-1.30223 -2.30395,-1.80309 -3.55609,-1.80309 -2.20377,0 -4.25729,1.30223 -5.15884,3.30566 -0.3506,-1.90325 -1.95335,-3.30566 -4.00686,-3.30566 -1.90326,0 -3.65626,1.20206 -4.70806,2.80481 l 0.0501,-2.25386 -3.35575,0 0,22.83912"
         id="path3135"
         inkscape:connector-curvature="0" />
      <path
         d="m 542.05905,363.29926 3.30566,0 0,-15.22608 c 0,-1.10189 0.10017,-2.10361 0.75128,-3.30567 0.80138,-1.50257 1.80309,-2.1036 2.75472,-2.1036 0.80137,0 1.70292,0.50086 2.10361,1.753 0.30051,0.95163 0.25043,2.05352 0.25043,3.00515 l 0,15.8772 3.35574,0 0,-15.12591 c 0,-1.20206 0.10018,-2.15369 0.95163,-3.60618 0.40069,-0.60103 1.25215,-2.05352 2.65455,-2.05352 0.75129,0 1.45249,0.45078 1.80309,1.30223 0.45077,0.95163 0.3506,2.25387 0.3506,3.30567 l 0,16.22779 3.40583,0 0,-16.27788 c 0,-1.90326 0.0501,-3.80652 -0.95163,-5.35918 -0.85146,-1.30223 -2.30395,-1.80309 -3.55609,-1.80309 -2.20377,0 -4.25729,1.30223 -5.15883,3.30566 -0.35061,-1.90325 -1.95335,-3.30566 -4.00687,-3.30566 -1.90326,0 -3.65626,1.20206 -4.70806,2.80481 l 0.0501,-2.25386 -3.35574,0 0,22.83912"
         id="path3137"
         inkscape:connector-curvature="0" />
      <path
         d="m 570.55786,340.41005 0,2.95506 5.50943,0 0,17.07926 -5.80995,0 0,2.85489 14.8254,0 0,-2.85489 -5.35918,0 0,-20.03432 -9.1657,0 m 7.41269,-9.91699 c -1.45248,0 -2.60446,1.15198 -2.60446,2.55438 0,1.4024 1.15198,2.55437 2.60446,2.55437 1.45249,0 2.60447,-1.15197 2.60447,-2.55437 0,-1.4024 -1.15198,-2.55438 -2.60447,-2.55438"
         id="path3139"
         inkscape:connector-curvature="0" />
      <path
         d="m 593.69749,363.29926 3.65626,0 0,-13.17257 c 0,-1.50257 0.20035,-2.65455 1.15198,-3.90669 0.85145,-1.15197 3.05523,-3.20549 5.45935,-3.20549 1.15197,0 2.30394,0.50086 3.10532,1.45249 1.25214,1.50257 1.25214,3.45592 1.25214,5.05866 l 0,13.7736 3.55609,0 0,-13.87377 c 0,-1.753 0,-3.65626 -0.80137,-5.50943 -1.15197,-2.55438 -3.50601,-4.00687 -6.11047,-4.00687 -3.10531,0 -5.91012,2.00344 -7.61304,4.55781 l 0,-4.00686 -3.65626,0 0,22.83912"
         id="path3141"
         inkscape:connector-curvature="0" />
      <path
         d="m 621.59527,347.57232 c 0,-2.75472 2.30395,-5.00858 5.05867,-5.00858 2.8048,0 5.05866,2.25386 5.05866,5.00858 0,2.75471 -2.25386,5.00858 -5.05866,5.00858 -2.8048,0 -5.05867,-2.25387 -5.05867,-5.00858 m 5.25901,-7.86347 c -4.5578,0 -8.51458,3.60618 -8.51458,8.06381 0,2.50429 1.25214,4.85832 3.35574,6.21064 -1.65283,1.4024 -2.60446,2.95506 -2.60446,4.40755 0,0.95163 0.40069,2.30395 1.85318,3.05523 -2.4542,1.55266 -3.70635,3.25558 -3.70635,5.05867 0,2.50428 2.30395,5.45935 10.31767,5.45935 7.76329,0 10.5681,-3.95678 10.5681,-7.01201 0,-2.00343 -1.15197,-4.00687 -3.55609,-4.9585 -2.40411,-1.00171 -5.15884,-0.65111 -7.7633,-0.65111 -1.70291,0 -2.8048,-0.15026 -3.25557,-0.30052 -0.90154,-0.25043 -1.4024,-0.80137 -1.4024,-1.50257 0,-1.20206 1.4024,-2.35403 1.65283,-2.55438 0.90154,0.3506 1.90326,0.50086 2.90497,0.50086 4.50772,0 8.21407,-3.60618 8.21407,-7.81338 0,-1.4024 -0.40068,-2.75472 -1.15197,-3.90669 1.20206,-0.7012 2.60446,-1.10189 4.00686,-1.10189 0.45077,0 0.85146,0.0501 1.30223,0.15026 l -0.40068,-2.95506 c -2.30395,-0.20035 -4.6079,0.55094 -6.3609,2.00343 -1.45249,-1.4024 -3.35575,-2.15369 -5.45935,-2.15369 m -3.45592,22.38835 c 0.85146,0.10017 2.05352,0.20034 3.80652,0.30051 1.70292,0.0501 3.55609,-0.10017 4.85832,0.10017 2.1036,0.3506 2.75472,1.65283 2.75472,2.65455 0,1.00171 -0.60103,2.20378 -2.15369,3.05523 -1.70291,0.90155 -3.60618,1.00172 -5.15883,1.00172 -1.0518,0 -3.00515,-0.0501 -4.70807,-0.75129 -1.85317,-0.75128 -2.25386,-2.00343 -2.25386,-2.8048 0,-1.65283 1.55266,-2.85489 2.85489,-3.55609"
         id="path3143"
         inkscape:connector-curvature="0" />
    </g>
    <g
       style="font-size:50.08578873px;font-style:normal;font-variant:normal;font-weight:bold;font-stretch:normal;text-align:start;line-height:125%;letter-spacing:0px;word-spacing:-0.24347258px;writing-mode:lr-tb;text-anchor:start;fill:#000000;fill-opacity:1;stroke:none;font-family:Inconsolata;-inkscape-font-specification:Inconsolata Bold"
       id="text3000">
      <path
         d="m 378.51268,382.97425 c -4.15712,0 -12.07068,2.60447 -12.07068,16.27788 0,11.82023 6.61133,15.72694 12.02059,15.72694 2.90498,0 6.26073,-1.05181 9.1657,-3.25558 l 0,-12.17084 -8.86518,0 0,3.00514 5.65969,0 0,7.46279 c -1.753,1.25214 -3.75643,1.90326 -5.60961,1.90326 -2.05351,0 -4.25729,-0.80138 -5.9602,-2.75472 -2.60446,-2.95506 -2.95507,-7.36262 -2.95507,-10.61819 0,-2.90497 0.35061,-5.70978 1.55266,-8.01373 1.60275,-3.05523 4.40756,-4.45763 7.01201,-4.45763 2.80481,0 5.00858,1.55266 5.96021,3.65626 0.15026,0.3506 0.30052,0.75129 0.7012,1.00172 l 2.45421,-2.50429 c -1.80309,-3.25558 -5.20893,-5.25901 -9.06553,-5.25901"
         id="path3114"
         inkscape:connector-curvature="0" />
      <path
         d="m 394.6403,391.63909 0,22.88921 3.60618,0 0,-11.11905 c 0,-1.4024 0.0501,-2.90498 1.60275,-5.35918 2.1036,-3.30566 4.80823,-3.8566 6.46106,-3.8566 1.90326,0 3.10532,0.90154 3.75644,1.70291 0.30051,0.40069 0.45077,0.80138 0.85145,1.15198 l 1.70292,-3.45592 c -1.45248,-1.50258 -3.55609,-2.50429 -6.11046,-2.50429 -3.35575,0 -6.76159,1.70292 -8.26416,4.95849 l 0.15026,-4.40755 -3.75644,0"
         id="path3116"
         inkscape:connector-curvature="0" />
      <path
         d="m 419.23243,394.29364 1.753,2.30394 c 1.90326,-1.95334 4.45764,-2.55437 6.61132,-2.55437 2.70463,0 4.05695,1.15197 4.70807,2.20377 0.75128,1.25215 0.7012,2.75472 0.7012,3.95678 l 0,0.80137 -0.7012,0 c -3.40583,0 -7.01202,0 -9.91699,1.0518 -3.60617,1.30223 -5.20892,4.00687 -5.20892,6.51116 0,3.35574 2.90498,6.51115 7.66312,6.51115 2.80481,0 5.70979,-1.0518 8.21407,-3.10532 l 0,2.50429 3.40584,0 0,-14.17428 c 0,-1.85317 -0.0501,-3.60618 -1.10189,-5.40926 -1.50257,-2.4542 -4.40755,-3.75644 -7.96364,-3.75644 -3.05523,0 -6.0103,0.95164 -8.16398,3.15541 m 13.92384,9.46621 0,1.55266 c 0,1.15197 0,2.65455 -1.55265,4.30738 -0.85146,0.85146 -3.00515,2.70463 -6.0103,2.70463 -3.05523,0 -4.80823,-1.95335 -4.80823,-3.95678 0,-1.70291 1.15197,-3.55609 4.00686,-4.25729 2.1036,-0.50086 5.15884,-0.3506 7.56295,-0.3506 l 0.80137,0"
         id="path3118"
         inkscape:connector-curvature="0" />
      <path
         d="m 443.27361,391.58901 0,3.1554 13.17256,0 -14.17428,17.32968 0,2.45421 19.98423,0 0,-3.40584 c -0.60103,-0.10017 -0.80137,0.30052 -1.50257,0.30052 l -13.62334,0 13.97394,-17.37977 0,-2.4542 -17.83054,0"
         id="path3120"
         inkscape:connector-curvature="0" />
    </g>
  </g>
</svg>
