  0
SECTION
  2
HEADER
  9
$ACADVER
  1
AC1009
  9
$EXTMIN
 10
0.0
 20
0.0
 30
0.0
  9
$EXTMAX
 10
1000.0
 20
1000.0
 30
0.0
  9
$FILLMODE
 70
 0
  9
$SPLFRAME
 70
 1
  0
ENDSEC
  0
SECTION
  2
TABLES
  0
TABLE
  2
LAYER
 70
1
  0
LAYER
  2
0
 70
     0
 62
     7
  6
CONTINUOUS
  0
ENDTAB
  0
ENDSEC
  0
SECTION
  2
ENTITIES
  0
POLYLINE
  8
0
 62
     94
 66
     1
 10
0
 20
0
 30
0.0
 70
     1
 40
0
 41
0
  0
VERTEX
  8
0
 10
1.28288
 20
1.44754
 30
0.0
 40
0
 41
0
  0
VERTEX
  8
0
 10
1.06516
 20
0.934679
 30
0.0
 40
0
 41
0
  0
VERTEX
  8
0
 10
1.05903
 20
0.949436
 30
0.0
 40
0
 41
0
  0
VERTEX
  8
0
 10
1.04177
 20
0.989258
 30
0.0
 40
0
 41
0
  0
VERTEX
  8
0
 10
1.01503
 20
1.04753
 30
0.0
 40
0
 41
0
  0
VERTEX
  8
0
 10
0.980414
 20
1.11773
 30
0.0
 40
0
 41
0
  0
VERTEX
  8
0
 10
0.939507
 20
1.19325
 30
0.0
 40
0
 41
0
  0
VERTEX
  8
0
 10
0.893989
 20
1.26752
 30
0.0
 40
0
 41
0
  0
VERTEX
  8
0
 10
0.845486
 20
1.33393
 30
0.0
 40
0
 41
0
  0
VERTEX
  8
0
 10
0.795628
 20
1.38591
 30
0.0
 40
0
 41
0
  0
VERTEX
  8
0
 10
0.748535
 20
1.41689
 30
0.0
 40
0
 41
0
  0
VERTEX
  8
0
 10
0.700196
 20
1.43338
 30
0.0
 40
0
 41
0
  0
VERTEX
  8
0
 10
0.653646
 20
1.43664
 30
0.0
 40
0
 41
0
  0
VERTEX
  8
0
 10
0.61225
 20
1.42785
 30
0.0
 40
0
 41
0
  0
VERTEX
  8
0
 10
0.577311
 20
1.41238
 30
0.0
 40
0
 41
0
  0
VERTEX
  8
0
 10
0.546224
 20
1.39367
 30
0.0
 40
0
 41
0
  0
VERTEX
  8
0
 10
0.515517
 20
1.37001
 30
0.0
 40
0
 41
0
  0
VERTEX
  8
0
 10
0.481933
 20
1.33984
 30
0.0
 40
0
 41
0
  0
VERTEX
  8
0
 10
0.483832
 20
1.31912
 30
0.0
 40
0
 41
0
  0
VERTEX
  8
0
 10
0.493218
 20
1.30447
 30
0.0
 40
0
 41
0
  0
VERTEX
  8
0
 10
0.507704
 20
1.29346
 30
0.0
 40
0
 41
0
  0
VERTEX
  8
0
 10
0.524903
 20
1.28358
 30
0.0
 40
0
 41
0
  0
VERTEX
  8
0
 10
0.542372
 20
1.27224
 30
0.0
 40
0
 41
0
  0
VERTEX
  8
0
 10
0.557781
 20
1.257
 30
0.0
 40
0
 41
0
  0
VERTEX
  8
0
 10
0.568739
 20
1.23535
 30
0.0
 40
0
 41
0
  0
VERTEX
  8
0
 10
0.572808
 20
1.2047
 30
0.0
 40
0
 41
0
  0
VERTEX
  8
0
 10
0.598253
 20
1.22532
 30
0.0
 40
0
 41
0
  0
VERTEX
  8
0
 10
0.621907
 20
1.23899
 30
0.0
 40
0
 41
0
  0
VERTEX
  8
0
 10
0.646864
 20
1.24544
 30
0.0
 40
0
 41
0
  0
VERTEX
  8
0
 10
0.676269
 20
1.2443
 30
0.0
 40
0
 41
0
  0
VERTEX
  8
0
 10
0.710504
 20
1.21908
 30
0.0
 40
0
 41
0
  0
VERTEX
  8
0
 10
0.754557
 20
1.1601
 30
0.0
 40
0
 41
0
  0
VERTEX
  8
0
 10
0.803603
 20
1.07764
 30
0.0
 40
0
 41
0
  0
VERTEX
  8
0
 10
0.852865
 20
0.981663
 30
0.0
 40
0
 41
0
  0
VERTEX
  8
0
 10
0.897624
 20
0.882379
 30
0.0
 40
0
 41
0
  0
VERTEX
  8
0
 10
0.933051
 20
0.789876
 30
0.0
 40
0
 41
0
  0
VERTEX
  8
0
 10
0.954428
 20
0.714193
 30
0.0
 40
0
 41
0
  0
VERTEX
  8
0
 10
0.957032
 20
0.665474
 30
0.0
 40
0
 41
0
  0
VERTEX
  8
0
 10
0.952854
 20
0.656793
 30
0.0
 40
0
 41
0
  0
VERTEX
  8
0
 10
0.941949
 20
0.636719
 30
0.0
 40
0
 41
0
  0
VERTEX
  8
0
 10
0.926432
 20
0.614204
 30
0.0
 40
0
 41
0
  0
VERTEX
  8
0
 10
0.908583
 20
0.598307
 30
0.0
 40
0
 41
0
  0
VERTEX
  8
0
 10
0.87424
 20
0.593425
 30
0.0
 40
0
 41
0
  0
VERTEX
  8
0
 10
0.836262
 20
0.601129
 30
0.0
 40
0
 41
0
  0
VERTEX
  8
0
 10
0.79975
 20
0.606771
 30
0.0
 40
0
 41
0
  0
VERTEX
  8
0
 10
0.770074
 20
0.595594
 30
0.0
 40
0
 41
0
  0
VERTEX
  8
0
 10
0.747233
 20
0.558757
 30
0.0
 40
0
 41
0
  0
VERTEX
  8
0
 10
0.737793
 20
0.512587
 30
0.0
 40
0
 41
0
  0
VERTEX
  8
0
 10
0.74349
 20
0.467014
 30
0.0
 40
0
 41
0
  0
VERTEX
  8
0
 10
0.766004
 20
0.432183
 30
0.0
 40
0
 41
0
  0
VERTEX
  8
0
 10
0.834744
 20
0.404785
 30
0.0
 40
0
 41
0
  0
VERTEX
  8
0
 10
0.916667
 20
0.41135
 30
0.0
 40
0
 41
0
  0
VERTEX
  8
0
 10
0.995497
 20
0.443739
 30
0.0
 40
0
 41
0
  0
VERTEX
  8
0
 10
1.05518
 20
0.493707
 30
0.0
 40
0
 41
0
  0
VERTEX
  8
0
 10
1.12831
 20
0.601019
 30
0.0
 40
0
 41
0
  0
VERTEX
  8
0
 10
1.2003
 20
0.732368
 30
0.0
 40
0
 41
0
  0
VERTEX
  8
0
 10
1.26855
 20
0.875868
 30
0.0
 40
0
 41
0
  0
VERTEX
  8
0
 10
1.33035
 20
1.0198
 30
0.0
 40
0
 41
0
  0
VERTEX
  8
0
 10
1.38303
 20
1.15234
 30
0.0
 40
0
 41
0
  0
VERTEX
  8
0
 10
1.42399
 20
1.26161
 30
0.0
 40
0
 41
0
  0
VERTEX
  8
0
 10
1.45053
 20
1.33583
 30
0.0
 40
0
 41
0
  0
VERTEX
  8
0
 10
1.45996
 20
1.36317
 30
0.0
 40
0
 41
0
  0
VERTEX
  8
0
 10
1.43718
 20
1.39822
 30
0.0
 40
0
 41
0
  0
VERTEX
  8
0
 10
1.41553
 20
1.41292
 30
0.0
 40
0
 41
0
  0
VERTEX
  8
0
 10
1.39447
 20
1.41407
 30
0.0
 40
0
 41
0
  0
VERTEX
  8
0
 10
1.37359
 20
1.40815
 30
0.0
 40
0
 41
0
  0
VERTEX
  8
0
 10
1.35243
 20
1.40186
 30
0.0
 40
0
 41
0
  0
VERTEX
  8
0
 10
1.33057
 20
1.40192
 30
0.0
 40
0
 41
0
  0
VERTEX
  8
0
 10
1.30751
 20
1.41493
 30
0.0
 40
0
 41
0
  0
VERTEX
  8
0
 10
1.28288
 20
1.44754
 30
0.0
 40
0
 41
0
  0
SEQEND
 8
0
  0
POLYLINE
  8
0
 62
     94
 66
     1
 10
0
 20
0
 30
0.0
 70
     1
 40
0.391477
 41
0.391477
  0
VERTEX
  8
0
 10
1.28288
 20
1.44754
 30
0.0
 40
0.00543718
 41
0.00543718
  0
VERTEX
  8
0
 10
1.06516
 20
0.934679
 30
0.0
 40
0.00543718
 41
0.00543718
  0
VERTEX
  8
0
 10
1.05903
 20
0.949436
 30
0.0
 40
0.00543718
 41
0.00543718
  0
VERTEX
  8
0
 10
1.04177
 20
0.989258
 30
0.0
 40
0.00543718
 41
0.00543718
  0
VERTEX
  8
0
 10
1.01503
 20
1.04753
 30
0.0
 40
0.00543718
 41
0.00543718
  0
VERTEX
  8
0
 10
0.980414
 20
1.11773
 30
0.0
 40
0.00543718
 41
0.00543718
  0
VERTEX
  8
0
 10
0.939507
 20
1.19325
 30
0.0
 40
0.00543718
 41
0.00543718
  0
VERTEX
  8
0
 10
0.893989
 20
1.26752
 30
0.0
 40
0.00543718
 41
0.00543718
  0
VERTEX
  8
0
 10
0.845486
 20
1.33393
 30
0.0
 40
0.00543718
 41
0.00543718
  0
VERTEX
  8
0
 10
0.795628
 20
1.38591
 30
0.0
 40
0.00543718
 41
0.00543718
  0
VERTEX
  8
0
 10
0.748535
 20
1.41689
 30
0.0
 40
0.00543718
 41
0.00543718
  0
VERTEX
  8
0
 10
0.700196
 20
1.43338
 30
0.0
 40
0.00543718
 41
0.00543718
  0
VERTEX
  8
0
 10
0.653646
 20
1.43664
 30
0.0
 40
0.00543718
 41
0.00543718
  0
VERTEX
  8
0
 10
0.61225
 20
1.42785
 30
0.0
 40
0.00543718
 41
0.00543718
  0
VERTEX
  8
0
 10
0.577311
 20
1.41238
 30
0.0
 40
0.00543718
 41
0.00543718
  0
VERTEX
  8
0
 10
0.546224
 20
1.39367
 30
0.0
 40
0.00543718
 41
0.00543718
  0
VERTEX
  8
0
 10
0.515517
 20
1.37001
 30
0.0
 40
0.00543718
 41
0.00543718
  0
VERTEX
  8
0
 10
0.481933
 20
1.33984
 30
0.0
 40
0.00543718
 41
0.00543718
  0
VERTEX
  8
0
 10
0.483832
 20
1.31912
 30
0.0
 40
0.00543718
 41
0.00543718
  0
VERTEX
  8
0
 10
0.493218
 20
1.30447
 30
0.0
 40
0.00543718
 41
0.00543718
  0
VERTEX
  8
0
 10
0.507704
 20
1.29346
 30
0.0
 40
0.00543718
 41
0.00543718
  0
VERTEX
  8
0
 10
0.524903
 20
1.28358
 30
0.0
 40
0.00543718
 41
0.00543718
  0
VERTEX
  8
0
 10
0.542372
 20
1.27224
 30
0.0
 40
0.00543718
 41
0.00543718
  0
VERTEX
  8
0
 10
0.557781
 20
1.257
 30
0.0
 40
0.00543718
 41
0.00543718
  0
VERTEX
  8
0
 10
0.568739
 20
1.23535
 30
0.0
 40
0.00543718
 41
0.00543718
  0
VERTEX
  8
0
 10
0.572808
 20
1.2047
 30
0.0
 40
0.00543718
 41
0.00543718
  0
VERTEX
  8
0
 10
0.598253
 20
1.22532
 30
0.0
 40
0.00543718
 41
0.00543718
  0
VERTEX
  8
0
 10
0.621907
 20
1.23899
 30
0.0
 40
0.00543718
 41
0.00543718
  0
VERTEX
  8
0
 10
0.646864
 20
1.24544
 30
0.0
 40
0.00543718
 41
0.00543718
  0
VERTEX
  8
0
 10
0.676269
 20
1.2443
 30
0.0
 40
0.00543718
 41
0.00543718
  0
VERTEX
  8
0
 10
0.710504
 20
1.21908
 30
0.0
 40
0.00543718
 41
0.00543718
  0
VERTEX
  8
0
 10
0.754557
 20
1.1601
 30
0.0
 40
0.00543718
 41
0.00543718
  0
VERTEX
  8
0
 10
0.803603
 20
1.07764
 30
0.0
 40
0.00543718
 41
0.00543718
  0
VERTEX
  8
0
 10
0.852865
 20
0.981663
 30
0.0
 40
0.00543718
 41
0.00543718
  0
VERTEX
  8
0
 10
0.897624
 20
0.882379
 30
0.0
 40
0.00543718
 41
0.00543718
  0
VERTEX
  8
0
 10
0.933051
 20
0.789876
 30
0.0
 40
0.00543718
 41
0.00543718
  0
VERTEX
  8
0
 10
0.954428
 20
0.714193
 30
0.0
 40
0.00543718
 41
0.00543718
  0
VERTEX
  8
0
 10
0.957032
 20
0.665474
 30
0.0
 40
0.00543718
 41
0.00543718
  0
VERTEX
  8
0
 10
0.952854
 20
0.656793
 30
0.0
 40
0.00543718
 41
0.00543718
  0
VERTEX
  8
0
 10
0.941949
 20
0.636719
 30
0.0
 40
0.00543718
 41
0.00543718
  0
VERTEX
  8
0
 10
0.926432
 20
0.614204
 30
0.0
 40
0.00543718
 41
0.00543718
  0
VERTEX
  8
0
 10
0.908583
 20
0.598307
 30
0.0
 40
0.00543718
 41
0.00543718
  0
VERTEX
  8
0
 10
0.87424
 20
0.593425
 30
0.0
 40
0.00543718
 41
0.00543718
  0
VERTEX
  8
0
 10
0.836262
 20
0.601129
 30
0.0
 40
0.00543718
 41
0.00543718
  0
VERTEX
  8
0
 10
0.79975
 20
0.606771
 30
0.0
 40
0.00543718
 41
0.00543718
  0
VERTEX
  8
0
 10
0.770074
 20
0.595594
 30
0.0
 40
0.00543718
 41
0.00543718
  0
VERTEX
  8
0
 10
0.747233
 20
0.558757
 30
0.0
 40
0.00543718
 41
0.00543718
  0
VERTEX
  8
0
 10
0.737793
 20
0.512587
 30
0.0
 40
0.00543718
 41
0.00543718
  0
VERTEX
  8
0
 10
0.74349
 20
0.467014
 30
0.0
 40
0.00543718
 41
0.00543718
  0
VERTEX
  8
0
 10
0.766004
 20
0.432183
 30
0.0
 40
0.00543718
 41
0.00543718
  0
VERTEX
  8
0
 10
0.834744
 20
0.404785
 30
0.0
 40
0.00543718
 41
0.00543718
  0
VERTEX
  8
0
 10
0.916667
 20
0.41135
 30
0.0
 40
0.00543718
 41
0.00543718
  0
VERTEX
  8
0
 10
0.995497
 20
0.443739
 30
0.0
 40
0.00543718
 41
0.00543718
  0
VERTEX
  8
0
 10
1.05518
 20
0.493707
 30
0.0
 40
0.00543718
 41
0.00543718
  0
VERTEX
  8
0
 10
1.12831
 20
0.601019
 30
0.0
 40
0.00543718
 41
0.00543718
  0
VERTEX
  8
0
 10
1.2003
 20
0.732368
 30
0.0
 40
0.00543718
 41
0.00543718
  0
VERTEX
  8
0
 10
1.26855
 20
0.875868
 30
0.0
 40
0.00543718
 41
0.00543718
  0
VERTEX
  8
0
 10
1.33035
 20
1.0198
 30
0.0
 40
0.00543718
 41
0.00543718
  0
VERTEX
  8
0
 10
1.38303
 20
1.15234
 30
0.0
 40
0.00543718
 41
0.00543718
  0
VERTEX
  8
0
 10
1.42399
 20
1.26161
 30
0.0
 40
0.00543718
 41
0.00543718
  0
VERTEX
  8
0
 10
1.45053
 20
1.33583
 30
0.0
 40
0.00543718
 41
0.00543718
  0
VERTEX
  8
0
 10
1.45996
 20
1.36317
 30
0.0
 40
0.00543718
 41
0.00543718
  0
VERTEX
  8
0
 10
1.43718
 20
1.39822
 30
0.0
 40
0.00543718
 41
0.00543718
  0
VERTEX
  8
0
 10
1.41553
 20
1.41292
 30
0.0
 40
0.00543718
 41
0.00543718
  0
VERTEX
  8
0
 10
1.39447
 20
1.41407
 30
0.0
 40
0.00543718
 41
0.00543718
  0
VERTEX
  8
0
 10
1.37359
 20
1.40815
 30
0.0
 40
0.00543718
 41
0.00543718
  0
VERTEX
  8
0
 10
1.35243
 20
1.40186
 30
0.0
 40
0.00543718
 41
0.00543718
  0
VERTEX
  8
0
 10
1.33057
 20
1.40192
 30
0.0
 40
0.00543718
 41
0.00543718
  0
VERTEX
  8
0
 10
1.30751
 20
1.41493
 30
0.0
 40
0.00543718
 41
0.00543718
  0
VERTEX
  8
0
 10
1.28288
 20
1.44754
 30
0.0
 40
0.00543718
 41
0.00543718
  0
SEQEND
 8
0
  0
POLYLINE
  8
0
 62
     94
 66
     1
 10
0
 20
0
 30
0.0
 70
     1
 40
13.3102
 41
13.3102
  0
VERTEX
  8
0
 10
1.81662
 20
0.974229
 30
0.0
 40
0.184864
 41
0.184864
  0
VERTEX
  8
0
 10
1.79949
 20
0.804471
 30
0.0
 40
0.184864
 41
0.184864
  0
VERTEX
  8
0
 10
1.75038
 20
0.646322
 30
0.0
 40
0.184864
 41
0.184864
  0
VERTEX
  8
0
 10
1.67275
 20
0.503201
 30
0.0
 40
0.184864
 41
0.184864
  0
VERTEX
  8
0
 10
1.56987
 20
0.378526
 30
0.0
 40
0.184864
 41
0.184864
  0
VERTEX
  8
0
 10
1.44521
 20
0.275663
 30
0.0
 40
0.184864
 41
0.184864
  0
VERTEX
  8
0
 10
1.30214
 20
0.198025
 30
0.0
 40
0.184864
 41
0.184864
  0
VERTEX
  8
0
 10
1.14399
 20
0.148926
 30
0.0
 40
0.184864
 41
0.184864
  0
VERTEX
  8
0
 10
0.974229
 20
0.131782
 30
0.0
 40
0.184864
 41
0.184864
  0
VERTEX
  8
0
 10
0.804417
 20
0.148926
 30
0.0
 40
0.184864
 41
0.184864
  0
VERTEX
  8
0
 10
0.646268
 20
0.198025
 30
0.0
 40
0.184864
 41
0.184864
  0
VERTEX
  8
0
 10
0.503201
 20
0.275663
 30
0.0
 40
0.184864
 41
0.184864
  0
VERTEX
  8
0
 10
0.378526
 20
0.378526
 30
0.0
 40
0.184864
 41
0.184864
  0
VERTEX
  8
0
 10
0.275608
 20
0.503201
 30
0.0
 40
0.184864
 41
0.184864
  0
VERTEX
  8
0
 10
0.197971
 20
0.646322
 30
0.0
 40
0.184864
 41
0.184864
  0
VERTEX
  8
0
 10
0.148872
 20
0.804471
 30
0.0
 40
0.184864
 41
0.184864
  0
VERTEX
  8
0
 10
0.131782
 20
0.974229
 30
0.0
 40
0.184864
 41
0.184864
  0
VERTEX
  8
0
 10
0.148872
 20
1.14404
 30
0.0
 40
0.184864
 41
0.184864
  0
VERTEX
  8
0
 10
0.197971
 20
1.30214
 30
0.0
 40
0.184864
 41
0.184864
  0
VERTEX
  8
0
 10
0.275608
 20
1.44526
 30
0.0
 40
0.184864
 41
0.184864
  0
VERTEX
  8
0
 10
0.378526
 20
1.56993
 30
0.0
 40
0.184864
 41
0.184864
  0
VERTEX
  8
0
 10
0.503201
 20
1.67279
 30
0.0
 40
0.184864
 41
0.184864
  0
VERTEX
  8
0
 10
0.646268
 20
1.75043
 30
0.0
 40
0.184864
 41
0.184864
  0
VERTEX
  8
0
 10
0.804417
 20
1.79953
 30
0.0
 40
0.184864
 41
0.184864
  0
VERTEX
  8
0
 10
0.974229
 20
1.81662
 30
0.0
 40
0.184864
 41
0.184864
  0
VERTEX
  8
0
 10
1.14399
 20
1.79953
 30
0.0
 40
0.184864
 41
0.184864
  0
VERTEX
  8
0
 10
1.30208
 20
1.75043
 30
0.0
 40
0.184864
 41
0.184864
  0
VERTEX
  8
0
 10
1.44521
 20
1.67279
 30
0.0
 40
0.184864
 41
0.184864
  0
VERTEX
  8
0
 10
1.56987
 20
1.56993
 30
0.0
 40
0.184864
 41
0.184864
  0
VERTEX
  8
0
 10
1.67275
 20
1.44526
 30
0.0
 40
0.184864
 41
0.184864
  0
VERTEX
  8
0
 10
1.75038
 20
1.30214
 30
0.0
 40
0.184864
 41
0.184864
  0
VERTEX
  8
0
 10
1.79949
 20
1.14404
 30
0.0
 40
0.184864
 41
0.184864
  0
VERTEX
  8
0
 10
1.81662
 20
0.974229
 30
0.0
 40
0.184864
 41
0.184864
  0
SEQEND
 8
0
  0
POLYLINE
  8
0
 62
     0
 66
     1
 10
0
 20
0
 30
0.0
 70
     1
 40
0
 41
0
  0
VERTEX
  8
0
 10
2.11914
 20
1.70811
 30
0.0
 40
0
 41
0
  0
VERTEX
  8
0
 10
2.11914
 20
1.36144
 30
0.0
 40
0
 41
0
  0
VERTEX
  8
0
 10
2.15864
 20
1.36144
 30
0.0
 40
0
 41
0
  0
VERTEX
  8
0
 10
2.15864
 20
1.53174
 30
0.0
 40
0
 41
0
  0
VERTEX
  8
0
 10
2.28831
 20
1.53174
 30
0.0
 40
0
 41
0
  0
VERTEX
  8
0
 10
2.28831
 20
1.56511
 30
0.0
 40
0
 41
0
  0
VERTEX
  8
0
 10
2.15864
 20
1.56511
 30
0.0
 40
0
 41
0
  0
VERTEX
  8
0
 10
2.15864
 20
1.67421
 30
0.0
 40
0
 41
0
  0
VERTEX
  8
0
 10
2.3189
 20
1.67421
 30
0.0
 40
0
 41
0
  0
VERTEX
  8
0
 10
2.3189
 20
1.70811
 30
0.0
 40
0
 41
0
  0
VERTEX
  8
0
 10
2.11914
 20
1.70811
 30
0.0
 40
0
 41
0
  0
SEQEND
 8
0
  0
POLYLINE
  8
0
 62
     0
 66
     1
 10
0
 20
0
 30
0.0
 70
     1
 40
0
 41
0
  0
VERTEX
  8
0
 10
2.38906
 20
1.61518
 30
0.0
 40
0
 41
0
  0
VERTEX
  8
0
 10
2.38906
 20
1.47331
 30
0.0
 40
0
 41
0
  0
VERTEX
  8
0
 10
2.39031
 20
1.44032
 30
0.0
 40
0
 41
0
  0
VERTEX
  8
0
 10
2.39903
 20
1.40653
 30
0.0
 40
0
 41
0
  0
VERTEX
  8
0
 10
2.43147
 20
1.36811
 30
0.0
 40
0
 41
0
  0
VERTEX
  8
0
 10
2.47808
 20
1.35476
 30
0.0
 40
0
 41
0
  0
VERTEX
  8
0
 10
2.52294
 20
1.36692
 30
0.0
 40
0
 41
0
  0
VERTEX
  8
0
 10
2.55653
 20
1.39985
 30
0.0
 40
0
 41
0
  0
VERTEX
  8
0
 10
2.55599
 20
1.38091
 30
0.0
 40
0
 41
0
  0
VERTEX
  8
0
 10
2.55713
 20
1.36144
 30
0.0
 40
0
 41
0
  0
VERTEX
  8
0
 10
2.59939
 20
1.36144
 30
0.0
 40
0
 41
0
  0
VERTEX
  8
0
 10
2.59608
 20
1.38428
 30
0.0
 40
0
 41
0
  0
VERTEX
  8
0
 10
2.59608
 20
1.61518
 30
0.0
 40
0
 41
0
  0
VERTEX
  8
0
 10
2.55599
 20
1.61518
 30
0.0
 40
0
 41
0
  0
VERTEX
  8
0
 10
2.55599
 20
1.47553
 30
0.0
 40
0
 41
0
  0
VERTEX
  8
0
 10
2.5541
 20
1.44906
 30
0.0
 40
0
 41
0
  0
VERTEX
  8
0
 10
2.54596
 20
1.42546
 30
0.0
 40
0
 41
0
  0
VERTEX
  8
0
 10
2.52126
 20
1.39839
 30
0.0
 40
0
 41
0
  0
VERTEX
  8
0
 10
2.48699
 20
1.38759
 30
0.0
 40
0
 41
0
  0
VERTEX
  8
0
 10
2.45921
 20
1.39567
 30
0.0
 40
0
 41
0
  0
VERTEX
  8
0
 10
2.43858
 20
1.41872
 30
0.0
 40
0
 41
0
  0
VERTEX
  8
0
 10
2.43078
 20
1.44646
 30
0.0
 40
0
 41
0
  0
VERTEX
  8
0
 10
2.42969
 20
1.47331
 30
0.0
 40
0
 41
0
  0
VERTEX
  8
0
 10
2.42969
 20
1.61518
 30
0.0
 40
0
 41
0
  0
VERTEX
  8
0
 10
2.38906
 20
1.61518
 30
0.0
 40
0
 41
0
  0
SEQEND
 8
0
  0
POLYLINE
  8
0
 62
     0
 66
     1
 10
0
 20
0
 30
0.0
 70
     1
 40
0
 41
0
  0
VERTEX
  8
0
 10
2.67063
 20
1.36144
 30
0.0
 40
0
 41
0
  0
VERTEX
  8
0
 10
2.71126
 20
1.36144
 30
0.0
 40
0
 41
0
  0
VERTEX
  8
0
 10
2.71126
 20
1.50782
 30
0.0
 40
0
 41
0
  0
VERTEX
  8
0
 10
2.71365
 20
1.53054
 30
0.0
 40
0
 41
0
  0
VERTEX
  8
0
 10
2.72407
 20
1.55122
 30
0.0
 40
0
 41
0
  0
VERTEX
  8
0
 10
2.73372
 20
1.56222
 30
0.0
 40
0
 41
0
  0
VERTEX
  8
0
 10
2.74789
 20
1.57383
 30
0.0
 40
0
 41
0
  0
VERTEX
  8
0
 10
2.76531
 20
1.58306
 30
0.0
 40
0
 41
0
  0
VERTEX
  8
0
 10
2.78472
 20
1.58681
 30
0.0
 40
0
 41
0
  0
VERTEX
  8
0
 10
2.80344
 20
1.58274
 30
0.0
 40
0
 41
0
  0
VERTEX
  8
0
 10
2.81922
 20
1.57069
 30
0.0
 40
0
 41
0
  0
VERTEX
  8
0
 10
2.83137
 20
1.54303
 30
0.0
 40
0
 41
0
  0
VERTEX
  8
0
 10
2.83311
 20
1.51449
 30
0.0
 40
0
 41
0
  0
VERTEX
  8
0
 10
2.83311
 20
1.36144
 30
0.0
 40
0
 41
0
  0
VERTEX
  8
0
 10
2.87267
 20
1.36144
 30
0.0
 40
0
 41
0
  0
VERTEX
  8
0
 10
2.87267
 20
1.51557
 30
0.0
 40
0
 41
0
  0
VERTEX
  8
0
 10
2.87153
 20
1.54579
 30
0.0
 40
0
 41
0
  0
VERTEX
  8
0
 10
2.86372
 20
1.57682
 30
0.0
 40
0
 41
0
  0
VERTEX
  8
0
 10
2.83583
 20
1.60975
 30
0.0
 40
0
 41
0
  0
VERTEX
  8
0
 10
2.79585
 20
1.62131
 30
0.0
 40
0
 41
0
  0
VERTEX
  8
0
 10
2.74767
 20
1.60667
 30
0.0
 40
0
 41
0
  0
VERTEX
  8
0
 10
2.71126
 20
1.57069
 30
0.0
 40
0
 41
0
  0
VERTEX
  8
0
 10
2.71126
 20
1.61518
 30
0.0
 40
0
 41
0
  0
VERTEX
  8
0
 10
2.67063
 20
1.61518
 30
0.0
 40
0
 41
0
  0
VERTEX
  8
0
 10
2.67063
 20
1.36144
 30
0.0
 40
0
 41
0
  0
SEQEND
 8
0
  0
POLYLINE
  8
0
 62
     0
 66
     1
 10
0
 20
0
 30
0.0
 70
     1
 40
0
 41
0
  0
VERTEX
  8
0
 10
3.16482
 20
1.57346
 30
0.0
 40
0
 41
0
  0
VERTEX
  8
0
 10
3.12517
 20
1.60818
 30
0.0
 40
0
 41
0
  0
VERTEX
  8
0
 10
3.06967
 20
1.62076
 30
0.0
 40
0
 41
0
  0
VERTEX
  8
0
 10
3.01824
 20
1.61083
 30
0.0
 40
0
 41
0
  0
VERTEX
  8
0
 10
2.97792
 20
1.58317
 30
0.0
 40
0
 41
0
  0
VERTEX
  8
0
 10
2.95161
 20
1.54124
 30
0.0
 40
0
 41
0
  0
VERTEX
  8
0
 10
2.94222
 20
1.48833
 30
0.0
 40
0
 41
0
  0
VERTEX
  8
0
 10
2.95161
 20
1.43506
 30
0.0
 40
0
 41
0
  0
VERTEX
  8
0
 10
2.97765
 20
1.39274
 30
0.0
 40
0
 41
0
  0
VERTEX
  8
0
 10
3.01731
 20
1.36485
 30
0.0
 40
0
 41
0
  0
VERTEX
  8
0
 10
3.06743
 20
1.35476
 30
0.0
 40
0
 41
0
  0
VERTEX
  8
0
 10
3.11833
 20
1.36529
 30
0.0
 40
0
 41
0
  0
VERTEX
  8
0
 10
3.16092
 20
1.3954
 30
0.0
 40
0
 41
0
  0
VERTEX
  8
0
 10
3.13807
 20
1.4221
 30
0.0
 40
0
 41
0
  0
VERTEX
  8
0
 10
3.10732
 20
1.39953
 30
0.0
 40
0
 41
0
  0
VERTEX
  8
0
 10
3.07075
 20
1.3915
 30
0.0
 40
0
 41
0
  0
VERTEX
  8
0
 10
3.03618
 20
1.39888
 30
0.0
 40
0
 41
0
  0
VERTEX
  8
0
 10
3.00846
 20
1.41954
 30
0.0
 40
0
 41
0
  0
VERTEX
  8
0
 10
2.99007
 20
1.45139
 30
0.0
 40
0
 41
0
  0
VERTEX
  8
0
 10
2.9834
 20
1.49219
 30
0.0
 40
0
 41
0
  0
VERTEX
  8
0
 10
2.9899
 20
1.53136
 30
0.0
 40
0
 41
0
  0
VERTEX
  8
0
 10
3.00786
 20
1.56099
 30
0.0
 40
0
 41
0
  0
VERTEX
  8
0
 10
3.03456
 20
1.57975
 30
0.0
 40
0
 41
0
  0
VERTEX
  8
0
 10
3.06743
 20
1.58626
 30
0.0
 40
0
 41
0
  0
VERTEX
  8
0
 10
3.09576
 20
1.58154
 30
0.0
 40
0
 41
0
  0
VERTEX
  8
0
 10
3.11589
 20
1.57086
 30
0.0
 40
0
 41
0
  0
VERTEX
  8
0
 10
3.12819
 20
1.55951
 30
0.0
 40
0
 41
0
  0
VERTEX
  8
0
 10
3.13308
 20
1.5529
 30
0.0
 40
0
 41
0
  0
VERTEX
  8
0
 10
3.1339
 20
1.54628
 30
0.0
 40
0
 41
0
  0
VERTEX
  8
0
 10
3.13644
 20
1.5401
 30
0.0
 40
0
 41
0
  0
VERTEX
  8
0
 10
3.16482
 20
1.57346
 30
0.0
 40
0
 41
0
  0
SEQEND
 8
0
  0
POLYLINE
  8
0
 62
     0
 66
     1
 10
0
 20
0
 30
0.0
 70
     1
 40
0
 41
0
  0
VERTEX
  8
0
 10
3.29394
 20
1.68365
 30
0.0
 40
0
 41
0
  0
VERTEX
  8
0
 10
3.2889
 20
1.61518
 30
0.0
 40
0
 41
0
  0
VERTEX
  8
0
 10
3.22825
 20
1.61518
 30
0.0
 40
0
 41
0
  0
VERTEX
  8
0
 10
3.22771
 20
1.58236
 30
0.0
 40
0
 41
0
  0
VERTEX
  8
0
 10
3.28722
 20
1.58236
 30
0.0
 40
0
 41
0
  0
VERTEX
  8
0
 10
3.28222
 20
1.45269
 30
0.0
 40
0
 41
0
  0
VERTEX
  8
0
 10
3.28407
 20
1.41732
 30
0.0
 40
0
 41
0
  0
VERTEX
  8
0
 10
3.29725
 20
1.38314
 30
0.0
 40
0
 41
0
  0
VERTEX
  8
0
 10
3.32096
 20
1.36355
 30
0.0
 40
0
 41
0
  0
VERTEX
  8
0
 10
3.35514
 20
1.35645
 30
0.0
 40
0
 41
0
  0
VERTEX
  8
0
 10
3.39887
 20
1.3648
 30
0.0
 40
0
 41
0
  0
VERTEX
  8
0
 10
3.43636
 20
1.38482
 30
0.0
 40
0
 41
0
  0
VERTEX
  8
0
 10
3.42415
 20
1.4165
 30
0.0
 40
0
 41
0
  0
VERTEX
  8
0
 10
3.39318
 20
1.39882
 30
0.0
 40
0
 41
0
  0
VERTEX
  8
0
 10
3.36681
 20
1.39318
 30
0.0
 40
0
 41
0
  0
VERTEX
  8
0
 10
3.33996
 20
1.40229
 30
0.0
 40
0
 41
0
  0
VERTEX
  8
0
 10
3.32394
 20
1.43435
 30
0.0
 40
0
 41
0
  0
VERTEX
  8
0
 10
3.32314
 20
1.44569
 30
0.0
 40
0
 41
0
  0
VERTEX
  8
0
 10
3.32232
 20
1.48329
 30
0.0
 40
0
 41
0
  0
VERTEX
  8
0
 10
3.32731
 20
1.58236
 30
0.0
 40
0
 41
0
  0
VERTEX
  8
0
 10
3.41081
 20
1.58236
 30
0.0
 40
0
 41
0
  0
VERTEX
  8
0
 10
3.41081
 20
1.61578
 30
0.0
 40
0
 41
0
  0
VERTEX
  8
0
 10
3.32785
 20
1.61578
 30
0.0
 40
0
 41
0
  0
VERTEX
  8
0
 10
3.3285
 20
1.62315
 30
0.0
 40
0
 41
0
  0
VERTEX
  8
0
 10
3.33014
 20
1.6404
 30
0.0
 40
0
 41
0
  0
VERTEX
  8
0
 10
3.33231
 20
1.66037
 30
0.0
 40
0
 41
0
  0
VERTEX
  8
0
 10
3.33453
 20
1.67583
 30
0.0
 40
0
 41
0
  0
VERTEX
  8
0
 10
3.33697
 20
1.68321
 30
0.0
 40
0
 41
0
  0
VERTEX
  8
0
 10
3.33735
 20
1.69086
 30
0.0
 40
0
 41
0
  0
VERTEX
  8
0
 10
3.29394
 20
1.68365
 30
0.0
 40
0
 41
0
  0
SEQEND
 8
0
  0
POLYLINE
  8
0
 62
     0
 66
     1
 10
0
 20
0
 30
0.0
 70
     1
 40
0
 41
0
  0
VERTEX
  8
0
 10
3.52653
 20
1.61578
 30
0.0
 40
0
 41
0
  0
VERTEX
  8
0
 10
3.52653
 20
1.5829
 30
0.0
 40
0
 41
0
  0
VERTEX
  8
0
 10
3.58778
 20
1.5829
 30
0.0
 40
0
 41
0
  0
VERTEX
  8
0
 10
3.58778
 20
1.39318
 30
0.0
 40
0
 41
0
  0
VERTEX
  8
0
 10
3.52322
 20
1.39318
 30
0.0
 40
0
 41
0
  0
VERTEX
  8
0
 10
3.52322
 20
1.36144
 30
0.0
 40
0
 41
0
  0
VERTEX
  8
0
 10
3.68793
 20
1.36144
 30
0.0
 40
0
 41
0
  0
VERTEX
  8
0
 10
3.68793
 20
1.39318
 30
0.0
 40
0
 41
0
  0
VERTEX
  8
0
 10
3.62836
 20
1.39318
 30
0.0
 40
0
 41
0
  0
VERTEX
  8
0
 10
3.62836
 20
1.61578
 30
0.0
 40
0
 41
0
  0
VERTEX
  8
0
 10
3.52653
 20
1.61578
 30
0.0
 40
0
 41
0
  0
SEQEND
 8
0
  0
POLYLINE
  8
0
 62
     0
 66
     1
 10
0
 20
0
 30
0.0
 70
     1
 40
0
 41
0
  0
VERTEX
  8
0
 10
3.60889
 20
1.72597
 30
0.0
 40
0
 41
0
  0
VERTEX
  8
0
 10
3.58838
 20
1.71767
 30
0.0
 40
0
 41
0
  0
VERTEX
  8
0
 10
3.57997
 20
1.6976
 30
0.0
 40
0
 41
0
  0
VERTEX
  8
0
 10
3.58838
 20
1.67751
 30
0.0
 40
0
 41
0
  0
VERTEX
  8
0
 10
3.60889
 20
1.66917
 30
0.0
 40
0
 41
0
  0
VERTEX
  8
0
 10
3.62939
 20
1.67751
 30
0.0
 40
0
 41
0
  0
VERTEX
  8
0
 10
3.63786
 20
1.6976
 30
0.0
 40
0
 41
0
  0
VERTEX
  8
0
 10
3.62939
 20
1.71767
 30
0.0
 40
0
 41
0
  0
VERTEX
  8
0
 10
3.60889
 20
1.72597
 30
0.0
 40
0
 41
0
  0
SEQEND
 8
0
  0
POLYLINE
  8
0
 62
     0
 66
     1
 10
0
 20
0
 30
0.0
 70
     1
 40
0
 41
0
  0
VERTEX
  8
0
 10
4.00179
 20
1.48719
 30
0.0
 40
0
 41
0
  0
VERTEX
  8
0
 10
3.99219
 20
1.54519
 30
0.0
 40
0
 41
0
  0
VERTEX
  8
0
 10
3.96669
 20
1.58697
 30
0.0
 40
0
 41
0
  0
VERTEX
  8
0
 10
3.93039
 20
1.61231
 30
0.0
 40
0
 41
0
  0
VERTEX
  8
0
 10
3.88829
 20
1.62076
 30
0.0
 40
0
 41
0
  0
VERTEX
  8
0
 10
3.84224
 20
1.61083
 30
0.0
 40
0
 41
0
  0
VERTEX
  8
0
 10
3.80393
 20
1.58306
 30
0.0
 40
0
 41
0
  0
VERTEX
  8
0
 10
3.77772
 20
1.54053
 30
0.0
 40
0
 41
0
  0
VERTEX
  8
0
 10
3.76807
 20
1.48611
 30
0.0
 40
0
 41
0
  0
VERTEX
  8
0
 10
3.77767
 20
1.43289
 30
0.0
 40
0
 41
0
  0
VERTEX
  8
0
 10
3.8036
 20
1.39117
 30
0.0
 40
0
 41
0
  0
VERTEX
  8
0
 10
3.84153
 20
1.36399
 30
0.0
 40
0
 41
0
  0
VERTEX
  8
0
 10
3.88715
 20
1.35422
 30
0.0
 40
0
 41
0
  0
VERTEX
  8
0
 10
3.93039
 20
1.36312
 30
0.0
 40
0
 41
0
  0
VERTEX
  8
0
 10
3.96701
 20
1.389
 30
0.0
 40
0
 41
0
  0
VERTEX
  8
0
 10
3.99229
 20
1.43078
 30
0.0
 40
0
 41
0
  0
VERTEX
  8
0
 10
4.00179
 20
1.48719
 30
0.0
 40
0
 41
0
  0
SEQEND
 8
0
  0
POLYLINE
  8
0
 62
     0
 66
     1
 10
0
 20
0
 30
0.0
 70
     1
 40
0
 41
0
  0
VERTEX
  8
0
 10
3.88547
 20
1.58681
 30
0.0
 40
0
 41
0
  0
VERTEX
  8
0
 10
3.91276
 20
1.58078
 30
0.0
 40
0
 41
0
  0
VERTEX
  8
0
 10
3.93707
 20
1.56228
 30
0.0
 40
0
 41
0
  0
VERTEX
  8
0
 10
3.95449
 20
1.53071
 30
0.0
 40
0
 41
0
  0
VERTEX
  8
0
 10
3.96115
 20
1.48551
 30
0.0
 40
0
 41
0
  0
VERTEX
  8
0
 10
3.95481
 20
1.44353
 30
0.0
 40
0
 41
0
  0
VERTEX
  8
0
 10
3.93815
 20
1.41342
 30
0.0
 40
0
 41
0
  0
VERTEX
  8
0
 10
3.91465
 20
1.39535
 30
0.0
 40
0
 41
0
  0
VERTEX
  8
0
 10
3.88769
 20
1.38926
 30
0.0
 40
0
 41
0
  0
VERTEX
  8
0
 10
3.85846
 20
1.39621
 30
0.0
 40
0
 41
0
  0
VERTEX
  8
0
 10
3.83382
 20
1.41607
 30
0.0
 40
0
 41
0
  0
VERTEX
  8
0
 10
3.81674
 20
1.44775
 30
0.0
 40
0
 41
0
  0
VERTEX
  8
0
 10
3.81039
 20
1.48996
 30
0.0
 40
0
 41
0
  0
VERTEX
  8
0
 10
3.81662
 20
1.53142
 30
0.0
 40
0
 41
0
  0
VERTEX
  8
0
 10
3.83328
 20
1.56179
 30
0.0
 40
0
 41
0
  0
VERTEX
  8
0
 10
3.85726
 20
1.58046
 30
0.0
 40
0
 41
0
  0
VERTEX
  8
0
 10
3.88547
 20
1.58681
 30
0.0
 40
0
 41
0
  0
SEQEND
 8
0
  0
POLYLINE
  8
0
 62
     0
 66
     1
 10
0
 20
0
 30
0.0
 70
     1
 40
0
 41
0
  0
VERTEX
  8
0
 10
4.0619
 20
1.36144
 30
0.0
 40
0
 41
0
  0
VERTEX
  8
0
 10
4.10254
 20
1.36144
 30
0.0
 40
0
 41
0
  0
VERTEX
  8
0
 10
4.10254
 20
1.50782
 30
0.0
 40
0
 41
0
  0
VERTEX
  8
0
 10
4.10493
 20
1.53054
 30
0.0
 40
0
 41
0
  0
VERTEX
  8
0
 10
4.11535
 20
1.55122
 30
0.0
 40
0
 41
0
  0
VERTEX
  8
0
 10
4.125
 20
1.56222
 30
0.0
 40
0
 41
0
  0
VERTEX
  8
0
 10
4.13917
 20
1.57383
 30
0.0
 40
0
 41
0
  0
VERTEX
  8
0
 10
4.15653
 20
1.58306
 30
0.0
 40
0
 41
0
  0
VERTEX
  8
0
 10
4.176
 20
1.58681
 30
0.0
 40
0
 41
0
  0
VERTEX
  8
0
 10
4.19472
 20
1.58274
 30
0.0
 40
0
 41
0
  0
VERTEX
  8
0
 10
4.2105
 20
1.57069
 30
0.0
 40
0
 41
0
  0
VERTEX
  8
0
 10
4.22265
 20
1.54303
 30
0.0
 40
0
 41
0
  0
VERTEX
  8
0
 10
4.22439
 20
1.51449
 30
0.0
 40
0
 41
0
  0
VERTEX
  8
0
 10
4.22439
 20
1.36144
 30
0.0
 40
0
 41
0
  0
VERTEX
  8
0
 10
4.26394
 20
1.36144
 30
0.0
 40
0
 41
0
  0
VERTEX
  8
0
 10
4.26394
 20
1.51557
 30
0.0
 40
0
 41
0
  0
VERTEX
  8
0
 10
4.26281
 20
1.54579
 30
0.0
 40
0
 41
0
  0
VERTEX
  8
0
 10
4.25499
 20
1.57682
 30
0.0
 40
0
 41
0
  0
VERTEX
  8
0
 10
4.22706
 20
1.60975
 30
0.0
 40
0
 41
0
  0
VERTEX
  8
0
 10
4.18712
 20
1.62131
 30
0.0
 40
0
 41
0
  0
VERTEX
  8
0
 10
4.13894
 20
1.60667
 30
0.0
 40
0
 41
0
  0
VERTEX
  8
0
 10
4.10254
 20
1.57069
 30
0.0
 40
0
 41
0
  0
VERTEX
  8
0
 10
4.10254
 20
1.61518
 30
0.0
 40
0
 41
0
  0
VERTEX
  8
0
 10
4.0619
 20
1.61518
 30
0.0
 40
0
 41
0
  0
VERTEX
  8
0
 10
4.0619
 20
1.36144
 30
0.0
 40
0
 41
0
  0
SEQEND
 8
0
  0
POLYLINE
  8
0
 62
     0
 66
     1
 10
0
 20
0
 30
0.0
 70
     1
 40
0
 41
0
  0
VERTEX
  8
0
 10
4.35238
 20
1.58572
 30
0.0
 40
0
 41
0
  0
VERTEX
  8
0
 10
4.37185
 20
1.56011
 30
0.0
 40
0
 41
0
  0
VERTEX
  8
0
 10
4.4075
 20
1.58247
 30
0.0
 40
0
 41
0
  0
VERTEX
  8
0
 10
4.44532
 20
1.58849
 30
0.0
 40
0
 41
0
  0
VERTEX
  8
0
 10
4.48004
 20
1.58068
 30
0.0
 40
0
 41
0
  0
VERTEX
  8
0
 10
4.49767
 20
1.56401
 30
0.0
 40
0
 41
0
  0
VERTEX
  8
0
 10
4.50467
 20
1.54183
 30
0.0
 40
0
 41
0
  0
VERTEX
  8
0
 10
4.50543
 20
1.52001
 30
0.0
 40
0
 41
0
  0
VERTEX
  8
0
 10
4.50543
 20
1.51113
 30
0.0
 40
0
 41
0
  0
VERTEX
  8
0
 10
4.49767
 20
1.51113
 30
0.0
 40
0
 41
0
  0
VERTEX
  8
0
 10
4.44043
 20
1.50971
 30
0.0
 40
0
 41
0
  0
VERTEX
  8
0
 10
4.38747
 20
1.49946
 30
0.0
 40
0
 41
0
  0
VERTEX
  8
0
 10
4.36149
 20
1.486
 30
0.0
 40
0
 41
0
  0
VERTEX
  8
0
 10
4.34347
 20
1.46832
 30
0.0
 40
0
 41
0
  0
VERTEX
  8
0
 10
4.33296
 20
1.44814
 30
0.0
 40
0
 41
0
  0
VERTEX
  8
0
 10
4.32958
 20
1.42708
 30
0.0
 40
0
 41
0
  0
VERTEX
  8
0
 10
4.33544
 20
1.40007
 30
0.0
 40
0
 41
0
  0
VERTEX
  8
0
 10
4.35232
 20
1.37695
 30
0.0
 40
0
 41
0
  0
VERTEX
  8
0
 10
4.37907
 20
1.36084
 30
0.0
 40
0
 41
0
  0
VERTEX
  8
0
 10
4.41471
 20
1.35476
 30
0.0
 40
0
 41
0
  0
VERTEX
  8
0
 10
4.46158
 20
1.3635
 30
0.0
 40
0
 41
0
  0
VERTEX
  8
0
 10
4.50603
 20
1.38926
 30
0.0
 40
0
 41
0
  0
VERTEX
  8
0
 10
4.50603
 20
1.36144
 30
0.0
 40
0
 41
0
  0
VERTEX
  8
0
 10
4.54383
 20
1.36144
 30
0.0
 40
0
 41
0
  0
VERTEX
  8
0
 10
4.54383
 20
1.51893
 30
0.0
 40
0
 41
0
  0
VERTEX
  8
0
 10
4.5421
 20
1.54921
 30
0.0
 40
0
 41
0
  0
VERTEX
  8
0
 10
4.53157
 20
1.57904
 30
0.0
 40
0
 41
0
  0
VERTEX
  8
0
 10
4.49588
 20
1.61014
 30
0.0
 40
0
 41
0
  0
VERTEX
  8
0
 10
4.44308
 20
1.62076
 30
0.0
 40
0
 41
0
  0
VERTEX
  8
0
 10
4.39399
 20
1.61247
 30
0.0
 40
0
 41
0
  0
VERTEX
  8
0
 10
4.35238
 20
1.58572
 30
0.0
 40
0
 41
0
  0
SEQEND
 8
0
  0
POLYLINE
  8
0
 62
     0
 66
     1
 10
0
 20
0
 30
0.0
 70
     1
 40
0
 41
0
  0
VERTEX
  8
0
 10
4.50711
 20
1.48053
 30
0.0
 40
0
 41
0
  0
VERTEX
  8
0
 10
4.50711
 20
1.46326
 30
0.0
 40
0
 41
0
  0
VERTEX
  8
0
 10
4.50493
 20
1.44146
 30
0.0
 40
0
 41
0
  0
VERTEX
  8
0
 10
4.48986
 20
1.41542
 30
0.0
 40
0
 41
0
  0
VERTEX
  8
0
 10
4.46544
 20
1.39686
 30
0.0
 40
0
 41
0
  0
VERTEX
  8
0
 10
4.42307
 20
1.38536
 30
0.0
 40
0
 41
0
  0
VERTEX
  8
0
 10
4.40039
 20
1.38911
 30
0.0
 40
0
 41
0
  0
VERTEX
  8
0
 10
4.38357
 20
1.39903
 30
0.0
 40
0
 41
0
  0
VERTEX
  8
0
 10
4.37315
 20
1.41308
 30
0.0
 40
0
 41
0
  0
VERTEX
  8
0
 10
4.36963
 20
1.42931
 30
0.0
 40
0
 41
0
  0
VERTEX
  8
0
 10
4.37999
 20
1.45719
 30
0.0
 40
0
 41
0
  0
VERTEX
  8
0
 10
4.41417
 20
1.47661
 30
0.0
 40
0
 41
0
  0
VERTEX
  8
0
 10
4.45492
 20
1.48068
 30
0.0
 40
0
 41
0
  0
VERTEX
  8
0
 10
4.49821
 20
1.48053
 30
0.0
 40
0
 41
0
  0
VERTEX
  8
0
 10
4.50711
 20
1.48053
 30
0.0
 40
0
 41
0
  0
SEQEND
 8
0
  0
POLYLINE
  8
0
 62
     0
 66
     1
 10
0
 20
0
 30
0.0
 70
     1
 40
0
 41
0
  0
VERTEX
  8
0
 10
4.62733
 20
1.73096
 30
0.0
 40
0
 41
0
  0
VERTEX
  8
0
 10
4.62733
 20
1.69868
 30
0.0
 40
0
 41
0
  0
VERTEX
  8
0
 10
4.69965
 20
1.69868
 30
0.0
 40
0
 41
0
  0
VERTEX
  8
0
 10
4.69965
 20
1.39318
 30
0.0
 40
0
 41
0
  0
VERTEX
  8
0
 10
4.62397
 20
1.39318
 30
0.0
 40
0
 41
0
  0
VERTEX
  8
0
 10
4.62397
 20
1.36144
 30
0.0
 40
0
 41
0
  0
VERTEX
  8
0
 10
4.81483
 20
1.36144
 30
0.0
 40
0
 41
0
  0
VERTEX
  8
0
 10
4.81483
 20
1.39318
 30
0.0
 40
0
 41
0
  0
VERTEX
  8
0
 10
4.73975
 20
1.39318
 30
0.0
 40
0
 41
0
  0
VERTEX
  8
0
 10
4.73975
 20
1.73096
 30
0.0
 40
0
 41
0
  0
VERTEX
  8
0
 10
4.62733
 20
1.73096
 30
0.0
 40
0
 41
0
  0
SEQEND
 8
0
  0
POLYLINE
  8
0
 62
     0
 66
     1
 10
0
 20
0
 30
0.0
 70
     1
 40
0
 41
0
  0
VERTEX
  8
0
 10
2.11714
 20
1.13949
 30
0.0
 40
0
 41
0
  0
VERTEX
  8
0
 10
2.11714
 20
0.792806
 30
0.0
 40
0
 41
0
  0
VERTEX
  8
0
 10
2.15776
 20
0.792806
 30
0.0
 40
0
 41
0
  0
VERTEX
  8
0
 10
2.15776
 20
0.945801
 30
0.0
 40
0
 41
0
  0
VERTEX
  8
0
 10
2.22564
 20
0.945801
 30
0.0
 40
0
 41
0
  0
VERTEX
  8
0
 10
2.2576
 20
0.947428
 30
0.0
 40
0
 41
0
  0
VERTEX
  8
0
 10
2.28911
 20
0.956922
 30
0.0
 40
0
 41
0
  0
VERTEX
  8
0
 10
2.32568
 20
0.992188
 30
0.0
 40
0
 41
0
  0
VERTEX
  8
0
 10
2.33811
 20
1.04156
 30
0.0
 40
0
 41
0
  0
VERTEX
  8
0
 10
2.32563
 20
1.09131
 30
0.0
 40
0
 41
0
  0
VERTEX
  8
0
 10
2.28857
 20
1.12723
 30
0.0
 40
0
 41
0
  0
VERTEX
  8
0
 10
2.25592
 20
1.13775
 30
0.0
 40
0
 41
0
  0
VERTEX
  8
0
 10
2.22287
 20
1.13949
 30
0.0
 40
0
 41
0
  0
VERTEX
  8
0
 10
2.11714
 20
1.13949
 30
0.0
 40
0
 41
0
  0
SEQEND
 8
0
  0
POLYLINE
  8
0
 62
     0
 66
     1
 10
0
 20
0
 30
0.0
 70
     1
 40
0
 41
0
  0
VERTEX
  8
0
 10
2.15776
 20
1.10276
 30
0.0
 40
0
 41
0
  0
VERTEX
  8
0
 10
2.22287
 20
1.10276
 30
0.0
 40
0
 41
0
  0
VERTEX
  8
0
 10
2.26574
 20
1.09554
 30
0.0
 40
0
 41
0
  0
VERTEX
  8
0
 10
2.29004
 20
1.07189
 30
0.0
 40
0
 41
0
  0
VERTEX
  8
0
 10
2.29856
 20
1.03988
 30
0.0
 40
0
 41
0
  0
VERTEX
  8
0
 10
2.29047
 20
1.0089
 30
0.0
 40
0
 41
0
  0
VERTEX
  8
0
 10
2.26742
 20
0.986979
 30
0.0
 40
0
 41
0
  0
VERTEX
  8
0
 10
2.22732
 20
0.979764
 30
0.0
 40
0
 41
0
  0
VERTEX
  8
0
 10
2.15722
 20
0.979764
 30
0.0
 40
0
 41
0
  0
VERTEX
  8
0
 10
2.15776
 20
1.10276
 30
0.0
 40
0
 41
0
  0
SEQEND
 8
0
  0
POLYLINE
  8
0
 62
     0
 66
     1
 10
0
 20
0
 30
0.0
 70
     1
 40
0
 41
0
  0
VERTEX
  8
0
 10
2.41824
 20
1.04655
 30
0.0
 40
0
 41
0
  0
VERTEX
  8
0
 10
2.41824
 20
0.79221
 30
0.0
 40
0
 41
0
  0
VERTEX
  8
0
 10
2.45828
 20
0.79221
 30
0.0
 40
0
 41
0
  0
VERTEX
  8
0
 10
2.45828
 20
0.915744
 30
0.0
 40
0
 41
0
  0
VERTEX
  8
0
 10
2.46067
 20
0.941189
 30
0.0
 40
0
 41
0
  0
VERTEX
  8
0
 10
2.47607
 20
0.975315
 30
0.0
 40
0
 41
0
  0
VERTEX
  8
0
 10
2.49457
 20
0.997558
 30
0.0
 40
0
 41
0
  0
VERTEX
  8
0
 10
2.51383
 20
1.01052
 30
0.0
 40
0
 41
0
  0
VERTEX
  8
0
 10
2.53217
 20
1.01666
 30
0.0
 40
0
 41
0
  0
VERTEX
  8
0
 10
2.5479
 20
1.01818
 30
0.0
 40
0
 41
0
  0
VERTEX
  8
0
 10
2.57394
 20
1.01204
 30
0.0
 40
0
 41
0
  0
VERTEX
  8
0
 10
2.58963
 20
0.99924
 30
0.0
 40
0
 41
0
  0
VERTEX
  8
0
 10
2.59907
 20
0.986436
 30
0.0
 40
0
 41
0
  0
VERTEX
  8
0
 10
2.618
 20
1.02485
 30
0.0
 40
0
 41
0
  0
VERTEX
  8
0
 10
2.58865
 20
1.04503
 30
0.0
 40
0
 41
0
  0
VERTEX
  8
0
 10
2.55012
 20
1.05268
 30
0.0
 40
0
 41
0
  0
VERTEX
  8
0
 10
2.52235
 20
1.04921
 30
0.0
 40
0
 41
0
  0
VERTEX
  8
0
 10
2.49647
 20
1.03874
 30
0.0
 40
0
 41
0
  0
VERTEX
  8
0
 10
2.47439
 20
1.02148
 30
0.0
 40
0
 41
0
  0
VERTEX
  8
0
 10
2.45828
 20
0.997558
 30
0.0
 40
0
 41
0
  0
VERTEX
  8
0
 10
2.45996
 20
1.04655
 30
0.0
 40
0
 41
0
  0
VERTEX
  8
0
 10
2.41824
 20
1.04655
 30
0.0
 40
0
 41
0
  0
SEQEND
 8
0
  0
POLYLINE
  8
0
 62
     0
 66
     1
 10
0
 20
0
 30
0.0
 70
     1
 40
0
 41
0
  0
VERTEX
  8
0
 10
2.89735
 20
0.918565
 30
0.0
 40
0
 41
0
  0
VERTEX
  8
0
 10
2.88775
 20
0.976563
 30
0.0
 40
0
 41
0
  0
VERTEX
  8
0
 10
2.86231
 20
1.01834
 30
0.0
 40
0
 41
0
  0
VERTEX
  8
0
 10
2.82601
 20
1.04367
 30
0.0
 40
0
 41
0
  0
VERTEX
  8
0
 10
2.78386
 20
1.05214
 30
0.0
 40
0
 41
0
  0
VERTEX
  8
0
 10
2.73779
 20
1.04221
 30
0.0
 40
0
 41
0
  0
VERTEX
  8
0
 10
2.69949
 20
1.01443
 30
0.0
 40
0
 41
0
  0
VERTEX
  8
0
 10
2.67329
 20
0.971843
 30
0.0
 40
0
 41
0
  0
VERTEX
  8
0
 10
2.66363
 20
0.917426
 30
0.0
 40
0
 41
0
  0
VERTEX
  8
0
 10
2.67324
 20
0.864204
 30
0.0
 40
0
 41
0
  0
VERTEX
  8
0
 10
2.69917
 20
0.822483
 30
0.0
 40
0
 41
0
  0
VERTEX
  8
0
 10
2.73708
 20
0.795301
 30
0.0
 40
0
 41
0
  0
VERTEX
  8
0
 10
2.78271
 20
0.785536
 30
0.0
 40
0
 41
0
  0
VERTEX
  8
0
 10
2.82596
 20
0.794433
 30
0.0
 40
0
 41
0
  0
VERTEX
  8
0
 10
2.86257
 20
0.820367
 30
0.0
 40
0
 41
0
  0
VERTEX
  8
0
 10
2.88786
 20
0.862142
 30
0.0
 40
0
 41
0
  0
VERTEX
  8
0
 10
2.89735
 20
0.918565
 30
0.0
 40
0
 41
0
  0
SEQEND
 8
0
  0
POLYLINE
  8
0
 62
     0
 66
     1
 10
0
 20
0
 30
0.0
 70
     1
 40
0
 41
0
  0
VERTEX
  8
0
 10
2.78108
 20
1.01818
 30
0.0
 40
0
 41
0
  0
VERTEX
  8
0
 10
2.80838
 20
1.01215
 30
0.0
 40
0
 41
0
  0
VERTEX
  8
0
 10
2.83268
 20
0.993653
 30
0.0
 40
0
 41
0
  0
VERTEX
  8
0
 10
2.8501
 20
0.962076
 30
0.0
 40
0
 41
0
  0
VERTEX
  8
0
 10
2.85678
 20
0.916883
 30
0.0
 40
0
 41
0
  0
VERTEX
  8
0
 10
2.85042
 20
0.874838
 30
0.0
 40
0
 41
0
  0
VERTEX
  8
0
 10
2.83376
 20
0.844726
 30
0.0
 40
0
 41
0
  0
VERTEX
  8
0
 10
2.81028
 20
0.82666
 30
0.0
 40
0
 41
0
  0
VERTEX
  8
0
 10
2.78331
 20
0.820583
 30
0.0
 40
0
 41
0
  0
VERTEX
  8
0
 10
2.75407
 20
0.827528
 30
0.0
 40
0
 41
0
  0
VERTEX
  8
0
 10
2.72939
 20
0.847385
 30
0.0
 40
0
 41
0
  0
VERTEX
  8
0
 10
2.71229
 20
0.879069
 30
0.0
 40
0
 41
0
  0
VERTEX
  8
0
 10
2.70594
 20
0.921332
 30
0.0
 40
0
 41
0
  0
VERTEX
  8
0
 10
2.71218
 20
0.962782
 30
0.0
 40
0
 41
0
  0
VERTEX
  8
0
 10
2.72889
 20
0.993164
 30
0.0
 40
0
 41
0
  0
VERTEX
  8
0
 10
2.75288
 20
1.01183
 30
0.0
 40
0
 41
0
  0
VERTEX
  8
0
 10
2.78108
 20
1.01818
 30
0.0
 40
0
 41
0
  0
SEQEND
 8
0
  0
POLYLINE
  8
0
 62
     0
 66
     1
 10
0
 20
0
 30
0.0
 70
     1
 40
0
 41
0
  0
VERTEX
  8
0
 10
2.98921
 20
0.967503
 30
0.0
 40
0
 41
0
  0
VERTEX
  8
0
 10
2.99365
 20
0.98915
 30
0.0
 40
0
 41
0
  0
VERTEX
  8
0
 10
3.00581
 20
1.00684
 30
0.0
 40
0
 41
0
  0
VERTEX
  8
0
 10
3.02371
 20
1.01883
 30
0.0
 40
0
 41
0
  0
VERTEX
  8
0
 10
3.04542
 20
1.02317
 30
0.0
 40
0
 41
0
  0
VERTEX
  8
0
 10
3.06733
 20
1.01883
 30
0.0
 40
0
 41
0
  0
VERTEX
  8
0
 10
3.08518
 20
1.00684
 30
0.0
 40
0
 41
0
  0
VERTEX
  8
0
 10
3.09717
 20
0.98915
 30
0.0
 40
0
 41
0
  0
VERTEX
  8
0
 10
3.10161
 20
0.967503
 30
0.0
 40
0
 41
0
  0
VERTEX
  8
0
 10
3.09717
 20
0.94591
 30
0.0
 40
0
 41
0
  0
VERTEX
  8
0
 10
3.08518
 20
0.928222
 30
0.0
 40
0
 41
0
  0
VERTEX
  8
0
 10
3.06733
 20
0.916288
 30
0.0
 40
0
 41
0
  0
VERTEX
  8
0
 10
3.04542
 20
0.911893
 30
0.0
 40
0
 41
0
  0
VERTEX
  8
0
 10
3.02344
 20
0.916288
 30
0.0
 40
0
 41
0
  0
VERTEX
  8
0
 10
3.00558
 20
0.928222
 30
0.0
 40
0
 41
0
  0
VERTEX
  8
0
 10
2.9936
 20
0.94591
 30
0.0
 40
0
 41
0
  0
VERTEX
  8
0
 10
2.98921
 20
0.967503
 30
0.0
 40
0
 41
0
  0
SEQEND
 8
0
  0
POLYLINE
  8
0
 62
     0
 66
     1
 10
0
 20
0
 30
0.0
 70
     1
 40
0
 41
0
  0
VERTEX
  8
0
 10
3.04764
 20
1.0549
 30
0.0
 40
0
 41
0
  0
VERTEX
  8
0
 10
3.01144
 20
1.04791
 30
0.0
 40
0
 41
0
  0
VERTEX
  8
0
 10
2.98128
 20
1.0287
 30
0.0
 40
0
 41
0
  0
VERTEX
  8
0
 10
2.96067
 20
1.00022
 30
0.0
 40
0
 41
0
  0
VERTEX
  8
0
 10
2.95301
 20
0.965278
 30
0.0
 40
0
 41
0
  0
VERTEX
  8
0
 10
2.96289
 20
0.925999
 30
0.0
 40
0
 41
0
  0
VERTEX
  8
0
 10
2.99029
 20
0.896268
 30
0.0
 40
0
 41
0
  0
VERTEX
  8
0
 10
2.96892
 20
0.872017
 30
0.0
 40
0
 41
0
  0
VERTEX
  8
0
 10
2.96137
 20
0.847331
 30
0.0
 40
0
 41
0
  0
VERTEX
  8
0
 10
2.9656
 20
0.829536
 30
0.0
 40
0
 41
0
  0
VERTEX
  8
0
 10
2.98199
 20
0.813368
 30
0.0
 40
0
 41
0
  0
VERTEX
  8
0
 10
2.95111
 20
0.78635
 30
0.0
 40
0
 41
0
  0
VERTEX
  8
0
 10
2.94075
 20
0.757161
 30
0.0
 40
0
 41
0
  0
VERTEX
  8
0
 10
2.94613
 20
0.735949
 30
0.0
 40
0
 41
0
  0
VERTEX
  8
0
 10
2.96468
 20
0.716417
 30
0.0
 40
0
 41
0
  0
VERTEX
  8
0
 10
2.99989
 20
0.702094
 30
0.0
 40
0
 41
0
  0
VERTEX
  8
0
 10
3.05544
 20
0.696506
 30
0.0
 40
0
 41
0
  0
VERTEX
  8
0
 10
3.11014
 20
0.703939
 30
0.0
 40
0
 41
0
  0
VERTEX
  8
0
 10
3.14643
 20
0.722765
 30
0.0
 40
0
 41
0
  0
VERTEX
  8
0
 10
3.16661
 20
0.747939
 30
0.0
 40
0
 41
0
  0
VERTEX
  8
0
 10
3.17285
 20
0.774414
 30
0.0
 40
0
 41
0
  0
VERTEX
  8
0
 10
3.16308
 20
0.806369
 30
0.0
 40
0
 41
0
  0
VERTEX
  8
0
 10
3.13336
 20
0.829536
 30
0.0
 40
0
 41
0
  0
VERTEX
  8
0
 10
3.09104
 20
0.837349
 30
0.0
 40
0
 41
0
  0
VERTEX
  8
0
 10
3.0471
 20
0.836751
 30
0.0
 40
0
 41
0
  0
VERTEX
  8
0
 10
3.0109
 20
0.840061
 30
0.0
 40
0
 41
0
  0
VERTEX
  8
0
 10
2.99533
 20
0.856771
 30
0.0
 40
0
 41
0
  0
VERTEX
  8
0
 10
3.00342
 20
0.875163
 30
0.0
 40
0
 41
0
  0
VERTEX
  8
0
 10
3.01367
 20
0.885146
 30
0.0
 40
0
 41
0
  0
VERTEX
  8
0
 10
3.04596
 20
0.879611
 30
0.0
 40
0
 41
0
  0
VERTEX
  8
0
 10
3.08132
 20
0.88661
 30
0.0
 40
0
 41
0
  0
VERTEX
  8
0
 10
3.11035
 20
0.90549
 30
0.0
 40
0
 41
0
  0
VERTEX
  8
0
 10
3.12993
 20
0.93316
 30
0.0
 40
0
 41
0
  0
VERTEX
  8
0
 10
3.13721
 20
0.966417
 30
0.0
 40
0
 41
0
  0
VERTEX
  8
0
 10
3.1244
 20
1.00982
 30
0.0
 40
0
 41
0
  0
VERTEX
  8
0
 10
3.16894
 20
1.02208
 30
0.0
 40
0
 41
0
  0
VERTEX
  8
0
 10
3.18343
 20
1.0204
 30
0.0
 40
0
 41
0
  0
VERTEX
  8
0
 10
3.17899
 20
1.05322
 30
0.0
 40
0
 41
0
  0
VERTEX
  8
0
 10
3.14133
 20
1.04899
 30
0.0
 40
0
 41
0
  0
VERTEX
  8
0
 10
3.10829
 20
1.03098
 30
0.0
 40
0
 41
0
  0
VERTEX
  8
0
 10
3.08068
 20
1.04883
 30
0.0
 40
0
 41
0
  0
VERTEX
  8
0
 10
3.04764
 20
1.0549
 30
0.0
 40
0
 41
0
  0
SEQEND
 8
0
  0
POLYLINE
  8
0
 62
     0
 66
     1
 10
0
 20
0
 30
0.0
 70
     1
 40
0
 41
0
  0
VERTEX
  8
0
 10
3.00922
 20
0.806153
 30
0.0
 40
0
 41
0
  0
VERTEX
  8
0
 10
3.05154
 20
0.802789
 30
0.0
 40
0
 41
0
  0
VERTEX
  8
0
 10
3.08014
 20
0.802897
 30
0.0
 40
0
 41
0
  0
VERTEX
  8
0
 10
3.10553
 20
0.801704
 30
0.0
 40
0
 41
0
  0
VERTEX
  8
0
 10
3.12956
 20
0.78966
 30
0.0
 40
0
 41
0
  0
VERTEX
  8
0
 10
3.13612
 20
0.77219
 30
0.0
 40
0
 41
0
  0
VERTEX
  8
0
 10
3.13058
 20
0.754611
 30
0.0
 40
0
 41
0
  0
VERTEX
  8
0
 10
3.11219
 20
0.738226
 30
0.0
 40
0
 41
0
  0
VERTEX
  8
0
 10
3.08285
 20
0.72895
 30
0.0
 40
0
 41
0
  0
VERTEX
  8
0
 10
3.05485
 20
0.727106
 30
0.0
 40
0
 41
0
  0
VERTEX
  8
0
 10
3.03142
 20
0.728353
 30
0.0
 40
0
 41
0
  0
VERTEX
  8
0
 10
3.00256
 20
0.73546
 30
0.0
 40
0
 41
0
  0
VERTEX
  8
0
 10
2.98226
 20
0.750868
 30
0.0
 40
0
 41
0
  0
VERTEX
  8
0
 10
2.97749
 20
0.766601
 30
0.0
 40
0
 41
0
  0
VERTEX
  8
0
 10
2.9879
 20
0.790365
 30
0.0
 40
0
 41
0
  0
VERTEX
  8
0
 10
3.00922
 20
0.806153
 30
0.0
 40
0
 41
0
  0
SEQEND
 8
0
  0
POLYLINE
  8
0
 62
     0
 66
     1
 10
0
 20
0
 30
0.0
 70
     1
 40
0
 41
0
  0
VERTEX
  8
0
 10
3.25299
 20
1.04655
 30
0.0
 40
0
 41
0
  0
VERTEX
  8
0
 10
3.25299
 20
0.79221
 30
0.0
 40
0
 41
0
  0
VERTEX
  8
0
 10
3.29308
 20
0.79221
 30
0.0
 40
0
 41
0
  0
VERTEX
  8
0
 10
3.29308
 20
0.915744
 30
0.0
 40
0
 41
0
  0
VERTEX
  8
0
 10
3.29546
 20
0.941189
 30
0.0
 40
0
 41
0
  0
VERTEX
  8
0
 10
3.31087
 20
0.975315
 30
0.0
 40
0
 41
0
  0
VERTEX
  8
0
 10
3.32932
 20
0.997558
 30
0.0
 40
0
 41
0
  0
VERTEX
  8
0
 10
3.34864
 20
1.01052
 30
0.0
 40
0
 41
0
  0
VERTEX
  8
0
 10
3.36692
 20
1.01666
 30
0.0
 40
0
 41
0
  0
VERTEX
  8
0
 10
3.38265
 20
1.01818
 30
0.0
 40
0
 41
0
  0
VERTEX
  8
0
 10
3.40869
 20
1.01204
 30
0.0
 40
0
 41
0
  0
VERTEX
  8
0
 10
3.42437
 20
0.99924
 30
0.0
 40
0
 41
0
  0
VERTEX
  8
0
 10
3.43386
 20
0.986436
 30
0.0
 40
0
 41
0
  0
VERTEX
  8
0
 10
3.45275
 20
1.02485
 30
0.0
 40
0
 41
0
  0
VERTEX
  8
0
 10
3.42339
 20
1.04503
 30
0.0
 40
0
 41
0
  0
VERTEX
  8
0
 10
3.38488
 20
1.05268
 30
0.0
 40
0
 41
0
  0
VERTEX
  8
0
 10
3.3571
 20
1.04921
 30
0.0
 40
0
 41
0
  0
VERTEX
  8
0
 10
3.33122
 20
1.03874
 30
0.0
 40
0
 41
0
  0
VERTEX
  8
0
 10
3.30919
 20
1.02148
 30
0.0
 40
0
 41
0
  0
VERTEX
  8
0
 10
3.29308
 20
0.997558
 30
0.0
 40
0
 41
0
  0
VERTEX
  8
0
 10
3.29471
 20
1.04655
 30
0.0
 40
0
 41
0
  0
VERTEX
  8
0
 10
3.25299
 20
1.04655
 30
0.0
 40
0
 41
0
  0
SEQEND
 8
0
  0
POLYLINE
  8
0
 62
     0
 66
     1
 10
0
 20
0
 30
0.0
 70
     1
 40
0
 41
0
  0
VERTEX
  8
0
 10
3.52621
 20
1.01704
 30
0.0
 40
0
 41
0
  0
VERTEX
  8
0
 10
3.54568
 20
0.991428
 30
0.0
 40
0
 41
0
  0
VERTEX
  8
0
 10
3.58132
 20
1.01383
 30
0.0
 40
0
 41
0
  0
VERTEX
  8
0
 10
3.61914
 20
1.01986
 30
0.0
 40
0
 41
0
  0
VERTEX
  8
0
 10
3.65386
 20
1.01199
 30
0.0
 40
0
 41
0
  0
VERTEX
  8
0
 10
3.6715
 20
0.995335
 30
0.0
 40
0
 41
0
  0
VERTEX
  8
0
 10
3.6785
 20
0.973199
 30
0.0
 40
0
 41
0
  0
VERTEX
  8
0
 10
3.67925
 20
0.951389
 30
0.0
 40
0
 41
0
  0
VERTEX
  8
0
 10
3.67925
 20
0.942492
 30
0.0
 40
0
 41
0
  0
VERTEX
  8
0
 10
3.6715
 20
0.942492
 30
0.0
 40
0
 41
0
  0
VERTEX
  8
0
 10
3.61426
 20
0.941026
 30
0.0
 40
0
 41
0
  0
VERTEX
  8
0
 10
3.56131
 20
0.930772
 30
0.0
 40
0
 41
0
  0
VERTEX
  8
0
 10
3.53532
 20
0.917318
 30
0.0
 40
0
 41
0
  0
VERTEX
  8
0
 10
3.51731
 20
0.899685
 30
0.0
 40
0
 41
0
  0
VERTEX
  8
0
 10
3.50678
 20
0.879503
 30
0.0
 40
0
 41
0
  0
VERTEX
  8
0
 10
3.50342
 20
0.858453
 30
0.0
 40
0
 41
0
  0
VERTEX
  8
0
 10
3.50928
 20
0.831435
 30
0.0
 40
0
 41
0
  0
VERTEX
  8
0
 10
3.52615
 20
0.808322
 30
0.0
 40
0
 41
0
  0
VERTEX
  8
0
 10
3.5529
 20
0.792156
 30
0.0
 40
0
 41
0
  0
VERTEX
  8
0
 10
3.58854
 20
0.786079
 30
0.0
 40
0
 41
0
  0
VERTEX
  8
0
 10
3.63542
 20
0.794814
 30
0.0
 40
0
 41
0
  0
VERTEX
  8
0
 10
3.67985
 20
0.820583
 30
0.0
 40
0
 41
0
  0
VERTEX
  8
0
 10
3.67985
 20
0.792806
 30
0.0
 40
0
 41
0
  0
VERTEX
  8
0
 10
3.71767
 20
0.792806
 30
0.0
 40
0
 41
0
  0
VERTEX
  8
0
 10
3.71767
 20
0.95025
 30
0.0
 40
0
 41
0
  0
VERTEX
  8
0
 10
3.71593
 20
0.980578
 30
0.0
 40
0
 41
0
  0
VERTEX
  8
0
 10
3.7054
 20
1.01036
 30
0.0
 40
0
 41
0
  0
VERTEX
  8
0
 10
3.66971
 20
1.0415
 30
0.0
 40
0
 41
0
  0
VERTEX
  8
0
 10
3.61692
 20
1.05214
 30
0.0
 40
0
 41
0
  0
VERTEX
  8
0
 10
3.56782
 20
1.04378
 30
0.0
 40
0
 41
0
  0
VERTEX
  8
0
 10
3.52621
 20
1.01704
 30
0.0
 40
0
 41
0
  0
SEQEND
 8
0
  0
POLYLINE
  8
0
 62
     0
 66
     1
 10
0
 20
0
 30
0.0
 70
     1
 40
0
 41
0
  0
VERTEX
  8
0
 10
3.68093
 20
0.911893
 30
0.0
 40
0
 41
0
  0
VERTEX
  8
0
 10
3.68093
 20
0.89464
 30
0.0
 40
0
 41
0
  0
VERTEX
  8
0
 10
3.67876
 20
0.872831
 30
0.0
 40
0
 41
0
  0
VERTEX
  8
0
 10
3.66368
 20
0.846733
 30
0.0
 40
0
 41
0
  0
VERTEX
  8
0
 10
3.63926
 20
0.828233
 30
0.0
 40
0
 41
0
  0
VERTEX
  8
0
 10
3.5969
 20
0.816732
 30
0.0
 40
0
 41
0
  0
VERTEX
  8
0
 10
3.57422
 20
0.820475
 30
0.0
 40
0
 41
0
  0
VERTEX
  8
0
 10
3.5574
 20
0.830404
 30
0.0
 40
0
 41
0
  0
VERTEX
  8
0
 10
3.54699
 20
0.844456
 30
0.0
 40
0
 41
0
  0
VERTEX
  8
0
 10
3.54346
 20
0.860678
 30
0.0
 40
0
 41
0
  0
VERTEX
  8
0
 10
3.55382
 20
0.88851
 30
0.0
 40
0
 41
0
  0
VERTEX
  8
0
 10
3.588
 20
0.907986
 30
0.0
 40
0
 41
0
  0
VERTEX
  8
0
 10
3.62875
 20
0.912056
 30
0.0
 40
0
 41
0
  0
VERTEX
  8
0
 10
3.67204
 20
0.911893
 30
0.0
 40
0
 41
0
  0
VERTEX
  8
0
 10
3.68093
 20
0.911893
 30
0.0
 40
0
 41
0
  0
SEQEND
 8
0
  0
POLYLINE
  8
0
 62
     0
 66
     1
 10
0
 20
0
 30
0.0
 70
     1
 40
0
 41
0
  0
VERTEX
  8
0
 10
3.77501
 20
0.792806
 30
0.0
 40
0
 41
0
  0
VERTEX
  8
0
 10
3.81174
 20
0.792806
 30
0.0
 40
0
 41
0
  0
VERTEX
  8
0
 10
3.81174
 20
0.961968
 30
0.0
 40
0
 41
0
  0
VERTEX
  8
0
 10
3.82004
 20
0.998699
 30
0.0
 40
0
 41
0
  0
VERTEX
  8
0
 10
3.83475
 20
1.01666
 30
0.0
 40
0
 41
0
  0
VERTEX
  8
0
 10
3.85069
 20
1.02208
 30
0.0
 40
0
 41
0
  0
VERTEX
  8
0
 10
3.86399
 20
1.01758
 30
0.0
 40
0
 41
0
  0
VERTEX
  8
0
 10
3.87403
 20
1.0026
 30
0.0
 40
0
 41
0
  0
VERTEX
  8
0
 10
3.87685
 20
0.969185
 30
0.0
 40
0
 41
0
  0
VERTEX
  8
0
 10
3.87685
 20
0.792806
 30
0.0
 40
0
 41
0
  0
VERTEX
  8
0
 10
3.91411
 20
0.792806
 30
0.0
 40
0
 41
0
  0
VERTEX
  8
0
 10
3.91411
 20
0.960829
 30
0.0
 40
0
 41
0
  0
VERTEX
  8
0
 10
3.91581
 20
0.979818
 30
0.0
 40
0
 41
0
  0
VERTEX
  8
0
 10
3.92469
 20
1.00092
 30
0.0
 40
0
 41
0
  0
VERTEX
  8
0
 10
3.93522
 20
1.01487
 30
0.0
 40
0
 41
0
  0
VERTEX
  8
0
 10
3.95415
 20
1.02371
 30
0.0
 40
0
 41
0
  0
VERTEX
  8
0
 10
3.97424
 20
1.00928
 30
0.0
 40
0
 41
0
  0
VERTEX
  8
0
 10
3.97803
 20
0.991319
 30
0.0
 40
0
 41
0
  0
VERTEX
  8
0
 10
3.97814
 20
0.972547
 30
0.0
 40
0
 41
0
  0
VERTEX
  8
0
 10
3.97814
 20
0.79221
 30
0.0
 40
0
 41
0
  0
VERTEX
  8
0
 10
4.01594
 20
0.79221
 30
0.0
 40
0
 41
0
  0
VERTEX
  8
0
 10
4.01594
 20
0.97309
 30
0.0
 40
0
 41
0
  0
VERTEX
  8
0
 10
4.01481
 20
1.00434
 30
0.0
 40
0
 41
0
  0
VERTEX
  8
0
 10
4.00537
 20
1.03266
 30
0.0
 40
0
 41
0
  0
VERTEX
  8
0
 10
3.98725
 20
1.04812
 30
0.0
 40
0
 41
0
  0
VERTEX
  8
0
 10
3.96588
 20
1.05268
 30
0.0
 40
0
 41
0
  0
VERTEX
  8
0
 10
3.93175
 20
1.0427
 30
0.0
 40
0
 41
0
  0
VERTEX
  8
0
 10
3.90853
 20
1.01595
 30
0.0
 40
0
 41
0
  0
VERTEX
  8
0
 10
3.89333
 20
1.04226
 30
0.0
 40
0
 41
0
  0
VERTEX
  8
0
 10
3.86404
 20
1.05268
 30
0.0
 40
0
 41
0
  0
VERTEX
  8
0
 10
3.83431
 20
1.04378
 30
0.0
 40
0
 41
0
  0
VERTEX
  8
0
 10
3.81174
 20
1.02148
 30
0.0
 40
0
 41
0
  0
VERTEX
  8
0
 10
3.81228
 20
1.04655
 30
0.0
 40
0
 41
0
  0
VERTEX
  8
0
 10
3.77501
 20
1.04655
 30
0.0
 40
0
 41
0
  0
VERTEX
  8
0
 10
3.77501
 20
0.792806
 30
0.0
 40
0
 41
0
  0
SEQEND
 8
0
  0
POLYLINE
  8
0
 62
     0
 66
     1
 10
0
 20
0
 30
0.0
 70
     1
 40
0
 41
0
  0
VERTEX
  8
0
 10
4.05322
 20
0.792806
 30
0.0
 40
0
 41
0
  0
VERTEX
  8
0
 10
4.08996
 20
0.792806
 30
0.0
 40
0
 41
0
  0
VERTEX
  8
0
 10
4.08996
 20
0.961968
 30
0.0
 40
0
 41
0
  0
VERTEX
  8
0
 10
4.09831
 20
0.998699
 30
0.0
 40
0
 41
0
  0
VERTEX
  8
0
 10
4.11296
 20
1.01666
 30
0.0
 40
0
 41
0
  0
VERTEX
  8
0
 10
4.1289
 20
1.02208
 30
0.0
 40
0
 41
0
  0
VERTEX
  8
0
 10
4.14225
 20
1.01758
 30
0.0
 40
0
 41
0
  0
VERTEX
  8
0
 10
4.15229
 20
1.0026
 30
0.0
 40
0
 41
0
  0
VERTEX
  8
0
 10
4.15506
 20
0.969185
 30
0.0
 40
0
 41
0
  0
VERTEX
  8
0
 10
4.15506
 20
0.792806
 30
0.0
 40
0
 41
0
  0
VERTEX
  8
0
 10
4.19239
 20
0.792806
 30
0.0
 40
0
 41
0
  0
VERTEX
  8
0
 10
4.19239
 20
0.960829
 30
0.0
 40
0
 41
0
  0
VERTEX
  8
0
 10
4.19407
 20
0.979818
 30
0.0
 40
0
 41
0
  0
VERTEX
  8
0
 10
4.20296
 20
1.00092
 30
0.0
 40
0
 41
0
  0
VERTEX
  8
0
 10
4.21349
 20
1.01487
 30
0.0
 40
0
 41
0
  0
VERTEX
  8
0
 10
4.23242
 20
1.02371
 30
0.0
 40
0
 41
0
  0
VERTEX
  8
0
 10
4.2525
 20
1.00928
 30
0.0
 40
0
 41
0
  0
VERTEX
  8
0
 10
4.25629
 20
0.991319
 30
0.0
 40
0
 41
0
  0
VERTEX
  8
0
 10
4.25635
 20
0.972547
 30
0.0
 40
0
 41
0
  0
VERTEX
  8
0
 10
4.25635
 20
0.79221
 30
0.0
 40
0
 41
0
  0
VERTEX
  8
0
 10
4.29422
 20
0.79221
 30
0.0
 40
0
 41
0
  0
VERTEX
  8
0
 10
4.29422
 20
0.97309
 30
0.0
 40
0
 41
0
  0
VERTEX
  8
0
 10
4.29308
 20
1.00434
 30
0.0
 40
0
 41
0
  0
VERTEX
  8
0
 10
4.28364
 20
1.03266
 30
0.0
 40
0
 41
0
  0
VERTEX
  8
0
 10
4.26551
 20
1.04812
 30
0.0
 40
0
 41
0
  0
VERTEX
  8
0
 10
4.24414
 20
1.05268
 30
0.0
 40
0
 41
0
  0
VERTEX
  8
0
 10
4.21001
 20
1.0427
 30
0.0
 40
0
 41
0
  0
VERTEX
  8
0
 10
4.18679
 20
1.01595
 30
0.0
 40
0
 41
0
  0
VERTEX
  8
0
 10
4.1716
 20
1.04226
 30
0.0
 40
0
 41
0
  0
VERTEX
  8
0
 10
4.14231
 20
1.05268
 30
0.0
 40
0
 41
0
  0
VERTEX
  8
0
 10
4.11257
 20
1.04378
 30
0.0
 40
0
 41
0
  0
VERTEX
  8
0
 10
4.08996
 20
1.02148
 30
0.0
 40
0
 41
0
  0
VERTEX
  8
0
 10
4.09056
 20
1.04655
 30
0.0
 40
0
 41
0
  0
VERTEX
  8
0
 10
4.05322
 20
1.04655
 30
0.0
 40
0
 41
0
  0
VERTEX
  8
0
 10
4.05322
 20
0.792806
 30
0.0
 40
0
 41
0
  0
SEQEND
 8
0
  0
POLYLINE
  8
0
 62
     0
 66
     1
 10
0
 20
0
 30
0.0
 70
     1
 40
0
 41
0
  0
VERTEX
  8
0
 10
4.3699
 20
1.04709
 30
0.0
 40
0
 41
0
  0
VERTEX
  8
0
 10
4.3699
 20
1.01427
 30
0.0
 40
0
 41
0
  0
VERTEX
  8
0
 10
4.4311
 20
1.01427
 30
0.0
 40
0
 41
0
  0
VERTEX
  8
0
 10
4.4311
 20
0.82449
 30
0.0
 40
0
 41
0
  0
VERTEX
  8
0
 10
4.36654
 20
0.82449
 30
0.0
 40
0
 41
0
  0
VERTEX
  8
0
 10
4.36654
 20
0.792806
 30
0.0
 40
0
 41
0
  0
VERTEX
  8
0
 10
4.53131
 20
0.792806
 30
0.0
 40
0
 41
0
  0
VERTEX
  8
0
 10
4.53131
 20
0.82449
 30
0.0
 40
0
 41
0
  0
VERTEX
  8
0
 10
4.47174
 20
0.82449
 30
0.0
 40
0
 41
0
  0
VERTEX
  8
0
 10
4.47174
 20
1.04709
 30
0.0
 40
0
 41
0
  0
VERTEX
  8
0
 10
4.3699
 20
1.04709
 30
0.0
 40
0
 41
0
  0
SEQEND
 8
0
  0
POLYLINE
  8
0
 62
     0
 66
     1
 10
0
 20
0
 30
0.0
 70
     1
 40
0
 41
0
  0
VERTEX
  8
0
 10
4.45226
 20
1.15728
 30
0.0
 40
0
 41
0
  0
VERTEX
  8
0
 10
4.43175
 20
1.14898
 30
0.0
 40
0
 41
0
  0
VERTEX
  8
0
 10
4.42333
 20
1.12891
 30
0.0
 40
0
 41
0
  0
VERTEX
  8
0
 10
4.43175
 20
1.10889
 30
0.0
 40
0
 41
0
  0
VERTEX
  8
0
 10
4.45226
 20
1.10053
 30
0.0
 40
0
 41
0
  0
VERTEX
  8
0
 10
4.47271
 20
1.10889
 30
0.0
 40
0
 41
0
  0
VERTEX
  8
0
 10
4.48118
 20
1.12891
 30
0.0
 40
0
 41
0
  0
VERTEX
  8
0
 10
4.47271
 20
1.14898
 30
0.0
 40
0
 41
0
  0
VERTEX
  8
0
 10
4.45226
 20
1.15728
 30
0.0
 40
0
 41
0
  0
SEQEND
 8
0
  0
POLYLINE
  8
0
 62
     0
 66
     1
 10
0
 20
0
 30
0.0
 70
     1
 40
0
 41
0
  0
VERTEX
  8
0
 10
4.62701
 20
0.792806
 30
0.0
 40
0
 41
0
  0
VERTEX
  8
0
 10
4.66764
 20
0.792806
 30
0.0
 40
0
 41
0
  0
VERTEX
  8
0
 10
4.66764
 20
0.939128
 30
0.0
 40
0
 41
0
  0
VERTEX
  8
0
 10
4.67003
 20
0.961914
 30
0.0
 40
0
 41
0
  0
VERTEX
  8
0
 10
4.68044
 20
0.982531
 30
0.0
 40
0
 41
0
  0
VERTEX
  8
0
 10
4.69011
 20
0.993544
 30
0.0
 40
0
 41
0
  0
VERTEX
  8
0
 10
4.70426
 20
1.00515
 30
0.0
 40
0
 41
0
  0
VERTEX
  8
0
 10
4.72163
 20
1.01443
 30
0.0
 40
0
 41
0
  0
VERTEX
  8
0
 10
4.7411
 20
1.01818
 30
0.0
 40
0
 41
0
  0
VERTEX
  8
0
 10
4.75982
 20
1.01411
 30
0.0
 40
0
 41
0
  0
VERTEX
  8
0
 10
4.77561
 20
1.00201
 30
0.0
 40
0
 41
0
  0
VERTEX
  8
0
 10
4.78776
 20
0.974393
 30
0.0
 40
0
 41
0
  0
VERTEX
  8
0
 10
4.7895
 20
0.945801
 30
0.0
 40
0
 41
0
  0
VERTEX
  8
0
 10
4.7895
 20
0.792806
 30
0.0
 40
0
 41
0
  0
VERTEX
  8
0
 10
4.829
 20
0.792806
 30
0.0
 40
0
 41
0
  0
VERTEX
  8
0
 10
4.829
 20
0.94694
 30
0.0
 40
0
 41
0
  0
VERTEX
  8
0
 10
4.82785
 20
0.97716
 30
0.0
 40
0
 41
0
  0
VERTEX
  8
0
 10
4.8201
 20
1.00814
 30
0.0
 40
0
 41
0
  0
VERTEX
  8
0
 10
4.79215
 20
1.04107
 30
0.0
 40
0
 41
0
  0
VERTEX
  8
0
 10
4.75222
 20
1.05268
 30
0.0
 40
0
 41
0
  0
VERTEX
  8
0
 10
4.70404
 20
1.03803
 30
0.0
 40
0
 41
0
  0
VERTEX
  8
0
 10
4.66764
 20
1.00201
 30
0.0
 40
0
 41
0
  0
VERTEX
  8
0
 10
4.66764
 20
1.04655
 30
0.0
 40
0
 41
0
  0
VERTEX
  8
0
 10
4.62701
 20
1.04655
 30
0.0
 40
0
 41
0
  0
VERTEX
  8
0
 10
4.62701
 20
0.792806
 30
0.0
 40
0
 41
0
  0
SEQEND
 8
0
  0
POLYLINE
  8
0
 62
     0
 66
     1
 10
0
 20
0
 30
0.0
 70
     1
 40
0
 41
0
  0
VERTEX
  8
0
 10
4.93696
 20
0.967503
 30
0.0
 40
0
 41
0
  0
VERTEX
  8
0
 10
4.9414
 20
0.98915
 30
0.0
 40
0
 41
0
  0
VERTEX
  8
0
 10
4.95356
 20
1.00684
 30
0.0
 40
0
 41
0
  0
VERTEX
  8
0
 10
4.97146
 20
1.01883
 30
0.0
 40
0
 41
0
  0
VERTEX
  8
0
 10
4.99317
 20
1.02317
 30
0.0
 40
0
 41
0
  0
VERTEX
  8
0
 10
5.01508
 20
1.01883
 30
0.0
 40
0
 41
0
  0
VERTEX
  8
0
 10
5.03293
 20
1.00684
 30
0.0
 40
0
 41
0
  0
VERTEX
  8
0
 10
5.04492
 20
0.98915
 30
0.0
 40
0
 41
0
  0
VERTEX
  8
0
 10
5.04937
 20
0.967503
 30
0.0
 40
0
 41
0
  0
VERTEX
  8
0
 10
5.04492
 20
0.94591
 30
0.0
 40
0
 41
0
  0
VERTEX
  8
0
 10
5.03293
 20
0.928222
 30
0.0
 40
0
 41
0
  0
VERTEX
  8
0
 10
5.01508
 20
0.916288
 30
0.0
 40
0
 41
0
  0
VERTEX
  8
0
 10
4.99317
 20
0.911893
 30
0.0
 40
0
 41
0
  0
VERTEX
  8
0
 10
4.97119
 20
0.916288
 30
0.0
 40
0
 41
0
  0
VERTEX
  8
0
 10
4.95335
 20
0.928222
 30
0.0
 40
0
 41
0
  0
VERTEX
  8
0
 10
4.94135
 20
0.94591
 30
0.0
 40
0
 41
0
  0
VERTEX
  8
0
 10
4.93696
 20
0.967503
 30
0.0
 40
0
 41
0
  0
SEQEND
 8
0
  0
POLYLINE
  8
0
 62
     0
 66
     1
 10
0
 20
0
 30
0.0
 70
     1
 40
0
 41
0
  0
VERTEX
  8
0
 10
4.99539
 20
1.0549
 30
0.0
 40
0
 41
0
  0
VERTEX
  8
0
 10
4.95925
 20
1.04791
 30
0.0
 40
0
 41
0
  0
VERTEX
  8
0
 10
4.9291
 20
1.0287
 30
0.0
 40
0
 41
0
  0
VERTEX
  8
0
 10
4.90847
 20
1.00022
 30
0.0
 40
0
 41
0
  0
VERTEX
  8
0
 10
4.90082
 20
0.965278
 30
0.0
 40
0
 41
0
  0
VERTEX
  8
0
 10
4.91064
 20
0.925999
 30
0.0
 40
0
 41
0
  0
VERTEX
  8
0
 10
4.9381
 20
0.896268
 30
0.0
 40
0
 41
0
  0
VERTEX
  8
0
 10
4.91667
 20
0.872017
 30
0.0
 40
0
 41
0
  0
VERTEX
  8
0
 10
4.90913
 20
0.847331
 30
0.0
 40
0
 41
0
  0
VERTEX
  8
0
 10
4.91336
 20
0.829536
 30
0.0
 40
0
 41
0
  0
VERTEX
  8
0
 10
4.92974
 20
0.813368
 30
0.0
 40
0
 41
0
  0
VERTEX
  8
0
 10
4.89887
 20
0.78635
 30
0.0
 40
0
 41
0
  0
VERTEX
  8
0
 10
4.88857
 20
0.757161
 30
0.0
 40
0
 41
0
  0
VERTEX
  8
0
 10
4.89393
 20
0.735949
 30
0.0
 40
0
 41
0
  0
VERTEX
  8
0
 10
4.91249
 20
0.716417
 30
0.0
 40
0
 41
0
  0
VERTEX
  8
0
 10
4.94769
 20
0.702094
 30
0.0
 40
0
 41
0
  0
VERTEX
  8
0
 10
5.00319
 20
0.696506
 30
0.0
 40
0
 41
0
  0
VERTEX
  8
0
 10
5.05789
 20
0.703939
 30
0.0
 40
0
 41
0
  0
VERTEX
  8
0
 10
5.09424
 20
0.722765
 30
0.0
 40
0
 41
0
  0
VERTEX
  8
0
 10
5.11436
 20
0.747939
 30
0.0
 40
0
 41
0
  0
VERTEX
  8
0
 10
5.12061
 20
0.774414
 30
0.0
 40
0
 41
0
  0
VERTEX
  8
0
 10
5.11083
 20
0.806369
 30
0.0
 40
0
 41
0
  0
VERTEX
  8
0
 10
5.08111
 20
0.829536
 30
0.0
 40
0
 41
0
  0
VERTEX
  8
0
 10
5.03879
 20
0.837349
 30
0.0
 40
0
 41
0
  0
VERTEX
  8
0
 10
4.99485
 20
0.836751
 30
0.0
 40
0
 41
0
  0
VERTEX
  8
0
 10
4.95865
 20
0.840061
 30
0.0
 40
0
 41
0
  0
VERTEX
  8
0
 10
4.94308
 20
0.856771
 30
0.0
 40
0
 41
0
  0
VERTEX
  8
0
 10
4.95122
 20
0.875163
 30
0.0
 40
0
 41
0
  0
VERTEX
  8
0
 10
4.96149
 20
0.885146
 30
0.0
 40
0
 41
0
  0
VERTEX
  8
0
 10
4.99376
 20
0.879611
 30
0.0
 40
0
 41
0
  0
VERTEX
  8
0
 10
5.02914
 20
0.88661
 30
0.0
 40
0
 41
0
  0
VERTEX
  8
0
 10
5.05817
 20
0.90549
 30
0.0
 40
0
 41
0
  0
VERTEX
  8
0
 10
5.07775
 20
0.93316
 30
0.0
 40
0
 41
0
  0
VERTEX
  8
0
 10
5.08501
 20
0.966417
 30
0.0
 40
0
 41
0
  0
VERTEX
  8
0
 10
5.07221
 20
1.00982
 30
0.0
 40
0
 41
0
  0
VERTEX
  8
0
 10
5.11675
 20
1.02208
 30
0.0
 40
0
 41
0
  0
VERTEX
  8
0
 10
5.13118
 20
1.0204
 30
0.0
 40
0
 41
0
  0
VERTEX
  8
0
 10
5.12674
 20
1.05322
 30
0.0
 40
0
 41
0
  0
VERTEX
  8
0
 10
5.08908
 20
1.04899
 30
0.0
 40
0
 41
0
  0
VERTEX
  8
0
 10
5.05604
 20
1.03098
 30
0.0
 40
0
 41
0
  0
VERTEX
  8
0
 10
5.02843
 20
1.04883
 30
0.0
 40
0
 41
0
  0
VERTEX
  8
0
 10
4.99539
 20
1.0549
 30
0.0
 40
0
 41
0
  0
SEQEND
 8
0
  0
POLYLINE
  8
0
 62
     0
 66
     1
 10
0
 20
0
 30
0.0
 70
     1
 40
0
 41
0
  0
VERTEX
  8
0
 10
4.95703
 20
0.806153
 30
0.0
 40
0
 41
0
  0
VERTEX
  8
0
 10
4.99929
 20
0.802789
 30
0.0
 40
0
 41
0
  0
VERTEX
  8
0
 10
5.02794
 20
0.802897
 30
0.0
 40
0
 41
0
  0
VERTEX
  8
0
 10
5.05328
 20
0.801704
 30
0.0
 40
0
 41
0
  0
VERTEX
  8
0
 10
5.07731
 20
0.78966
 30
0.0
 40
0
 41
0
  0
VERTEX
  8
0
 10
5.08388
 20
0.77219
 30
0.0
 40
0
 41
0
  0
VERTEX
  8
0
 10
5.07835
 20
0.754611
 30
0.0
 40
0
 41
0
  0
VERTEX
  8
0
 10
5.05994
 20
0.738226
 30
0.0
 40
0
 41
0
  0
VERTEX
  8
0
 10
5.03065
 20
0.72895
 30
0.0
 40
0
 41
0
  0
VERTEX
  8
0
 10
5.00265
 20
0.727106
 30
0.0
 40
0
 41
0
  0
VERTEX
  8
0
 10
4.97917
 20
0.728353
 30
0.0
 40
0
 41
0
  0
VERTEX
  8
0
 10
4.95036
 20
0.73546
 30
0.0
 40
0
 41
0
  0
VERTEX
  8
0
 10
4.93007
 20
0.750868
 30
0.0
 40
0
 41
0
  0
VERTEX
  8
0
 10
4.92529
 20
0.766601
 30
0.0
 40
0
 41
0
  0
VERTEX
  8
0
 10
4.93571
 20
0.790365
 30
0.0
 40
0
 41
0
  0
VERTEX
  8
0
 10
4.95703
 20
0.806153
 30
0.0
 40
0
 41
0
  0
SEQEND
 8
0
  0
POLYLINE
  8
0
 62
     0
 66
     1
 10
0
 20
0
 30
0.0
 70
     1
 40
0
 41
0
  0
VERTEX
  8
0
 10
2.23606
 20
0.574164
 30
0.0
 40
0
 41
0
  0
VERTEX
  8
0
 10
2.21701
 20
0.572646
 30
0.0
 40
0
 41
0
  0
VERTEX
  8
0
 10
2.19558
 20
0.567275
 30
0.0
 40
0
 41
0
  0
VERTEX
  8
0
 10
2.17329
 20
0.557021
 30
0.0
 40
0
 41
0
  0
VERTEX
  8
0
 10
2.15164
 20
0.540744
 30
0.0
 40
0
 41
0
  0
VERTEX
  8
0
 10
2.13217
 20
0.517307
 30
0.0
 40
0
 41
0
  0
VERTEX
  8
0
 10
2.11637
 20
0.485678
 30
0.0
 40
0
 41
0
  0
VERTEX
  8
0
 10
2.10579
 20
0.444715
 30
0.0
 40
0
 41
0
  0
VERTEX
  8
0
 10
2.10194
 20
0.393283
 30
0.0
 40
0
 41
0
  0
VERTEX
  8
0
 10
2.10519
 20
0.34809
 30
0.0
 40
0
 41
0
  0
VERTEX
  8
0
 10
2.11431
 20
0.310601
 30
0.0
 40
0
 41
0
  0
VERTEX
  8
0
 10
2.12831
 20
0.280328
 30
0.0
 40
0
 41
0
  0
VERTEX
  8
0
 10
2.14615
 20
0.256674
 30
0.0
 40
0
 41
0
  0
VERTEX
  8
0
 10
2.16683
 20
0.239258
 30
0.0
 40
0
 41
0
  0
VERTEX
  8
0
 10
2.18924
 20
0.227376
 30
0.0
 40
0
 41
0
  0
VERTEX
  8
0
 10
2.21251
 20
0.220703
 30
0.0
 40
0
 41
0
  0
VERTEX
  8
0
 10
2.23551
 20
0.218533
 30
0.0
 40
0
 41
0
  0
VERTEX
  8
0
 10
2.2864
 20
0.227485
 30
0.0
 40
0
 41
0
  0
VERTEX
  8
0
 10
2.33735
 20
0.254719
 30
0.0
 40
0
 41
0
  0
VERTEX
  8
0
 10
2.33735
 20
0.389974
 30
0.0
 40
0
 41
0
  0
VERTEX
  8
0
 10
2.23882
 20
0.389974
 30
0.0
 40
0
 41
0
  0
VERTEX
  8
0
 10
2.23882
 20
0.356554
 30
0.0
 40
0
 41
0
  0
VERTEX
  8
0
 10
2.30171
 20
0.356554
 30
0.0
 40
0
 41
0
  0
VERTEX
  8
0
 10
2.30171
 20
0.273654
 30
0.0
 40
0
 41
0
  0
VERTEX
  8
0
 10
2.27094
 20
0.257867
 30
0.0
 40
0
 41
0
  0
VERTEX
  8
0
 10
2.23942
 20
0.252496
 30
0.0
 40
0
 41
0
  0
VERTEX
  8
0
 10
2.20481
 20
0.259657
 30
0.0
 40
0
 41
0
  0
VERTEX
  8
0
 10
2.17318
 20
0.283094
 30
0.0
 40
0
 41
0
  0
VERTEX
  8
0
 10
2.15582
 20
0.310331
 30
0.0
 40
0
 41
0
  0
VERTEX
  8
0
 10
2.14589
 20
0.340875
 30
0.0
 40
0
 41
0
  0
VERTEX
  8
0
 10
2.14139
 20
0.372017
 30
0.0
 40
0
 41
0
  0
VERTEX
  8
0
 10
2.14035
 20
0.401096
 30
0.0
 40
0
 41
0
  0
VERTEX
  8
0
 10
2.14393
 20
0.448133
 30
0.0
 40
0
 41
0
  0
VERTEX
  8
0
 10
2.15761
 20
0.490126
 30
0.0
 40
0
 41
0
  0
VERTEX
  8
0
 10
2.19233
 20
0.527669
 30
0.0
 40
0
 41
0
  0
VERTEX
  8
0
 10
2.23551
 20
0.53966
 30
0.0
 40
0
 41
0
  0
VERTEX
  8
0
 10
2.27632
 20
0.528157
 30
0.0
 40
0
 41
0
  0
VERTEX
  8
0
 10
2.30171
 20
0.499024
 30
0.0
 40
0
 41
0
  0
VERTEX
  8
0
 10
2.30951
 20
0.487901
 30
0.0
 40
0
 41
0
  0
VERTEX
  8
0
 10
2.33681
 20
0.515733
 30
0.0
 40
0
 41
0
  0
VERTEX
  8
0
 10
2.31858
 20
0.540147
 30
0.0
 40
0
 41
0
  0
VERTEX
  8
0
 10
2.29497
 20
0.558539
 30
0.0
 40
0
 41
0
  0
VERTEX
  8
0
 10
2.26704
 20
0.57015
 30
0.0
 40
0
 41
0
  0
VERTEX
  8
0
 10
2.23606
 20
0.574164
 30
0.0
 40
0
 41
0
  0
SEQEND
 8
0
  0
POLYLINE
  8
0
 62
     0
 66
     1
 10
0
 20
0
 30
0.0
 70
     1
 40
0
 41
0
  0
VERTEX
  8
0
 10
2.41525
 20
0.477919
 30
0.0
 40
0
 41
0
  0
VERTEX
  8
0
 10
2.41525
 20
0.223579
 30
0.0
 40
0
 41
0
  0
VERTEX
  8
0
 10
2.45535
 20
0.223579
 30
0.0
 40
0
 41
0
  0
VERTEX
  8
0
 10
2.45535
 20
0.347114
 30
0.0
 40
0
 41
0
  0
VERTEX
  8
0
 10
2.45774
 20
0.372504
 30
0.0
 40
0
 41
0
  0
VERTEX
  8
0
 10
2.47314
 20
0.406685
 30
0.0
 40
0
 41
0
  0
VERTEX
  8
0
 10
2.49164
 20
0.428874
 30
0.0
 40
0
 41
0
  0
VERTEX
  8
0
 10
2.5109
 20
0.441894
 30
0.0
 40
0
 41
0
  0
VERTEX
  8
0
 10
2.52924
 20
0.447971
 30
0.0
 40
0
 41
0
  0
VERTEX
  8
0
 10
2.54492
 20
0.44949
 30
0.0
 40
0
 41
0
  0
VERTEX
  8
0
 10
2.57096
 20
0.443414
 30
0.0
 40
0
 41
0
  0
VERTEX
  8
0
 10
2.58664
 20
0.43061
 30
0.0
 40
0
 41
0
  0
VERTEX
  8
0
 10
2.59614
 20
0.417806
 30
0.0
 40
0
 41
0
  0
VERTEX
  8
0
 10
2.61501
 20
0.456164
 30
0.0
 40
0
 41
0
  0
VERTEX
  8
0
 10
2.58567
 20
0.476346
 30
0.0
 40
0
 41
0
  0
VERTEX
  8
0
 10
2.54715
 20
0.483996
 30
0.0
 40
0
 41
0
  0
VERTEX
  8
0
 10
2.51938
 20
0.480524
 30
0.0
 40
0
 41
0
  0
VERTEX
  8
0
 10
2.49349
 20
0.470053
 30
0.0
 40
0
 41
0
  0
VERTEX
  8
0
 10
2.47146
 20
0.4528
 30
0.0
 40
0
 41
0
  0
VERTEX
  8
0
 10
2.45535
 20
0.428928
 30
0.0
 40
0
 41
0
  0
VERTEX
  8
0
 10
2.45697
 20
0.477919
 30
0.0
 40
0
 41
0
  0
VERTEX
  8
0
 10
2.41525
 20
0.477919
 30
0.0
 40
0
 41
0
  0
SEQEND
 8
0
  0
POLYLINE
  8
0
 62
     0
 66
     1
 10
0
 20
0
 30
0.0
 70
     1
 40
0
 41
0
  0
VERTEX
  8
0
 10
2.68847
 20
0.448406
 30
0.0
 40
0
 41
0
  0
VERTEX
  8
0
 10
2.70796
 20
0.422797
 30
0.0
 40
0
 41
0
  0
VERTEX
  8
0
 10
2.7436
 20
0.44515
 30
0.0
 40
0
 41
0
  0
VERTEX
  8
0
 10
2.78142
 20
0.451172
 30
0.0
 40
0
 41
0
  0
VERTEX
  8
0
 10
2.81614
 20
0.44336
 30
0.0
 40
0
 41
0
  0
VERTEX
  8
0
 10
2.83376
 20
0.426704
 30
0.0
 40
0
 41
0
  0
VERTEX
  8
0
 10
2.84076
 20
0.404514
 30
0.0
 40
0
 41
0
  0
VERTEX
  8
0
 10
2.84153
 20
0.382704
 30
0.0
 40
0
 41
0
  0
VERTEX
  8
0
 10
2.84153
 20
0.373807
 30
0.0
 40
0
 41
0
  0
VERTEX
  8
0
 10
2.83376
 20
0.373807
 30
0.0
 40
0
 41
0
  0
VERTEX
  8
0
 10
2.77653
 20
0.372396
 30
0.0
 40
0
 41
0
  0
VERTEX
  8
0
 10
2.72358
 20
0.362142
 30
0.0
 40
0
 41
0
  0
VERTEX
  8
0
 10
2.6976
 20
0.348687
 30
0.0
 40
0
 41
0
  0
VERTEX
  8
0
 10
2.67958
 20
0.331
 30
0.0
 40
0
 41
0
  0
VERTEX
  8
0
 10
2.66906
 20
0.310818
 30
0.0
 40
0
 41
0
  0
VERTEX
  8
0
 10
2.66569
 20
0.289768
 30
0.0
 40
0
 41
0
  0
VERTEX
  8
0
 10
2.67156
 20
0.26275
 30
0.0
 40
0
 41
0
  0
VERTEX
  8
0
 10
2.68842
 20
0.239638
 30
0.0
 40
0
 41
0
  0
VERTEX
  8
0
 10
2.71517
 20
0.223525
 30
0.0
 40
0
 41
0
  0
VERTEX
  8
0
 10
2.75082
 20
0.217449
 30
0.0
 40
0
 41
0
  0
VERTEX
  8
0
 10
2.79769
 20
0.226183
 30
0.0
 40
0
 41
0
  0
VERTEX
  8
0
 10
2.84212
 20
0.251953
 30
0.0
 40
0
 41
0
  0
VERTEX
  8
0
 10
2.84212
 20
0.224121
 30
0.0
 40
0
 41
0
  0
VERTEX
  8
0
 10
2.87993
 20
0.224121
 30
0.0
 40
0
 41
0
  0
VERTEX
  8
0
 10
2.87993
 20
0.381619
 30
0.0
 40
0
 41
0
  0
VERTEX
  8
0
 10
2.87819
 20
0.411893
 30
0.0
 40
0
 41
0
  0
VERTEX
  8
0
 10
2.86768
 20
0.441732
 30
0.0
 40
0
 41
0
  0
VERTEX
  8
0
 10
2.83197
 20
0.472819
 30
0.0
 40
0
 41
0
  0
VERTEX
  8
0
 10
2.77919
 20
0.483453
 30
0.0
 40
0
 41
0
  0
VERTEX
  8
0
 10
2.73008
 20
0.475151
 30
0.0
 40
0
 41
0
  0
VERTEX
  8
0
 10
2.68847
 20
0.448406
 30
0.0
 40
0
 41
0
  0
SEQEND
 8
0
  0
POLYLINE
  8
0
 62
     0
 66
     1
 10
0
 20
0
 30
0.0
 70
     1
 40
0
 41
0
  0
VERTEX
  8
0
 10
2.84321
 20
0.343207
 30
0.0
 40
0
 41
0
  0
VERTEX
  8
0
 10
2.84321
 20
0.325956
 30
0.0
 40
0
 41
0
  0
VERTEX
  8
0
 10
2.84104
 20
0.304144
 30
0.0
 40
0
 41
0
  0
VERTEX
  8
0
 10
2.82596
 20
0.278103
 30
0.0
 40
0
 41
0
  0
VERTEX
  8
0
 10
2.80154
 20
0.259549
 30
0.0
 40
0
 41
0
  0
VERTEX
  8
0
 10
2.75917
 20
0.248047
 30
0.0
 40
0
 41
0
  0
VERTEX
  8
0
 10
2.73649
 20
0.25179
 30
0.0
 40
0
 41
0
  0
VERTEX
  8
0
 10
2.71967
 20
0.261719
 30
0.0
 40
0
 41
0
  0
VERTEX
  8
0
 10
2.70925
 20
0.275771
 30
0.0
 40
0
 41
0
  0
VERTEX
  8
0
 10
2.70574
 20
0.291992
 30
0.0
 40
0
 41
0
  0
VERTEX
  8
0
 10
2.7161
 20
0.319879
 30
0.0
 40
0
 41
0
  0
VERTEX
  8
0
 10
2.75028
 20
0.339301
 30
0.0
 40
0
 41
0
  0
VERTEX
  8
0
 10
2.79101
 20
0.343371
 30
0.0
 40
0
 41
0
  0
VERTEX
  8
0
 10
2.83431
 20
0.343207
 30
0.0
 40
0
 41
0
  0
VERTEX
  8
0
 10
2.84321
 20
0.343207
 30
0.0
 40
0
 41
0
  0
SEQEND
 8
0
  0
POLYLINE
  8
0
 62
     0
 66
     1
 10
0
 20
0
 30
0.0
 70
     1
 40
0
 41
0
  0
VERTEX
  8
0
 10
2.95562
 20
0.478461
 30
0.0
 40
0
 41
0
  0
VERTEX
  8
0
 10
2.95562
 20
0.443414
 30
0.0
 40
0
 41
0
  0
VERTEX
  8
0
 10
3.102
 20
0.443414
 30
0.0
 40
0
 41
0
  0
VERTEX
  8
0
 10
2.9445
 20
0.250814
 30
0.0
 40
0
 41
0
  0
VERTEX
  8
0
 10
2.9445
 20
0.223579
 30
0.0
 40
0
 41
0
  0
VERTEX
  8
0
 10
3.16656
 20
0.223579
 30
0.0
 40
0
 41
0
  0
VERTEX
  8
0
 10
3.16656
 20
0.261393
 30
0.0
 40
0
 41
0
  0
VERTEX
  8
0
 10
3.15858
 20
0.2602
 30
0.0
 40
0
 41
0
  0
VERTEX
  8
0
 10
3.14985
 20
0.258083
 30
0.0
 40
0
 41
0
  0
VERTEX
  8
0
 10
2.99849
 20
0.258083
 30
0.0
 40
0
 41
0
  0
VERTEX
  8
0
 10
3.15375
 20
0.451172
 30
0.0
 40
0
 41
0
  0
VERTEX
  8
0
 10
3.15375
 20
0.478461
 30
0.0
 40
0
 41
0
  0
VERTEX
  8
0
 10
2.95562
 20
0.478461
 30
0.0
 40
0
 41
0
  0
SEQEND
 8
0
  0
ENDSEC
  0
EOF
