  0
SECTION
  2
HEADER
  9
$ACADVER
  1
AC1014
  9
$HANDSEED
  5
FFFF
  9
$MEASUREMENT
 70
     1
  0
ENDSEC
  0
SECTION
  2
TABLES
  0
TABLE
  2
VPORT
  5
8
330
0
100
AcDbSymbolTable
 70
     4
  0
VPORT
  5
2E
330
8
100
AcDbSymbolTableRecord
100
AcDbViewportTableRecord
  2
*ACTIVE
 70
     0
 10
0.0
 20
0.0
 11
1.0
 21
1.0
 12
210.0
 22
148.5
 13
0.0
 23
0.0
 14
10.0
 24
10.0
 15
10.0
 25
10.0
 16
0.0
 26
0.0
 36
1.0
 17
0.0
 27
0.0
 37
0.0
 40
341.0
 41
1.24
 42
50.0
 43
0.0
 44
0.0
 50
0.0
 51
0.0
 71
     0
 72
   100
 73
     1
 74
     3
 75
     0
 76
     0
 77
     0
 78
     0
  0
ENDTAB
  0
TABLE
  2
LTYPE
  5
5
330
0
100
AcDbSymbolTable
 70
     1
  0
LTYPE
  5
14
330
5
100
AcDbSymbolTableRecord
100
AcDbLinetypeTableRecord
  2
BYBLOCK
 70
     0
  3

 72
    65
 73
     0
 40
0.0
  0
LTYPE
  5
15
330
5
100
AcDbSymbolTableRecord
100
AcDbLinetypeTableRecord
  2
BYLAYER
 70
     0
  3

 72
    65
 73
     0
 40
0.0
  0
LTYPE
  5
16
330
5
100
AcDbSymbolTableRecord
100
AcDbLinetypeTableRecord
  2
CONTINUOUS
 70
     0
  3
Solid line
 72
    65
 73
     0
 40
0.0
  0
ENDTAB
  0
TABLE
  2
LAYER
  5
2
100
AcDbSymbolTable
 70
2
  0
LAYER
  5
50
100
AcDbSymbolTableRecord
100
AcDbLayerTableRecord
  2
0
 70
0
  6
CONTINUOUS
  0
LAYER
  5
51
100
AcDbSymbolTableRecord
100
AcDbLayerTableRecord
  2
Layer_1
 70
0
  6
CONTINUOUS
  0
ENDTAB
  0
TABLE
  2
STYLE
  5
3
330
0
100
AcDbSymbolTable
 70
     1
  0
STYLE
  5
11
330
3
100
AcDbSymbolTableRecord
100
AcDbTextStyleTableRecord
  2
STANDARD
 70
     0
 40
0.0
 41
1.0
 50
0.0
 71
     0
 42
2.5
  3
txt
  4

  0
ENDTAB
  0
TABLE
  2
VIEW
  5
6
330
0
100
AcDbSymbolTable
 70
     0
  0
ENDTAB
  0
TABLE
  2
UCS
  5
7
330
0
100
AcDbSymbolTable
 70
     0
  0
ENDTAB
  0
TABLE
  2
APPID
  5
9
330
0
100
AcDbSymbolTable
 70
     2
  0
APPID
  5
12
330
9
100
AcDbSymbolTableRecord
100
AcDbRegAppTableRecord
  2
ACAD
 70
     0
  0
ENDTAB
  0
TABLE
  2
DIMSTYLE
  5
A
330
0
100
AcDbSymbolTable
 70
     1
  0
DIMSTYLE
105
27
330
A
100
AcDbSymbolTableRecord
100
AcDbDimStyleTableRecord
  2
ISO-25
 70
     0
  3

  4

  5

  6

  7

 40
1.0
 41
2.5
 42
0.625
 43
3.75
 44
1.25
 45
0.0
 46
0.0
 47
0.0
 48
0.0
140
2.5
141
2.5
142
0.0
143
0.03937007874016
144
1.0
145
0.0
146
1.0
147
0.625
 71
     0
 72
     0
 73
     0
 74
     0
 75
     0
 76
     0
 77
     1
 78
     8
170
     0
171
     3
172
     1
173
     0
174
     0
175
     0
176
     0
177
     0
178
     0
270
     2
271
     2
272
     2
273
     2
274
     3
340
11
275
     0
280
     0
281
     0
282
     0
283
     0
284
     8
285
     0
286
     0
287
     3
288
     0
  0
ENDTAB
  0
TABLE
  2
BLOCK_RECORD
  5
1
330
0
100
AcDbSymbolTable
 70
     1
  0
BLOCK_RECORD
  5
1F
330
1
100
AcDbSymbolTableRecord
100
AcDbBlockTableRecord
  2
*MODEL_SPACE
  0
BLOCK_RECORD
  5
1B
330
1
100
AcDbSymbolTableRecord
100
AcDbBlockTableRecord
  2
*PAPER_SPACE
  0
ENDTAB
  0
ENDSEC
  0
SECTION
  2
BLOCKS
  0
BLOCK
  5
20
330
1F
100
AcDbEntity
  8
0
100
AcDbBlockBegin
  2
*MODEL_SPACE
 70
     0
 10
0.0
 20
0.0
 30
0.0
  3
*MODEL_SPACE
  1

  0
ENDBLK
  5
21
330
1F
100
AcDbEntity
  8
0
100
AcDbBlockEnd
  0
BLOCK
  5
1C
330
1B
100
AcDbEntity
 67
     1
  8
0
100
AcDbBlockBegin
  2
*PAPER_SPACE
  1

  0
ENDBLK
  5
1D
330
1B
100
AcDbEntity
 67
     1
  8
0
100
AcDbBlockEnd
  0
ENDSEC
  0
SECTION
  2
ENTITIES
  0
SPLINE
  5
100
100
AcDbEntity
  8
Layer_1
 62
3
100
AcDbSpline
 70
8
 71
3
 72
8
 73
4
 74
0
 40
0
 40
0
 40
0
 40
0
 40
1
 40
1
 40
1
 40
1
 10
27.055532
 20
23.740810
 30
0.0
 10
27.055532
 20
23.740810
 30
0.0
 10
23.598116
 20
32.317687
 30
0.0
 10
20.209301
 20
35.201987
 30
0.0
  0
SPLINE
  5
101
100
AcDbEntity
  8
Layer_1
 62
3
100
AcDbSpline
 70
8
 71
3
 72
8
 73
4
 74
0
 40
0
 40
0
 40
0
 40
0
 40
1
 40
1
 40
1
 40
1
 10
20.209301
 20
35.201987
 30
0.0
 10
18.674156
 20
36.508583
 30
0.0
 10
16.833257
 20
36.753983
 30
0.0
 10
15.550549
 20
36.267348
 30
0.0
  0
SPLINE
  5
102
100
AcDbEntity
  8
Layer_1
 62
3
100
AcDbSpline
 70
8
 71
3
 72
8
 73
4
 74
0
 40
0
 40
0
 40
0
 40
0
 40
1
 40
1
 40
1
 40
1
 10
15.550549
 20
36.267348
 30
0.0
 10
14.267843
 20
35.780712
 30
0.0
 10
13.465804
 20
35.180784
 30
0.0
 10
12.241059
 20
34.032605
 30
0.0
  0
SPLINE
  5
103
100
AcDbEntity
  8
Layer_1
 62
3
100
AcDbSpline
 70
8
 71
3
 72
8
 73
4
 74
0
 40
0
 40
0
 40
0
 40
0
 40
1
 40
1
 40
1
 40
1
 10
12.241059
 20
34.032605
 30
0.0
 10
12.062612
 20
32.361279
 30
0.0
 10
14.562311
 20
33.032912
 30
0.0
 10
14.548948
 20
30.599357
 30
0.0
  0
SPLINE
  5
104
100
AcDbEntity
  8
Layer_1
 62
3
100
AcDbSpline
 70
8
 71
3
 72
8
 73
4
 74
0
 40
0
 40
0
 40
0
 40
0
 40
1
 40
1
 40
1
 40
1
 10
14.548948
 20
30.599357
 30
0.0
 10
15.477253
 20
31.409335
 30
0.0
 10
16.073143
 20
31.773820
 30
0.0
 10
17.177436
 20
31.605183
 30
0.0
  0
SPLINE
  5
105
100
AcDbEntity
  8
Layer_1
 62
3
100
AcDbSpline
 70
8
 71
3
 72
8
 73
4
 74
0
 40
0
 40
0
 40
0
 40
0
 40
1
 40
1
 40
1
 40
1
 10
17.177436
 20
31.605183
 30
0.0
 10
19.061131
 20
31.262450
 30
0.0
 10
24.880155
 20
19.060247
 30
0.0
 10
24.308387
 20
16.902735
 30
0.0
  0
SPLINE
  5
106
100
AcDbEntity
  8
Layer_1
 62
3
100
AcDbSpline
 70
8
 71
3
 72
8
 73
4
 74
0
 40
0
 40
0
 40
0
 40
0
 40
1
 40
1
 40
1
 40
1
 10
24.308387
 20
16.902735
 30
0.0
 10
24.308387
 20
16.902735
 30
0.0
 10
23.698773
 20
15.522013
 30
0.0
 10
23.077610
 20
15.196574
 30
0.0
  0
SPLINE
  5
107
100
AcDbEntity
  8
Layer_1
 62
3
100
AcDbSpline
 70
8
 71
3
 72
8
 73
4
 74
0
 40
0
 40
0
 40
0
 40
0
 40
1
 40
1
 40
1
 40
1
 10
23.077610
 20
15.196574
 30
0.0
 10
22.038897
 20
14.652374
 30
0.0
 10
20.391899
 20
15.955397
 30
0.0
 10
19.560357
 20
15.128587
 30
0.0
  0
SPLINE
  5
108
100
AcDbEntity
  8
Layer_1
 62
3
100
AcDbSpline
 70
8
 71
3
 72
8
 73
4
 74
0
 40
0
 40
0
 40
0
 40
0
 40
1
 40
1
 40
1
 40
1
 10
19.560357
 20
15.128587
 30
0.0
 10
18.579005
 20
14.152818
 30
0.0
 10
18.391903
 20
11.862455
 30
0.0
 10
19.456448
 20
10.978190
 30
0.0
  0
SPLINE
  5
109
100
AcDbEntity
  8
Layer_1
 62
3
100
AcDbSpline
 70
8
 71
3
 72
8
 73
4
 74
0
 40
0
 40
0
 40
0
 40
0
 40
1
 40
1
 40
1
 40
1
 10
19.456448
 20
10.978190
 30
0.0
 10
21.381726
 20
9.378956
 30
0.0
 10
25.288680
 20
10.643272
 30
0.0
 10
26.800785
 20
12.539895
 30
0.0
  0
SPLINE
  5
10a
100
AcDbEntity
  8
Layer_1
 62
3
100
AcDbSpline
 70
8
 71
3
 72
8
 73
4
 74
0
 40
0
 40
0
 40
0
 40
0
 40
1
 40
1
 40
1
 40
1
 10
26.800785
 20
12.539895
 30
0.0
 10
31.733704
 20
18.727234
 30
0.0
 10
37.083410
 20
34.624487
 30
0.0
 10
37.083410
 20
34.624487
 30
0.0
  0
SPLINE
  5
10b
100
AcDbEntity
  8
Layer_1
 62
3
100
AcDbSpline
 70
8
 71
3
 72
8
 73
4
 74
0
 40
0
 40
0
 40
0
 40
0
 40
1
 40
1
 40
1
 40
1
 10
37.083410
 20
34.624487
 30
0.0
 10
35.496048
 20
37.834257
 30
0.0
 10
34.322035
 20
33.743815
 30
0.0
 10
32.584511
 20
36.767612
 30
0.0
  0
LWPOLYLINE
  5
10c
100
AcDbEntity
  8
Layer_1
 62
3
100
AcDbPolyline
 90
2
 70
0
 10
32.584511
 20
36.767612
 30
0.0
 10
27.055532
 20
23.740810
 30
0.0
  0
SPLINE
  5
10d
100
AcDbEntity
  8
Layer_1
 62
3
100
AcDbSpline
 70
8
 71
3
 72
8
 73
4
 74
0
 40
0
 40
0
 40
0
 40
0
 40
1
 40
1
 40
1
 40
1
 10
46.142216
 20
24.744858
 30
0.0
 10
46.142216
 20
12.926012
 30
0.0
 10
36.562874
 20
3.347776
 30
0.0
 10
24.745134
 20
3.347776
 30
0.0
  0
SPLINE
  5
10e
100
AcDbEntity
  8
Layer_1
 62
3
100
AcDbSpline
 70
8
 71
3
 72
8
 73
4
 74
0
 40
0
 40
0
 40
0
 40
0
 40
1
 40
1
 40
1
 40
1
 10
24.745134
 20
3.347776
 30
0.0
 10
12.927395
 20
3.347776
 30
0.0
 10
3.347776
 20
12.925874
 30
0.0
 10
3.347776
 20
24.744858
 30
0.0
  0
SPLINE
  5
10f
100
AcDbEntity
  8
Layer_1
 62
3
100
AcDbSpline
 70
8
 71
3
 72
8
 73
4
 74
0
 40
0
 40
0
 40
0
 40
0
 40
1
 40
1
 40
1
 40
1
 10
3.347776
 20
24.744858
 30
0.0
 10
3.347776
 20
36.562321
 30
0.0
 10
12.927118
 20
46.141801
 30
0.0
 10
24.745134
 20
46.141801
 30
0.0
  0
SPLINE
  5
110
100
AcDbEntity
  8
Layer_1
 62
3
100
AcDbSpline
 70
8
 71
3
 72
8
 73
4
 74
0
 40
0
 40
0
 40
0
 40
0
 40
1
 40
1
 40
1
 40
1
 10
24.745134
 20
46.141801
 30
0.0
 10
36.562738
 20
46.141801
 30
0.0
 10
46.142216
 20
36.562321
 30
0.0
 10
46.142216
 20
24.744858
 30
0.0
  0
LWPOLYLINE
  5
111
100
AcDbEntity
  8
Layer_1
 62
3
100
AcDbPolyline
 90
2
 70
0
 10
32.584511
 20
36.767612
 30
0.0
 10
32.584511
 20
36.767612
 30
0.0
  0
LWPOLYLINE
  5
112
100
AcDbEntity
  8
Layer_1
 62
3
100
AcDbPolyline
 90
2
 70
0
 10
46.142216
 20
24.744858
 30
0.0
 10
46.142216
 20
24.744858
 30
0.0
  0
LWPOLYLINE
  5
113
100
AcDbEntity
  8
Layer_1
 62
7
100
AcDbPolyline
 90
11
 70
0
 10
53.825936
 20
43.386807
 30
0.0
 10
53.825936
 20
34.580500
 30
0.0
 10
54.829543
 20
34.580500
 30
0.0
 10
54.829543
 20
38.905908
 30
0.0
 10
58.123074
 20
38.905908
 30
0.0
 10
58.123074
 20
39.754028
 30
0.0
 10
54.829543
 20
39.754028
 30
0.0
 10
54.829543
 20
42.524550
 30
0.0
 10
58.900517
 20
42.524550
 30
0.0
 10
58.900517
 20
43.386807
 30
0.0
 10
53.825936
 20
43.386807
 30
0.0
  0
SPLINE
  5
114
100
AcDbEntity
  8
Layer_1
 62
7
100
AcDbSpline
 70
8
 71
3
 72
8
 73
4
 74
0
 40
0
 40
0
 40
0
 40
0
 40
1
 40
1
 40
1
 40
1
 10
60.681568
 20
37.421699
 30
0.0
 10
60.681568
 20
36.870423
 30
0.0
 10
60.681568
 20
36.305007
 30
0.0
 10
60.936005
 20
35.725461
 30
0.0
  0
SPLINE
  5
115
100
AcDbEntity
  8
Layer_1
 62
7
100
AcDbSpline
 70
8
 71
3
 72
8
 73
4
 74
0
 40
0
 40
0
 40
0
 40
0
 40
1
 40
1
 40
1
 40
1
 10
60.936005
 20
35.725461
 30
0.0
 10
61.303521
 20
34.877341
 30
0.0
 10
62.095101
 20
34.410876
 30
0.0
 10
62.943221
 20
34.410876
 30
0.0
  0
SPLINE
  5
116
100
AcDbEntity
  8
Layer_1
 62
7
100
AcDbSpline
 70
8
 71
3
 72
8
 73
4
 74
0
 40
0
 40
0
 40
0
 40
0
 40
1
 40
1
 40
1
 40
1
 10
62.943221
 20
34.410876
 30
0.0
 10
63.748931
 20
34.410876
 30
0.0
 10
64.512241
 20
34.849071
 30
0.0
 10
64.936299
 20
35.555837
 30
0.0
  0
LWPOLYLINE
  5
117
100
AcDbEntity
  8
Layer_1
 62
7
100
AcDbPolyline
 90
2
 70
0
 10
60.681568
 20
41.026207
 30
0.0
 10
60.681568
 20
37.421699
 30
0.0
  0
SPLINE
  5
118
100
AcDbEntity
  8
Layer_1
 62
7
100
AcDbSpline
 70
8
 71
3
 72
8
 73
4
 74
0
 40
0
 40
0
 40
0
 40
0
 40
1
 40
1
 40
1
 40
1
 10
64.922160
 20
35.075235
 30
0.0
 10
64.922160
 20
34.905611
 30
0.0
 10
64.922160
 20
34.735987
 30
0.0
 10
64.950430
 20
34.580500
 30
0.0
  0
LWPOLYLINE
  5
119
100
AcDbEntity
  8
Layer_1
 62
7
100
AcDbPolyline
 90
2
 70
0
 10
64.936299
 20
35.555837
 30
0.0
 10
64.922160
 20
35.075235
 30
0.0
  0
SPLINE
  5
11a
100
AcDbEntity
  8
Layer_1
 62
7
100
AcDbSpline
 70
8
 71
3
 72
8
 73
4
 74
0
 40
0
 40
0
 40
0
 40
0
 40
1
 40
1
 40
1
 40
1
 10
66.024715
 20
34.580500
 30
0.0
 10
65.954038
 20
34.764258
 30
0.0
 10
65.939901
 20
34.976288
 30
0.0
 10
65.939901
 20
35.160049
 30
0.0
  0
LWPOLYLINE
  5
11b
100
AcDbEntity
  8
Layer_1
 62
7
100
AcDbPolyline
 90
2
 70
0
 10
64.950430
 20
34.580500
 30
0.0
 10
66.024715
 20
34.580500
 30
0.0
  0
SPLINE
  5
11c
100
AcDbEntity
  8
Layer_1
 62
7
100
AcDbSpline
 70
8
 71
3
 72
8
 73
4
 74
0
 40
0
 40
0
 40
0
 40
0
 40
1
 40
1
 40
1
 40
1
 10
64.922160
 20
37.478242
 30
0.0
 10
64.922160
 20
36.983503
 30
0.0
 10
64.879753
 20
36.601852
 30
0.0
 10
64.667723
 20
36.206060
 30
0.0
  0
SPLINE
  5
11d
100
AcDbEntity
  8
Layer_1
 62
7
100
AcDbSpline
 70
8
 71
3
 72
8
 73
4
 74
0
 40
0
 40
0
 40
0
 40
0
 40
1
 40
1
 40
1
 40
1
 10
64.667723
 20
36.206060
 30
0.0
 10
64.370881
 20
35.654784
 30
0.0
 10
63.791332
 20
35.244859
 30
0.0
 10
63.169379
 20
35.244859
 30
0.0
  0
SPLINE
  5
11e
100
AcDbEntity
  8
Layer_1
 62
7
100
AcDbSpline
 70
8
 71
3
 72
8
 73
4
 74
0
 40
0
 40
0
 40
0
 40
0
 40
1
 40
1
 40
1
 40
1
 10
63.169379
 20
35.244859
 30
0.0
 10
62.674644
 20
35.244859
 30
0.0
 10
62.194042
 20
35.527567
 30
0.0
 10
61.939607
 20
36.036436
 30
0.0
  0
SPLINE
  5
11f
100
AcDbEntity
  8
Layer_1
 62
7
100
AcDbSpline
 70
8
 71
3
 72
8
 73
4
 74
0
 40
0
 40
0
 40
0
 40
0
 40
1
 40
1
 40
1
 40
1
 10
61.939607
 20
36.036436
 30
0.0
 10
61.713440
 20
36.488768
 30
0.0
 10
61.713440
 20
36.997640
 30
0.0
 10
61.713440
 20
37.421699
 30
0.0
  0
LWPOLYLINE
  5
120
100
AcDbEntity
  8
Layer_1
 62
7
100
AcDbPolyline
 90
4
 70
0
 10
65.939901
 20
35.160049
 30
0.0
 10
65.939901
 20
41.026207
 30
0.0
 10
64.922160
 20
41.026207
 30
0.0
 10
64.922160
 20
37.478242
 30
0.0
  0
LWPOLYLINE
  5
121
100
AcDbEntity
  8
Layer_1
 62
7
100
AcDbPolyline
 90
3
 70
0
 10
61.713440
 20
37.421699
 30
0.0
 10
61.713440
 20
41.026207
 30
0.0
 10
60.681562
 20
41.026207
 30
0.0
  0
SPLINE
  5
122
100
AcDbEntity
  8
Layer_1
 62
7
100
AcDbSpline
 70
8
 71
3
 72
8
 73
4
 74
0
 40
0
 40
0
 40
0
 40
0
 40
1
 40
1
 40
1
 40
1
 10
68.865919
 20
38.298089
 30
0.0
 10
68.865919
 20
38.722148
 30
0.0
 10
68.922463
 20
39.047262
 30
0.0
 10
69.191034
 20
39.400644
 30
0.0
  0
SPLINE
  5
123
100
AcDbEntity
  8
Layer_1
 62
7
100
AcDbSpline
 70
8
 71
3
 72
8
 73
4
 74
0
 40
0
 40
0
 40
0
 40
0
 40
1
 40
1
 40
1
 40
1
 10
69.191034
 20
39.400644
 30
0.0
 10
69.431332
 20
39.725755
 30
0.0
 10
70.053287
 20
40.305304
 30
0.0
 10
70.731784
 20
40.305304
 30
0.0
  0
SPLINE
  5
124
100
AcDbEntity
  8
Layer_1
 62
7
100
AcDbSpline
 70
8
 71
3
 72
8
 73
4
 74
0
 40
0
 40
0
 40
0
 40
0
 40
1
 40
1
 40
1
 40
1
 10
70.731784
 20
40.305304
 30
0.0
 10
71.056895
 20
40.305304
 30
0.0
 10
71.382007
 20
40.163950
 30
0.0
 10
71.608174
 20
39.895382
 30
0.0
  0
SPLINE
  5
125
100
AcDbEntity
  8
Layer_1
 62
7
100
AcDbSpline
 70
8
 71
3
 72
8
 73
4
 74
0
 40
0
 40
0
 40
0
 40
0
 40
1
 40
1
 40
1
 40
1
 10
71.608174
 20
39.895382
 30
0.0
 10
71.961556
 20
39.471321
 30
0.0
 10
71.961556
 20
38.920042
 30
0.0
 10
71.961556
 20
38.467713
 30
0.0
  0
LWPOLYLINE
  5
126
100
AcDbEntity
  8
Layer_1
 62
7
100
AcDbPolyline
 90
3
 70
0
 10
67.834042
 20
34.580500
 30
0.0
 10
68.865919
 20
34.580500
 30
0.0
 10
68.865919
 20
38.298089
 30
0.0
  0
SPLINE
  5
127
100
AcDbEntity
  8
Layer_1
 62
7
100
AcDbSpline
 70
8
 71
3
 72
8
 73
4
 74
0
 40
0
 40
0
 40
0
 40
0
 40
1
 40
1
 40
1
 40
1
 10
72.965163
 20
38.495983
 30
0.0
 10
72.965163
 20
38.990719
 30
0.0
 10
72.965163
 20
39.527864
 30
0.0
 10
72.738999
 20
40.050870
 30
0.0
  0
SPLINE
  5
128
100
AcDbEntity
  8
Layer_1
 62
7
100
AcDbSpline
 70
8
 71
3
 72
8
 73
4
 74
0
 40
0
 40
0
 40
0
 40
0
 40
1
 40
1
 40
1
 40
1
 10
72.738999
 20
40.050870
 30
0.0
 10
72.413887
 20
40.771770
 30
0.0
 10
71.749525
 20
41.181695
 30
0.0
 10
71.014488
 20
41.181695
 30
0.0
  0
SPLINE
  5
129
100
AcDbEntity
  8
Layer_1
 62
7
100
AcDbSpline
 70
8
 71
3
 72
8
 73
4
 74
0
 40
0
 40
0
 40
0
 40
0
 40
1
 40
1
 40
1
 40
1
 10
71.014488
 20
41.181695
 30
0.0
 10
70.138101
 20
41.181695
 30
0.0
 10
69.346521
 20
40.616282
 30
0.0
 10
68.865919
 20
39.895382
 30
0.0
  0
LWPOLYLINE
  5
12a
100
AcDbEntity
  8
Layer_1
 62
7
100
AcDbPolyline
 90
4
 70
0
 10
71.961556
 20
38.467713
 30
0.0
 10
71.961556
 20
34.580500
 30
0.0
 10
72.965163
 20
34.580500
 30
0.0
 10
72.965163
 20
38.495983
 30
0.0
  0
SPLINE
  5
12b
100
AcDbEntity
  8
Layer_1
 62
7
100
AcDbSpline
 70
8
 71
3
 72
8
 73
4
 74
0
 40
0
 40
0
 40
0
 40
0
 40
1
 40
1
 40
1
 40
1
 10
80.386208
 20
39.966056
 30
0.0
 10
79.877339
 20
40.715229
 30
0.0
 10
79.015082
 20
41.167561
 30
0.0
 10
77.969068
 20
41.167561
 30
0.0
  0
SPLINE
  5
12c
100
AcDbEntity
  8
Layer_1
 62
7
100
AcDbSpline
 70
8
 71
3
 72
8
 73
4
 74
0
 40
0
 40
0
 40
0
 40
0
 40
1
 40
1
 40
1
 40
1
 10
77.969068
 20
41.167561
 30
0.0
 10
76.074936
 20
41.167561
 30
0.0
 10
74.732080
 20
39.739889
 30
0.0
 10
74.732080
 20
37.803353
 30
0.0
  0
SPLINE
  5
12d
100
AcDbEntity
  8
Layer_1
 62
7
100
AcDbSpline
 70
8
 71
3
 72
8
 73
4
 74
0
 40
0
 40
0
 40
0
 40
0
 40
1
 40
1
 40
1
 40
1
 10
74.732080
 20
37.803353
 30
0.0
 10
74.732080
 20
35.852681
 30
0.0
 10
76.074936
 20
34.410876
 30
0.0
 10
77.912527
 20
34.410876
 30
0.0
  0
SPLINE
  5
12e
100
AcDbEntity
  8
Layer_1
 62
7
100
AcDbSpline
 70
8
 71
3
 72
8
 73
4
 74
0
 40
0
 40
0
 40
0
 40
0
 40
1
 40
1
 40
1
 40
1
 10
77.912527
 20
34.410876
 30
0.0
 10
78.803051
 20
34.410876
 30
0.0
 10
79.679444
 20
34.778394
 30
0.0
 10
80.287261
 20
35.442754
 30
0.0
  0
LWPOLYLINE
  5
12f
100
AcDbEntity
  8
Layer_1
 62
7
100
AcDbPolyline
 90
4
 70
0
 10
68.865919
 20
39.895382
 30
0.0
 10
68.865919
 20
41.026207
 30
0.0
 10
67.834042
 20
41.026207
 30
0.0
 10
67.834042
 20
34.580500
 30
0.0
  0
SPLINE
  5
130
100
AcDbEntity
  8
Layer_1
 62
7
100
AcDbSpline
 70
8
 71
3
 72
8
 73
4
 74
0
 40
0
 40
0
 40
0
 40
0
 40
1
 40
1
 40
1
 40
1
 10
79.707712
 20
36.121250
 30
0.0
 10
79.269519
 20
35.626514
 30
0.0
 10
78.633427
 20
35.343806
 30
0.0
 10
77.997338
 20
35.343806
 30
0.0
  0
SPLINE
  5
131
100
AcDbEntity
  8
Layer_1
 62
7
100
AcDbSpline
 70
8
 71
3
 72
8
 73
4
 74
0
 40
0
 40
0
 40
0
 40
0
 40
1
 40
1
 40
1
 40
1
 10
77.997338
 20
35.343806
 30
0.0
 10
76.739296
 20
35.343806
 30
0.0
 10
75.778095
 20
36.389821
 30
0.0
 10
75.778095
 20
37.902301
 30
0.0
  0
SPLINE
  5
132
100
AcDbEntity
  8
Layer_1
 62
7
100
AcDbSpline
 70
8
 71
3
 72
8
 73
4
 74
0
 40
0
 40
0
 40
0
 40
0
 40
1
 40
1
 40
1
 40
1
 10
75.778095
 20
37.902301
 30
0.0
 10
75.778095
 20
39.372373
 30
0.0
 10
76.725162
 20
40.291171
 30
0.0
 10
77.912527
 20
40.291171
 30
0.0
  0
SPLINE
  5
133
100
AcDbEntity
  8
Layer_1
 62
7
100
AcDbSpline
 70
8
 71
3
 72
8
 73
4
 74
0
 40
0
 40
0
 40
0
 40
0
 40
1
 40
1
 40
1
 40
1
 10
77.912527
 20
40.291171
 30
0.0
 10
79.015082
 20
40.291171
 30
0.0
 10
79.538091
 20
39.527861
 30
0.0
 10
79.580494
 20
39.443050
 30
0.0
  0
SPLINE
  5
134
100
AcDbEntity
  8
Layer_1
 62
7
100
AcDbSpline
 70
8
 71
3
 72
8
 73
4
 74
0
 40
0
 40
0
 40
0
 40
0
 40
1
 40
1
 40
1
 40
1
 10
79.580494
 20
39.443050
 30
0.0
 10
79.637038
 20
39.344103
 30
0.0
 10
79.552224
 20
39.202749
 30
0.0
 10
79.665308
 20
39.117939
 30
0.0
  0
LWPOLYLINE
  5
135
100
AcDbEntity
  8
Layer_1
 62
7
100
AcDbPolyline
 90
2
 70
0
 10
80.287261
 20
35.442754
 30
0.0
 10
79.707712
 20
36.121250
 30
0.0
  0
LWPOLYLINE
  5
136
100
AcDbEntity
  8
Layer_1
 62
7
100
AcDbPolyline
 90
2
 70
0
 10
79.665308
 20
39.117939
 30
0.0
 10
80.386208
 20
39.966056
 30
0.0
  0
SPLINE
  5
137
100
AcDbEntity
  8
Layer_1
 62
7
100
AcDbSpline
 70
8
 71
3
 72
8
 73
4
 74
0
 40
0
 40
0
 40
0
 40
0
 40
1
 40
1
 40
1
 40
1
 10
83.495975
 20
40.192223
 30
0.0
 10
83.411164
 20
39.089669
 30
0.0
 10
83.368758
 20
37.987111
 30
0.0
 10
83.368758
 20
36.898693
 30
0.0
  0
SPLINE
  5
138
100
AcDbEntity
  8
Layer_1
 62
7
100
AcDbSpline
 70
8
 71
3
 72
8
 73
4
 74
0
 40
0
 40
0
 40
0
 40
0
 40
1
 40
1
 40
1
 40
1
 10
83.368758
 20
36.898693
 30
0.0
 10
83.368758
 20
36.319144
 30
0.0
 10
83.368758
 20
35.668918
 30
0.0
 10
83.750412
 20
35.131776
 30
0.0
  0
SPLINE
  5
139
100
AcDbEntity
  8
Layer_1
 62
7
100
AcDbSpline
 70
8
 71
3
 72
8
 73
4
 74
0
 40
0
 40
0
 40
0
 40
0
 40
1
 40
1
 40
1
 40
1
 10
83.750412
 20
35.131776
 30
0.0
 10
84.061387
 20
34.707717
 30
0.0
 10
84.556126
 20
34.453282
 30
0.0
 10
85.220485
 20
34.453282
 30
0.0
  0
SPLINE
  5
13a
100
AcDbEntity
  8
Layer_1
 62
7
100
AcDbSpline
 70
8
 71
3
 72
8
 73
4
 74
0
 40
0
 40
0
 40
0
 40
0
 40
1
 40
1
 40
1
 40
1
 10
85.220485
 20
34.453282
 30
0.0
 10
85.983792
 20
34.453282
 30
0.0
 10
86.732965
 20
34.778394
 30
0.0
 10
87.284244
 20
35.174182
 30
0.0
  0
LWPOLYLINE
  5
13b
100
AcDbEntity
  8
Layer_1
 62
7
100
AcDbPolyline
 90
5
 70
0
 10
83.665602
 20
42.764851
 30
0.0
 10
83.538385
 20
41.026207
 30
0.0
 10
81.997635
 20
41.026207
 30
0.0
 10
81.983495
 20
40.192223
 30
0.0
 10
83.495975
 20
40.192223
 30
0.0
  0
SPLINE
  5
13c
100
AcDbEntity
  8
Layer_1
 62
7
100
AcDbSpline
 70
8
 71
3
 72
8
 73
4
 74
0
 40
0
 40
0
 40
0
 40
0
 40
1
 40
1
 40
1
 40
1
 10
86.973266
 20
35.979896
 30
0.0
 10
86.421987
 20
35.569974
 30
0.0
 10
85.913115
 20
35.386213
 30
0.0
 10
85.517327
 20
35.386213
 30
0.0
  0
SPLINE
  5
13d
100
AcDbEntity
  8
Layer_1
 62
7
100
AcDbSpline
 70
8
 71
3
 72
8
 73
4
 74
0
 40
0
 40
0
 40
0
 40
0
 40
1
 40
1
 40
1
 40
1
 10
85.517327
 20
35.386213
 30
0.0
 10
85.036728
 20
35.386213
 30
0.0
 10
84.541989
 20
35.654784
 30
0.0
 10
84.428909
 20
36.432228
 30
0.0
  0
SPLINE
  5
13e
100
AcDbEntity
  8
Layer_1
 62
7
100
AcDbSpline
 70
8
 71
3
 72
8
 73
4
 74
0
 40
0
 40
0
 40
0
 40
0
 40
1
 40
1
 40
1
 40
1
 10
84.428909
 20
36.432228
 30
0.0
 10
84.428909
 20
36.488768
 30
0.0
 10
84.386502
 20
36.729069
 30
0.0
 10
84.386502
 20
37.676136
 30
0.0
  0
SPLINE
  5
13f
100
AcDbEntity
  8
Layer_1
 62
7
100
AcDbSpline
 70
8
 71
3
 72
8
 73
4
 74
0
 40
0
 40
0
 40
0
 40
0
 40
1
 40
1
 40
1
 40
1
 10
84.386502
 20
37.676136
 30
0.0
 10
84.386502
 20
38.510117
 30
0.0
 10
84.428909
 20
39.358240
 30
0.0
 10
84.513719
 20
40.192223
 30
0.0
  0
LWPOLYLINE
  5
140
100
AcDbEntity
  8
Layer_1
 62
7
100
AcDbPolyline
 90
2
 70
0
 10
87.284244
 20
35.174182
 30
0.0
 10
86.973266
 20
35.979896
 30
0.0
  0
SPLINE
  5
141
100
AcDbEntity
  8
Layer_1
 62
7
100
AcDbSpline
 70
8
 71
3
 72
8
 73
4
 74
0
 40
0
 40
0
 40
0
 40
0
 40
1
 40
1
 40
1
 40
1
 10
84.527856
 20
41.040341
 30
0.0
 10
84.527856
 20
41.040341
 30
0.0
 10
84.626803
 20
42.199439
 30
0.0
 10
84.697480
 20
42.566957
 30
0.0
  0
SPLINE
  5
142
100
AcDbEntity
  8
Layer_1
 62
7
100
AcDbSpline
 70
8
 71
3
 72
8
 73
4
 74
0
 40
0
 40
0
 40
0
 40
0
 40
1
 40
1
 40
1
 40
1
 10
84.697480
 20
42.566957
 30
0.0
 10
84.711619
 20
42.708311
 30
0.0
 10
84.824697
 20
42.793121
 30
0.0
 10
84.768157
 20
42.948612
 30
0.0
  0
LWPOLYLINE
  5
143
100
AcDbEntity
  8
Layer_1
 62
7
100
AcDbPolyline
 90
4
 70
0
 10
84.513719
 20
40.192223
 30
0.0
 10
86.634018
 20
40.192223
 30
0.0
 10
86.634018
 20
41.040341
 30
0.0
 10
84.527856
 20
41.040341
 30
0.0
  0
LWPOLYLINE
  5
144
100
AcDbEntity
  8
Layer_1
 62
7
100
AcDbPolyline
 90
2
 70
0
 10
84.768157
 20
42.948612
 30
0.0
 10
83.665599
 20
42.764851
 30
0.0
  0
SPLINE
  5
145
100
AcDbEntity
  8
Layer_1
 62
7
100
AcDbSpline
 70
8
 71
3
 72
8
 73
4
 74
0
 40
0
 40
0
 40
0
 40
0
 40
1
 40
1
 40
1
 40
1
 10
91.666195
 20
43.839136
 30
0.0
 10
91.256271
 20
43.839136
 30
0.0
 10
90.931159
 20
43.514024
 30
0.0
 10
90.931159
 20
43.118236
 30
0.0
  0
SPLINE
  5
146
100
AcDbEntity
  8
Layer_1
 62
7
100
AcDbSpline
 70
8
 71
3
 72
8
 73
4
 74
0
 40
0
 40
0
 40
0
 40
0
 40
1
 40
1
 40
1
 40
1
 10
90.931159
 20
43.118236
 30
0.0
 10
90.931159
 20
42.722444
 30
0.0
 10
91.256271
 20
42.397333
 30
0.0
 10
91.666195
 20
42.397333
 30
0.0
  0
SPLINE
  5
147
100
AcDbEntity
  8
Layer_1
 62
7
100
AcDbSpline
 70
8
 71
3
 72
8
 73
4
 74
0
 40
0
 40
0
 40
0
 40
0
 40
1
 40
1
 40
1
 40
1
 10
91.666195
 20
42.397333
 30
0.0
 10
92.076118
 20
42.397333
 30
0.0
 10
92.401232
 20
42.722444
 30
0.0
 10
92.401232
 20
43.118236
 30
0.0
  0
SPLINE
  5
148
100
AcDbEntity
  8
Layer_1
 62
7
100
AcDbSpline
 70
8
 71
3
 72
8
 73
4
 74
0
 40
0
 40
0
 40
0
 40
0
 40
1
 40
1
 40
1
 40
1
 10
92.401232
 20
43.118236
 30
0.0
 10
92.401232
 20
43.514024
 30
0.0
 10
92.076118
 20
43.839136
 30
0.0
 10
91.666195
 20
43.839136
 30
0.0
  0
SPLINE
  5
149
100
AcDbEntity
  8
Layer_1
 62
7
100
AcDbSpline
 70
8
 71
3
 72
8
 73
4
 74
0
 40
0
 40
0
 40
0
 40
0
 40
1
 40
1
 40
1
 40
1
 10
101.645734
 20
37.775083
 30
0.0
 10
101.645734
 20
40.008460
 30
0.0
 10
100.232202
 20
41.167561
 30
0.0
 10
98.762129
 20
41.167561
 30
0.0
  0
SPLINE
  5
14a
100
AcDbEntity
  8
Layer_1
 62
7
100
AcDbSpline
 70
8
 71
3
 72
8
 73
4
 74
0
 40
0
 40
0
 40
0
 40
0
 40
1
 40
1
 40
1
 40
1
 10
98.762129
 20
41.167561
 30
0.0
 10
97.122432
 20
41.167561
 30
0.0
 10
95.708899
 20
39.754025
 30
0.0
 10
95.708899
 20
37.746813
 30
0.0
  0
SPLINE
  5
14b
100
AcDbEntity
  8
Layer_1
 62
7
100
AcDbSpline
 70
8
 71
3
 72
8
 73
4
 74
0
 40
0
 40
0
 40
0
 40
0
 40
1
 40
1
 40
1
 40
1
 10
95.708899
 20
37.746813
 30
0.0
 10
95.708899
 20
35.782004
 30
0.0
 10
97.108298
 20
34.396739
 30
0.0
 10
98.733858
 20
34.396739
 30
0.0
  0
SPLINE
  5
14c
100
AcDbEntity
  8
Layer_1
 62
7
100
AcDbSpline
 70
8
 71
3
 72
8
 73
4
 74
0
 40
0
 40
0
 40
0
 40
0
 40
1
 40
1
 40
1
 40
1
 10
98.733858
 20
34.396739
 30
0.0
 10
100.260472
 20
34.396739
 30
0.0
 10
101.645734
 20
35.626514
 30
0.0
 10
101.645734
 20
37.775083
 30
0.0
  0
SPLINE
  5
14d
100
AcDbEntity
  8
Layer_1
 62
7
100
AcDbSpline
 70
8
 71
3
 72
8
 73
4
 74
0
 40
0
 40
0
 40
0
 40
0
 40
1
 40
1
 40
1
 40
1
 10
98.691452
 20
40.305304
 30
0.0
 10
99.624382
 20
40.305304
 30
0.0
 10
100.613856
 20
39.499591
 30
0.0
 10
100.613856
 20
37.732676
 30
0.0
  0
SPLINE
  5
14e
100
AcDbEntity
  8
Layer_1
 62
7
100
AcDbSpline
 70
8
 71
3
 72
8
 73
4
 74
0
 40
0
 40
0
 40
0
 40
0
 40
1
 40
1
 40
1
 40
1
 10
100.613856
 20
37.732676
 30
0.0
 10
100.613856
 20
36.107116
 30
0.0
 10
99.680923
 20
35.287266
 30
0.0
 10
98.747992
 20
35.287266
 30
0.0
  0
SPLINE
  5
14f
100
AcDbEntity
  8
Layer_1
 62
7
100
AcDbSpline
 70
8
 71
3
 72
8
 73
4
 74
0
 40
0
 40
0
 40
0
 40
0
 40
1
 40
1
 40
1
 40
1
 10
98.747992
 20
35.287266
 30
0.0
 10
97.716117
 20
35.287266
 30
0.0
 10
96.783184
 20
36.248470
 30
0.0
 10
96.783184
 20
37.845760
 30
0.0
  0
SPLINE
  5
150
100
AcDbEntity
  8
Layer_1
 62
7
100
AcDbSpline
 70
8
 71
3
 72
8
 73
4
 74
0
 40
0
 40
0
 40
0
 40
0
 40
1
 40
1
 40
1
 40
1
 10
96.783184
 20
37.845760
 30
0.0
 10
96.783184
 20
39.428914
 30
0.0
 10
97.701981
 20
40.305304
 30
0.0
 10
98.691452
 20
40.305304
 30
0.0
  0
LWPOLYLINE
  5
151
100
AcDbEntity
  8
Layer_1
 62
7
100
AcDbPolyline
 90
11
 70
0
 10
89.574167
 20
41.040341
 30
0.0
 10
89.574167
 20
40.206357
 30
0.0
 10
91.129053
 20
40.206357
 30
0.0
 10
91.129053
 20
35.386213
 30
0.0
 10
89.489356
 20
35.386213
 30
0.0
 10
89.489356
 20
34.580500
 30
0.0
 10
93.673411
 20
34.580500
 30
0.0
 10
93.673411
 20
35.386213
 30
0.0
 10
92.160931
 20
35.386213
 30
0.0
 10
92.160931
 20
41.040341
 30
0.0
 10
89.574167
 20
41.040341
 30
0.0
  0
SPLINE
  5
152
100
AcDbEntity
  8
Layer_1
 62
7
100
AcDbSpline
 70
8
 71
3
 72
8
 73
4
 74
0
 40
0
 40
0
 40
0
 40
0
 40
1
 40
1
 40
1
 40
1
 10
104.204228
 20
38.298089
 30
0.0
 10
104.204228
 20
38.722148
 30
0.0
 10
104.260769
 20
39.047262
 30
0.0
 10
104.529340
 20
39.400644
 30
0.0
  0
SPLINE
  5
153
100
AcDbEntity
  8
Layer_1
 62
7
100
AcDbSpline
 70
8
 71
3
 72
8
 73
4
 74
0
 40
0
 40
0
 40
0
 40
0
 40
1
 40
1
 40
1
 40
1
 10
104.529340
 20
39.400644
 30
0.0
 10
104.769641
 20
39.725755
 30
0.0
 10
105.391596
 20
40.305304
 30
0.0
 10
106.070090
 20
40.305304
 30
0.0
  0
SPLINE
  5
154
100
AcDbEntity
  8
Layer_1
 62
7
100
AcDbSpline
 70
8
 71
3
 72
8
 73
4
 74
0
 40
0
 40
0
 40
0
 40
0
 40
1
 40
1
 40
1
 40
1
 10
106.070090
 20
40.305304
 30
0.0
 10
106.395201
 20
40.305304
 30
0.0
 10
106.720315
 20
40.163950
 30
0.0
 10
106.946480
 20
39.895382
 30
0.0
  0
SPLINE
  5
155
100
AcDbEntity
  8
Layer_1
 62
7
100
AcDbSpline
 70
8
 71
3
 72
8
 73
4
 74
0
 40
0
 40
0
 40
0
 40
0
 40
1
 40
1
 40
1
 40
1
 10
106.946480
 20
39.895382
 30
0.0
 10
107.299862
 20
39.471321
 30
0.0
 10
107.299862
 20
38.920042
 30
0.0
 10
107.299862
 20
38.467713
 30
0.0
  0
LWPOLYLINE
  5
156
100
AcDbEntity
  8
Layer_1
 62
7
100
AcDbPolyline
 90
3
 70
0
 10
103.172347
 20
34.580500
 30
0.0
 10
104.204228
 20
34.580500
 30
0.0
 10
104.204228
 20
38.298089
 30
0.0
  0
SPLINE
  5
157
100
AcDbEntity
  8
Layer_1
 62
7
100
AcDbSpline
 70
8
 71
3
 72
8
 73
4
 74
0
 40
0
 40
0
 40
0
 40
0
 40
1
 40
1
 40
1
 40
1
 10
108.303472
 20
38.495983
 30
0.0
 10
108.303472
 20
38.990719
 30
0.0
 10
108.303469
 20
39.527864
 30
0.0
 10
108.077305
 20
40.050870
 30
0.0
  0
SPLINE
  5
158
100
AcDbEntity
  8
Layer_1
 62
7
100
AcDbSpline
 70
8
 71
3
 72
8
 73
4
 74
0
 40
0
 40
0
 40
0
 40
0
 40
1
 40
1
 40
1
 40
1
 10
108.077305
 20
40.050870
 30
0.0
 10
107.752193
 20
40.771770
 30
0.0
 10
107.087831
 20
41.181695
 30
0.0
 10
106.352797
 20
41.181695
 30
0.0
  0
SPLINE
  5
159
100
AcDbEntity
  8
Layer_1
 62
7
100
AcDbSpline
 70
8
 71
3
 72
8
 73
4
 74
0
 40
0
 40
0
 40
0
 40
0
 40
1
 40
1
 40
1
 40
1
 10
106.352797
 20
41.181695
 30
0.0
 10
105.476407
 20
41.181695
 30
0.0
 10
104.684827
 20
40.616282
 30
0.0
 10
104.204228
 20
39.895382
 30
0.0
  0
LWPOLYLINE
  5
15a
100
AcDbEntity
  8
Layer_1
 62
7
100
AcDbPolyline
 90
4
 70
0
 10
107.299862
 20
38.467713
 30
0.0
 10
107.299862
 20
34.580500
 30
0.0
 10
108.303472
 20
34.580500
 30
0.0
 10
108.303472
 20
38.495983
 30
0.0
  0
LWPOLYLINE
  5
15b
100
AcDbEntity
  8
Layer_1
 62
7
100
AcDbPolyline
 90
4
 70
0
 10
104.204228
 20
39.895382
 30
0.0
 10
104.204228
 20
41.026207
 30
0.0
 10
103.172347
 20
41.026207
 30
0.0
 10
103.172347
 20
34.580500
 30
0.0
  0
SPLINE
  5
15c
100
AcDbEntity
  8
Layer_1
 62
7
100
AcDbSpline
 70
8
 71
3
 72
8
 73
4
 74
0
 40
0
 40
0
 40
0
 40
0
 40
1
 40
1
 40
1
 40
1
 10
111.045724
 20
39.626811
 30
0.0
 10
111.582863
 20
40.178087
 30
0.0
 10
112.303766
 20
40.347711
 30
0.0
 10
112.911585
 20
40.347711
 30
0.0
  0
SPLINE
  5
15d
100
AcDbEntity
  8
Layer_1
 62
7
100
AcDbSpline
 70
8
 71
3
 72
8
 73
4
 74
0
 40
0
 40
0
 40
0
 40
0
 40
1
 40
1
 40
1
 40
1
 10
112.911585
 20
40.347711
 30
0.0
 10
113.674892
 20
40.347711
 30
0.0
 10
114.056547
 20
40.022599
 30
0.0
 10
114.240304
 20
39.725758
 30
0.0
  0
SPLINE
  5
15e
100
AcDbEntity
  8
Layer_1
 62
7
100
AcDbSpline
 70
8
 71
3
 72
8
 73
4
 74
0
 40
0
 40
0
 40
0
 40
0
 40
1
 40
1
 40
1
 40
1
 10
114.240304
 20
39.725758
 30
0.0
 10
114.452335
 20
39.372373
 30
0.0
 10
114.438201
 20
38.948315
 30
0.0
 10
114.438201
 20
38.609067
 30
0.0
  0
LWPOLYLINE
  5
15f
100
AcDbEntity
  8
Layer_1
 62
7
100
AcDbPolyline
 90
2
 70
0
 10
110.550985
 20
40.277034
 30
0.0
 10
111.045724
 20
39.626811
 30
0.0
  0
SPLINE
  5
160
100
AcDbEntity
  8
Layer_1
 62
7
100
AcDbSpline
 70
8
 71
3
 72
8
 73
4
 74
0
 40
0
 40
0
 40
0
 40
0
 40
1
 40
1
 40
1
 40
1
 10
114.240304
 20
38.382902
 30
0.0
 10
113.279103
 20
38.382902
 30
0.0
 10
112.261359
 20
38.382900
 30
0.0
 10
111.441512
 20
38.086058
 30
0.0
  0
SPLINE
  5
161
100
AcDbEntity
  8
Layer_1
 62
7
100
AcDbSpline
 70
8
 71
3
 72
8
 73
4
 74
0
 40
0
 40
0
 40
0
 40
0
 40
1
 40
1
 40
1
 40
1
 10
111.441512
 20
38.086058
 30
0.0
 10
110.423771
 20
37.718543
 30
0.0
 10
109.971439
 20
36.955233
 30
0.0
 10
109.971439
 20
36.248467
 30
0.0
  0
SPLINE
  5
162
100
AcDbEntity
  8
Layer_1
 62
7
100
AcDbSpline
 70
8
 71
3
 72
8
 73
4
 74
0
 40
0
 40
0
 40
0
 40
0
 40
1
 40
1
 40
1
 40
1
 10
109.971439
 20
36.248467
 30
0.0
 10
109.971439
 20
35.301403
 30
0.0
 10
110.791289
 20
34.410876
 30
0.0
 10
112.134142
 20
34.410876
 30
0.0
  0
SPLINE
  5
163
100
AcDbEntity
  8
Layer_1
 62
7
100
AcDbSpline
 70
8
 71
3
 72
8
 73
4
 74
0
 40
0
 40
0
 40
0
 40
0
 40
1
 40
1
 40
1
 40
1
 10
112.134142
 20
34.410876
 30
0.0
 10
112.925719
 20
34.410876
 30
0.0
 10
113.745569
 20
34.707717
 30
0.0
 10
114.452335
 20
35.287266
 30
0.0
  0
LWPOLYLINE
  5
164
100
AcDbEntity
  8
Layer_1
 62
7
100
AcDbPolyline
 90
3
 70
0
 10
114.438201
 20
38.609067
 30
0.0
 10
114.438201
 20
38.382902
 30
0.0
 10
114.240304
 20
38.382902
 30
0.0
  0
SPLINE
  5
165
100
AcDbEntity
  8
Layer_1
 62
7
100
AcDbSpline
 70
8
 71
3
 72
8
 73
4
 74
0
 40
0
 40
0
 40
0
 40
0
 40
1
 40
1
 40
1
 40
1
 10
115.413539
 20
38.580797
 30
0.0
 10
115.413539
 20
39.103802
 30
0.0
 10
115.399399
 20
39.598541
 30
0.0
 10
115.102561
 20
40.107410
 30
0.0
  0
SPLINE
  5
166
100
AcDbEntity
  8
Layer_1
 62
7
100
AcDbSpline
 70
8
 71
3
 72
8
 73
4
 74
0
 40
0
 40
0
 40
0
 40
0
 40
1
 40
1
 40
1
 40
1
 10
115.102561
 20
40.107410
 30
0.0
 10
114.678502
 20
40.800040
 30
0.0
 10
113.858650
 20
41.167561
 30
0.0
 10
112.855045
 20
41.167561
 30
0.0
  0
SPLINE
  5
167
100
AcDbEntity
  8
Layer_1
 62
7
100
AcDbSpline
 70
8
 71
3
 72
8
 73
4
 74
0
 40
0
 40
0
 40
0
 40
0
 40
1
 40
1
 40
1
 40
1
 10
112.855045
 20
41.167561
 30
0.0
 10
111.992791
 20
41.167561
 30
0.0
 10
111.158805
 20
40.898987
 30
0.0
 10
110.550985
 20
40.277034
 30
0.0
  0
LWPOLYLINE
  5
168
100
AcDbEntity
  8
Layer_1
 62
7
100
AcDbPolyline
 90
4
 70
0
 10
114.452335
 20
35.287266
 30
0.0
 10
114.452335
 20
34.580500
 30
0.0
 10
115.413539
 20
34.580500
 30
0.0
 10
115.413539
 20
38.580797
 30
0.0
  0
SPLINE
  5
169
100
AcDbEntity
  8
Layer_1
 62
7
100
AcDbSpline
 70
8
 71
3
 72
8
 73
4
 74
0
 40
0
 40
0
 40
0
 40
0
 40
1
 40
1
 40
1
 40
1
 10
114.480605
 20
37.167264
 30
0.0
 10
114.480605
 20
36.842152
 30
0.0
 10
114.480605
 20
36.418091
 30
0.0
 10
114.042410
 20
35.951626
 30
0.0
  0
SPLINE
  5
16a
100
AcDbEntity
  8
Layer_1
 62
7
100
AcDbSpline
 70
8
 71
3
 72
8
 73
4
 74
0
 40
0
 40
0
 40
0
 40
0
 40
1
 40
1
 40
1
 40
1
 10
114.042410
 20
35.951626
 30
0.0
 10
113.802112
 20
35.711325
 30
0.0
 10
113.194290
 20
35.188319
 30
0.0
 10
112.346173
 20
35.188319
 30
0.0
  0
SPLINE
  5
16b
100
AcDbEntity
  8
Layer_1
 62
7
100
AcDbSpline
 70
8
 71
3
 72
8
 73
4
 74
0
 40
0
 40
0
 40
0
 40
0
 40
1
 40
1
 40
1
 40
1
 10
112.346173
 20
35.188319
 30
0.0
 10
111.483919
 20
35.188319
 30
0.0
 10
110.989181
 20
35.739598
 30
0.0
 10
110.989181
 20
36.305007
 30
0.0
  0
SPLINE
  5
16c
100
AcDbEntity
  8
Layer_1
 62
7
100
AcDbSpline
 70
8
 71
3
 72
8
 73
4
 74
0
 40
0
 40
0
 40
0
 40
0
 40
1
 40
1
 40
1
 40
1
 10
110.989181
 20
36.305007
 30
0.0
 10
110.989181
 20
36.785609
 30
0.0
 10
111.314295
 20
37.308618
 30
0.0
 10
112.120008
 20
37.506512
 30
0.0
  0
SPLINE
  5
16d
100
AcDbEntity
  8
Layer_1
 62
7
100
AcDbSpline
 70
8
 71
3
 72
8
 73
4
 74
0
 40
0
 40
0
 40
0
 40
0
 40
1
 40
1
 40
1
 40
1
 10
112.120008
 20
37.506512
 30
0.0
 10
112.713691
 20
37.647863
 30
0.0
 10
113.575945
 20
37.605459
 30
0.0
 10
114.254441
 20
37.605459
 30
0.0
  0
LWPOLYLINE
  5
16e
100
AcDbEntity
  8
Layer_1
 62
7
100
AcDbPolyline
 90
2
 70
0
 10
114.480605
 20
37.605459
 30
0.0
 10
114.480605
 20
37.167264
 30
0.0
  0
LWPOLYLINE
  5
16f
100
AcDbEntity
  8
Layer_1
 62
7
100
AcDbPolyline
 90
2
 70
0
 10
114.254441
 20
37.605459
 30
0.0
 10
114.480605
 20
37.605459
 30
0.0
  0
LWPOLYLINE
  5
170
100
AcDbEntity
  8
Layer_1
 62
7
100
AcDbPolyline
 90
11
 70
0
 10
117.533835
 20
43.966353
 30
0.0
 10
117.533835
 20
43.146506
 30
0.0
 10
119.371426
 20
43.146506
 30
0.0
 10
119.371426
 20
35.386213
 30
0.0
 10
117.449024
 20
35.386213
 30
0.0
 10
117.449024
 20
34.580500
 30
0.0
 10
122.297438
 20
34.580500
 30
0.0
 10
122.297438
 20
35.386213
 30
0.0
 10
120.389170
 20
35.386213
 30
0.0
 10
120.389170
 20
43.966353
 30
0.0
 10
117.533835
 20
43.966353
 30
0.0
  0
SPLINE
  5
171
100
AcDbEntity
  8
Layer_1
 62
7
100
AcDbSpline
 70
8
 71
3
 72
8
 73
4
 74
0
 40
0
 40
0
 40
0
 40
0
 40
1
 40
1
 40
1
 40
1
 10
56.531931
 20
24.023893
 30
0.0
 10
57.083209
 20
24.023893
 30
0.0
 10
57.606218
 20
24.038032
 30
0.0
 10
58.143357
 20
24.306598
 30
0.0
  0
SPLINE
  5
172
100
AcDbEntity
  8
Layer_1
 62
7
100
AcDbSpline
 70
8
 71
3
 72
8
 73
4
 74
0
 40
0
 40
0
 40
0
 40
0
 40
1
 40
1
 40
1
 40
1
 10
58.143357
 20
24.306598
 30
0.0
 10
58.963207
 20
24.716523
 30
0.0
 10
59.387266
 20
25.564643
 30
0.0
 10
59.387266
 20
26.455167
 30
0.0
  0
SPLINE
  5
173
100
AcDbEntity
  8
Layer_1
 62
7
100
AcDbSpline
 70
8
 71
3
 72
8
 73
4
 74
0
 40
0
 40
0
 40
0
 40
0
 40
1
 40
1
 40
1
 40
1
 10
59.387266
 20
26.455167
 30
0.0
 10
59.387266
 20
27.345691
 30
0.0
 10
58.963207
 20
28.207947
 30
0.0
 10
58.129224
 20
28.632006
 30
0.0
  0
SPLINE
  5
174
100
AcDbEntity
  8
Layer_1
 62
7
100
AcDbSpline
 70
8
 71
3
 72
8
 73
4
 74
0
 40
0
 40
0
 40
0
 40
0
 40
1
 40
1
 40
1
 40
1
 10
58.129224
 20
28.632006
 30
0.0
 10
57.577945
 20
28.928847
 30
0.0
 10
57.026666
 20
28.942984
 30
0.0
 10
56.461254
 20
28.942984
 30
0.0
  0
LWPOLYLINE
  5
175
100
AcDbEntity
  8
Layer_1
 62
7
100
AcDbPolyline
 90
5
 70
0
 10
53.775542
 20
28.942984
 30
0.0
 10
53.775542
 20
20.136677
 30
0.0
 10
54.807423
 20
20.136677
 30
0.0
 10
54.807423
 20
24.023893
 30
0.0
 10
56.531931
 20
24.023893
 30
0.0
  0
LWPOLYLINE
  5
176
100
AcDbEntity
  8
Layer_1
 62
7
100
AcDbPolyline
 90
2
 70
0
 10
56.461254
 20
28.942984
 30
0.0
 10
53.775542
 20
28.942984
 30
0.0
  0
SPLINE
  5
177
100
AcDbEntity
  8
Layer_1
 62
7
100
AcDbSpline
 70
8
 71
3
 72
8
 73
4
 74
0
 40
0
 40
0
 40
0
 40
0
 40
1
 40
1
 40
1
 40
1
 10
56.461254
 20
28.010053
 30
0.0
 10
56.828772
 20
28.010053
 30
0.0
 10
57.182156
 20
27.995914
 30
0.0
 10
57.549675
 20
27.826293
 30
0.0
  0
SPLINE
  5
178
100
AcDbEntity
  8
Layer_1
 62
7
100
AcDbSpline
 70
8
 71
3
 72
8
 73
4
 74
0
 40
0
 40
0
 40
0
 40
0
 40
1
 40
1
 40
1
 40
1
 10
57.549675
 20
27.826293
 30
0.0
 10
58.086817
 20
27.543588
 30
0.0
 10
58.383658
 20
26.978173
 30
0.0
 10
58.383658
 20
26.412760
 30
0.0
  0
SPLINE
  5
179
100
AcDbEntity
  8
Layer_1
 62
7
100
AcDbSpline
 70
8
 71
3
 72
8
 73
4
 74
0
 40
0
 40
0
 40
0
 40
0
 40
1
 40
1
 40
1
 40
1
 10
58.383658
 20
26.412760
 30
0.0
 10
58.383658
 20
25.847350
 30
0.0
 10
58.100951
 20
25.324342
 30
0.0
 10
57.592081
 20
25.069904
 30
0.0
  0
SPLINE
  5
17a
100
AcDbEntity
  8
Layer_1
 62
7
100
AcDbSpline
 70
8
 71
3
 72
8
 73
4
 74
0
 40
0
 40
0
 40
0
 40
0
 40
1
 40
1
 40
1
 40
1
 10
57.592081
 20
25.069904
 30
0.0
 10
57.252833
 20
24.900283
 30
0.0
 10
56.913585
 20
24.886147
 30
0.0
 10
56.574337
 20
24.886147
 30
0.0
  0
LWPOLYLINE
  5
17b
100
AcDbEntity
  8
Layer_1
 62
7
100
AcDbPolyline
 90
2
 70
0
 10
54.807423
 20
28.010053
 30
0.0
 10
56.461254
 20
28.010053
 30
0.0
  0
LWPOLYLINE
  5
17c
100
AcDbEntity
  8
Layer_1
 62
7
100
AcDbPolyline
 90
3
 70
0
 10
56.574337
 20
24.886147
 30
0.0
 10
54.793286
 20
24.886147
 30
0.0
 10
54.807426
 20
28.010053
 30
0.0
  0
SPLINE
  5
17d
100
AcDbEntity
  8
Layer_1
 62
7
100
AcDbSpline
 70
8
 71
3
 72
8
 73
4
 74
0
 40
0
 40
0
 40
0
 40
0
 40
1
 40
1
 40
1
 40
1
 10
62.440495
 20
23.260583
 30
0.0
 10
62.440495
 20
23.656372
 30
0.0
 10
62.454635
 20
24.080433
 30
0.0
 10
62.892827
 20
24.773063
 30
0.0
  0
SPLINE
  5
17e
100
AcDbEntity
  8
Layer_1
 62
7
100
AcDbSpline
 70
8
 71
3
 72
8
 73
4
 74
0
 40
0
 40
0
 40
0
 40
0
 40
1
 40
1
 40
1
 40
1
 10
62.892827
 20
24.773063
 30
0.0
 10
63.486510
 20
25.705994
 30
0.0
 10
64.249819
 20
25.861484
 30
0.0
 10
64.716285
 20
25.861484
 30
0.0
  0
SPLINE
  5
17f
100
AcDbEntity
  8
Layer_1
 62
7
100
AcDbSpline
 70
8
 71
3
 72
8
 73
4
 74
0
 40
0
 40
0
 40
0
 40
0
 40
1
 40
1
 40
1
 40
1
 10
64.716285
 20
25.861484
 30
0.0
 10
65.253424
 20
25.861484
 30
0.0
 10
65.592672
 20
25.607047
 30
0.0
 10
65.776433
 20
25.380882
 30
0.0
  0
SPLINE
  5
180
100
AcDbEntity
  8
Layer_1
 62
7
100
AcDbSpline
 70
8
 71
3
 72
8
 73
4
 74
0
 40
0
 40
0
 40
0
 40
0
 40
1
 40
1
 40
1
 40
1
 10
65.776433
 20
25.380882
 30
0.0
 10
65.861243
 20
25.267801
 30
0.0
 10
65.903650
 20
25.154718
 30
0.0
 10
66.016734
 20
25.055771
 30
0.0
  0
LWPOLYLINE
  5
181
100
AcDbEntity
  8
Layer_1
 62
7
100
AcDbPolyline
 90
4
 70
0
 10
61.422754
 20
26.582384
 30
0.0
 10
61.422754
 20
20.122543
 30
0.0
 10
62.440495
 20
20.122543
 30
0.0
 10
62.440495
 20
23.260583
 30
0.0
  0
SPLINE
  5
182
100
AcDbEntity
  8
Layer_1
 62
7
100
AcDbSpline
 70
8
 71
3
 72
8
 73
4
 74
0
 40
0
 40
0
 40
0
 40
0
 40
1
 40
1
 40
1
 40
1
 10
66.497333
 20
26.031108
 30
0.0
 10
66.087411
 20
26.455167
 30
0.0
 10
65.493725
 20
26.737874
 30
0.0
 10
64.772825
 20
26.737874
 30
0.0
  0
SPLINE
  5
183
100
AcDbEntity
  8
Layer_1
 62
7
100
AcDbSpline
 70
8
 71
3
 72
8
 73
4
 74
0
 40
0
 40
0
 40
0
 40
0
 40
1
 40
1
 40
1
 40
1
 10
64.772825
 20
26.737874
 30
0.0
 10
63.825758
 20
26.737874
 30
0.0
 10
62.864557
 20
26.257273
 30
0.0
 10
62.440495
 20
25.338476
 30
0.0
  0
LWPOLYLINE
  5
184
100
AcDbEntity
  8
Layer_1
 62
7
100
AcDbPolyline
 90
2
 70
0
 10
66.016734
 20
25.055771
 30
0.0
 10
66.497333
 20
26.031108
 30
0.0
  0
SPLINE
  5
185
100
AcDbEntity
  8
Layer_1
 62
7
100
AcDbSpline
 70
8
 71
3
 72
8
 73
4
 74
0
 40
0
 40
0
 40
0
 40
0
 40
1
 40
1
 40
1
 40
1
 10
73.593266
 20
23.331260
 30
0.0
 10
73.593266
 20
25.564640
 30
0.0
 10
72.179733
 20
26.723738
 30
0.0
 10
70.709660
 20
26.723738
 30
0.0
  0
SPLINE
  5
186
100
AcDbEntity
  8
Layer_1
 62
7
100
AcDbSpline
 70
8
 71
3
 72
8
 73
4
 74
0
 40
0
 40
0
 40
0
 40
0
 40
1
 40
1
 40
1
 40
1
 10
70.709660
 20
26.723738
 30
0.0
 10
69.069963
 20
26.723738
 30
0.0
 10
67.656431
 20
25.310205
 30
0.0
 10
67.656431
 20
23.302990
 30
0.0
  0
SPLINE
  5
187
100
AcDbEntity
  8
Layer_1
 62
7
100
AcDbSpline
 70
8
 71
3
 72
8
 73
4
 74
0
 40
0
 40
0
 40
0
 40
0
 40
1
 40
1
 40
1
 40
1
 10
67.656431
 20
23.302990
 30
0.0
 10
67.656431
 20
21.338182
 30
0.0
 10
69.055829
 20
19.952919
 30
0.0
 10
70.681390
 20
19.952919
 30
0.0
  0
SPLINE
  5
188
100
AcDbEntity
  8
Layer_1
 62
7
100
AcDbSpline
 70
8
 71
3
 72
8
 73
4
 74
0
 40
0
 40
0
 40
0
 40
0
 40
1
 40
1
 40
1
 40
1
 10
70.681390
 20
19.952919
 30
0.0
 10
72.208003
 20
19.952919
 30
0.0
 10
73.593266
 20
21.182694
 30
0.0
 10
73.593266
 20
23.331260
 30
0.0
  0
SPLINE
  5
189
100
AcDbEntity
  8
Layer_1
 62
7
100
AcDbSpline
 70
8
 71
3
 72
8
 73
4
 74
0
 40
0
 40
0
 40
0
 40
0
 40
1
 40
1
 40
1
 40
1
 10
70.638983
 20
25.861484
 30
0.0
 10
71.571914
 20
25.861484
 30
0.0
 10
72.561388
 20
25.055768
 30
0.0
 10
72.561388
 20
23.288856
 30
0.0
  0
SPLINE
  5
18a
100
AcDbEntity
  8
Layer_1
 62
7
100
AcDbSpline
 70
8
 71
3
 72
8
 73
4
 74
0
 40
0
 40
0
 40
0
 40
0
 40
1
 40
1
 40
1
 40
1
 10
72.561388
 20
23.288856
 30
0.0
 10
72.561388
 20
21.663296
 30
0.0
 10
71.628454
 20
20.843443
 30
0.0
 10
70.695524
 20
20.843443
 30
0.0
  0
SPLINE
  5
18b
100
AcDbEntity
  8
Layer_1
 62
7
100
AcDbSpline
 70
8
 71
3
 72
8
 73
4
 74
0
 40
0
 40
0
 40
0
 40
0
 40
1
 40
1
 40
1
 40
1
 10
70.695524
 20
20.843443
 30
0.0
 10
69.663649
 20
20.843443
 30
0.0
 10
68.730715
 20
21.804647
 30
0.0
 10
68.730715
 20
23.401937
 30
0.0
  0
SPLINE
  5
18c
100
AcDbEntity
  8
Layer_1
 62
7
100
AcDbSpline
 70
8
 71
3
 72
8
 73
4
 74
0
 40
0
 40
0
 40
0
 40
0
 40
1
 40
1
 40
1
 40
1
 10
68.730715
 20
23.401937
 30
0.0
 10
68.730715
 20
24.985091
 30
0.0
 10
69.649512
 20
25.861484
 30
0.0
 10
70.638983
 20
25.861484
 30
0.0
  0
SPLINE
  5
18d
100
AcDbEntity
  8
Layer_1
 62
7
100
AcDbSpline
 70
8
 71
3
 72
8
 73
4
 74
0
 40
0
 40
0
 40
0
 40
0
 40
1
 40
1
 40
1
 40
1
 10
75.925595
 20
24.575169
 30
0.0
 10
75.925595
 20
25.352612
 30
0.0
 10
76.575821
 20
25.988701
 30
0.0
 10
77.353262
 20
25.988701
 30
0.0
  0
SPLINE
  5
18e
100
AcDbEntity
  8
Layer_1
 62
7
100
AcDbSpline
 70
8
 71
3
 72
8
 73
4
 74
0
 40
0
 40
0
 40
0
 40
0
 40
1
 40
1
 40
1
 40
1
 10
77.353262
 20
25.988701
 30
0.0
 10
78.144838
 20
25.988701
 30
0.0
 10
78.780931
 20
25.352612
 30
0.0
 10
78.780931
 20
24.575169
 30
0.0
  0
SPLINE
  5
18f
100
AcDbEntity
  8
Layer_1
 62
7
100
AcDbSpline
 70
8
 71
3
 72
8
 73
4
 74
0
 40
0
 40
0
 40
0
 40
0
 40
1
 40
1
 40
1
 40
1
 10
78.780931
 20
24.575169
 30
0.0
 10
78.780931
 20
23.797728
 30
0.0
 10
78.144838
 20
23.161636
 30
0.0
 10
77.353262
 20
23.161636
 30
0.0
  0
SPLINE
  5
190
100
AcDbEntity
  8
Layer_1
 62
7
100
AcDbSpline
 70
8
 71
3
 72
8
 73
4
 74
0
 40
0
 40
0
 40
0
 40
0
 40
1
 40
1
 40
1
 40
1
 10
77.353262
 20
23.161636
 30
0.0
 10
76.561685
 20
23.161636
 30
0.0
 10
75.925595
 20
23.797728
 30
0.0
 10
75.925595
 20
24.575169
 30
0.0
  0
SPLINE
  5
191
100
AcDbEntity
  8
Layer_1
 62
7
100
AcDbSpline
 70
8
 71
3
 72
8
 73
4
 74
0
 40
0
 40
0
 40
0
 40
0
 40
1
 40
1
 40
1
 40
1
 10
77.409805
 20
26.794415
 30
0.0
 10
76.123490
 20
26.794415
 30
0.0
 10
75.006798
 20
25.776671
 30
0.0
 10
75.006798
 20
24.518628
 30
0.0
  0
SPLINE
  5
192
100
AcDbEntity
  8
Layer_1
 62
7
100
AcDbSpline
 70
8
 71
3
 72
8
 73
4
 74
0
 40
0
 40
0
 40
0
 40
0
 40
1
 40
1
 40
1
 40
1
 10
75.006798
 20
24.518628
 30
0.0
 10
75.006798
 20
23.811862
 30
0.0
 10
75.360183
 20
23.147503
 30
0.0
 10
75.953866
 20
22.765848
 30
0.0
  0
SPLINE
  5
193
100
AcDbEntity
  8
Layer_1
 62
7
100
AcDbSpline
 70
8
 71
3
 72
8
 73
4
 74
0
 40
0
 40
0
 40
0
 40
0
 40
1
 40
1
 40
1
 40
1
 10
75.953866
 20
22.765848
 30
0.0
 10
75.487400
 20
22.370059
 30
0.0
 10
75.218829
 20
21.931864
 30
0.0
 10
75.218829
 20
21.521939
 30
0.0
  0
SPLINE
  5
194
100
AcDbEntity
  8
Layer_1
 62
7
100
AcDbSpline
 70
8
 71
3
 72
8
 73
4
 74
0
 40
0
 40
0
 40
0
 40
0
 40
1
 40
1
 40
1
 40
1
 10
75.218829
 20
21.521939
 30
0.0
 10
75.218829
 20
21.253368
 30
0.0
 10
75.331913
 20
20.871713
 30
0.0
 10
75.741835
 20
20.659685
 30
0.0
  0
SPLINE
  5
195
100
AcDbEntity
  8
Layer_1
 62
7
100
AcDbSpline
 70
8
 71
3
 72
8
 73
4
 74
0
 40
0
 40
0
 40
0
 40
0
 40
1
 40
1
 40
1
 40
1
 10
75.741835
 20
20.659685
 30
0.0
 10
75.049205
 20
20.221490
 30
0.0
 10
74.695820
 20
19.740888
 30
0.0
 10
74.695820
 20
19.232016
 30
0.0
  0
SPLINE
  5
196
100
AcDbEntity
  8
Layer_1
 62
7
100
AcDbSpline
 70
8
 71
3
 72
8
 73
4
 74
0
 40
0
 40
0
 40
0
 40
0
 40
1
 40
1
 40
1
 40
1
 10
74.695820
 20
19.232016
 30
0.0
 10
74.695820
 20
18.525253
 30
0.0
 10
75.346049
 20
17.691267
 30
0.0
 10
77.607699
 20
17.691267
 30
0.0
  0
SPLINE
  5
197
100
AcDbEntity
  8
Layer_1
 62
7
100
AcDbSpline
 70
8
 71
3
 72
8
 73
4
 74
0
 40
0
 40
0
 40
0
 40
0
 40
1
 40
1
 40
1
 40
1
 10
77.607699
 20
17.691267
 30
0.0
 10
79.798672
 20
17.691267
 30
0.0
 10
80.590252
 20
18.807958
 30
0.0
 10
80.590252
 20
19.670212
 30
0.0
  0
SPLINE
  5
198
100
AcDbEntity
  8
Layer_1
 62
7
100
AcDbSpline
 70
8
 71
3
 72
8
 73
4
 74
0
 40
0
 40
0
 40
0
 40
0
 40
1
 40
1
 40
1
 40
1
 10
80.590252
 20
19.670212
 30
0.0
 10
80.590252
 20
20.235624
 30
0.0
 10
80.265137
 20
20.801039
 30
0.0
 10
79.586644
 20
21.069610
 30
0.0
  0
SPLINE
  5
199
100
AcDbEntity
  8
Layer_1
 62
7
100
AcDbSpline
 70
8
 71
3
 72
8
 73
4
 74
0
 40
0
 40
0
 40
0
 40
0
 40
1
 40
1
 40
1
 40
1
 10
79.586644
 20
21.069610
 30
0.0
 10
78.908148
 20
21.352315
 30
0.0
 10
78.130705
 20
21.253368
 30
0.0
 10
77.395668
 20
21.253368
 30
0.0
  0
SPLINE
  5
19a
100
AcDbEntity
  8
Layer_1
 62
7
100
AcDbSpline
 70
8
 71
3
 72
8
 73
4
 74
0
 40
0
 40
0
 40
0
 40
0
 40
1
 40
1
 40
1
 40
1
 10
77.395668
 20
21.253368
 30
0.0
 10
76.915066
 20
21.253368
 30
0.0
 10
76.604091
 20
21.295775
 30
0.0
 10
76.476871
 20
21.338182
 30
0.0
  0
SPLINE
  5
19b
100
AcDbEntity
  8
Layer_1
 62
7
100
AcDbSpline
 70
8
 71
3
 72
8
 73
4
 74
0
 40
0
 40
0
 40
0
 40
0
 40
1
 40
1
 40
1
 40
1
 10
76.476871
 20
21.338182
 30
0.0
 10
76.222437
 20
21.408858
 30
0.0
 10
76.081083
 20
21.564346
 30
0.0
 10
76.081083
 20
21.762240
 30
0.0
  0
SPLINE
  5
19c
100
AcDbEntity
  8
Layer_1
 62
7
100
AcDbSpline
 70
8
 71
3
 72
8
 73
4
 74
0
 40
0
 40
0
 40
0
 40
0
 40
1
 40
1
 40
1
 40
1
 10
76.081083
 20
21.762240
 30
0.0
 10
76.081083
 20
22.101488
 30
0.0
 10
76.476871
 20
22.426600
 30
0.0
 10
76.547548
 20
22.483143
 30
0.0
  0
SPLINE
  5
19d
100
AcDbEntity
  8
Layer_1
 62
7
100
AcDbSpline
 70
8
 71
3
 72
8
 73
4
 74
0
 40
0
 40
0
 40
0
 40
0
 40
1
 40
1
 40
1
 40
1
 10
76.547548
 20
22.483143
 30
0.0
 10
76.801986
 20
22.384196
 30
0.0
 10
77.084690
 20
22.341789
 30
0.0
 10
77.367398
 20
22.341789
 30
0.0
  0
SPLINE
  5
19e
100
AcDbEntity
  8
Layer_1
 62
7
100
AcDbSpline
 70
8
 71
3
 72
8
 73
4
 74
0
 40
0
 40
0
 40
0
 40
0
 40
1
 40
1
 40
1
 40
1
 10
77.367398
 20
22.341789
 30
0.0
 10
78.639574
 20
22.341789
 30
0.0
 10
79.685591
 20
23.359533
 30
0.0
 10
79.685591
 20
24.546899
 30
0.0
  0
SPLINE
  5
19f
100
AcDbEntity
  8
Layer_1
 62
7
100
AcDbSpline
 70
8
 71
3
 72
8
 73
4
 74
0
 40
0
 40
0
 40
0
 40
0
 40
1
 40
1
 40
1
 40
1
 10
79.685591
 20
24.546899
 30
0.0
 10
79.685591
 20
24.942687
 30
0.0
 10
79.572508
 20
25.324342
 30
0.0
 10
79.360477
 20
25.649453
 30
0.0
  0
SPLINE
  5
1a0
100
AcDbEntity
  8
Layer_1
 62
7
100
AcDbSpline
 70
8
 71
3
 72
8
 73
4
 74
0
 40
0
 40
0
 40
0
 40
0
 40
1
 40
1
 40
1
 40
1
 10
79.360477
 20
25.649453
 30
0.0
 10
79.699725
 20
25.847348
 30
0.0
 10
80.095516
 20
25.960431
 30
0.0
 10
80.491305
 20
25.960431
 30
0.0
  0
SPLINE
  5
1a1
100
AcDbEntity
  8
Layer_1
 62
7
100
AcDbSpline
 70
8
 71
3
 72
8
 73
4
 74
0
 40
0
 40
0
 40
0
 40
0
 40
1
 40
1
 40
1
 40
1
 10
80.491305
 20
25.960431
 30
0.0
 10
80.618522
 20
25.960431
 30
0.0
 10
80.731606
 20
25.946292
 30
0.0
 10
80.858823
 20
25.918025
 30
0.0
  0
LWPOLYLINE
  5
1a2
100
AcDbEntity
  8
Layer_1
 62
7
100
AcDbPolyline
 90
3
 70
0
 10
62.440495
 20
25.338476
 30
0.0
 10
62.482902
 20
26.582384
 30
0.0
 10
61.422754
 20
26.582384
 30
0.0
  0
SPLINE
  5
1a3
100
AcDbEntity
  8
Layer_1
 62
7
100
AcDbSpline
 70
8
 71
3
 72
8
 73
4
 74
0
 40
0
 40
0
 40
0
 40
0
 40
1
 40
1
 40
1
 40
1
 10
80.745739
 20
26.752008
 30
0.0
 10
80.095516
 20
26.808551
 30
0.0
 10
79.445290
 20
26.596521
 30
0.0
 10
78.950555
 20
26.186596
 30
0.0
  0
SPLINE
  5
1a4
100
AcDbEntity
  8
Layer_1
 62
7
100
AcDbSpline
 70
8
 71
3
 72
8
 73
4
 74
0
 40
0
 40
0
 40
0
 40
0
 40
1
 40
1
 40
1
 40
1
 10
78.950555
 20
26.186596
 30
0.0
 10
78.540630
 20
26.582384
 30
0.0
 10
78.003487
 20
26.794415
 30
0.0
 10
77.409805
 20
26.794415
 30
0.0
  0
SPLINE
  5
1a5
100
AcDbEntity
  8
Layer_1
 62
7
100
AcDbSpline
 70
8
 71
3
 72
8
 73
4
 74
0
 40
0
 40
0
 40
0
 40
0
 40
1
 40
1
 40
1
 40
1
 10
76.434467
 20
20.475925
 30
0.0
 10
76.674766
 20
20.447655
 30
0.0
 10
77.014016
 20
20.419385
 30
0.0
 10
77.508752
 20
20.391114
 30
0.0
  0
SPLINE
  5
1a6
100
AcDbEntity
  8
Layer_1
 62
7
100
AcDbSpline
 70
8
 71
3
 72
8
 73
4
 74
0
 40
0
 40
0
 40
0
 40
0
 40
1
 40
1
 40
1
 40
1
 10
77.508752
 20
20.391114
 30
0.0
 10
77.989351
 20
20.376975
 30
0.0
 10
78.512360
 20
20.419385
 30
0.0
 10
78.879878
 20
20.362844
 30
0.0
  0
SPLINE
  5
1a7
100
AcDbEntity
  8
Layer_1
 62
7
100
AcDbSpline
 70
8
 71
3
 72
8
 73
4
 74
0
 40
0
 40
0
 40
0
 40
0
 40
1
 40
1
 40
1
 40
1
 10
78.879878
 20
20.362844
 30
0.0
 10
79.473560
 20
20.263897
 30
0.0
 10
79.657321
 20
19.896379
 30
0.0
 10
79.657321
 20
19.613671
 30
0.0
  0
SPLINE
  5
1a8
100
AcDbEntity
  8
Layer_1
 62
7
100
AcDbSpline
 70
8
 71
3
 72
8
 73
4
 74
0
 40
0
 40
0
 40
0
 40
0
 40
1
 40
1
 40
1
 40
1
 10
79.657321
 20
19.613671
 30
0.0
 10
79.657321
 20
19.330966
 30
0.0
 10
79.487694
 20
18.991715
 30
0.0
 10
79.049502
 20
18.751417
 30
0.0
  0
SPLINE
  5
1a9
100
AcDbEntity
  8
Layer_1
 62
7
100
AcDbSpline
 70
8
 71
3
 72
8
 73
4
 74
0
 40
0
 40
0
 40
0
 40
0
 40
1
 40
1
 40
1
 40
1
 10
79.049502
 20
18.751417
 30
0.0
 10
78.568900
 20
18.496980
 30
0.0
 10
78.031758
 20
18.468710
 30
0.0
 10
77.593563
 20
18.468710
 30
0.0
  0
SPLINE
  5
1aa
100
AcDbEntity
  8
Layer_1
 62
7
100
AcDbSpline
 70
8
 71
3
 72
8
 73
4
 74
0
 40
0
 40
0
 40
0
 40
0
 40
1
 40
1
 40
1
 40
1
 10
77.593563
 20
18.468710
 30
0.0
 10
77.296721
 20
18.468710
 30
0.0
 10
76.745442
 20
18.482849
 30
0.0
 10
76.264843
 20
18.680740
 30
0.0
  0
SPLINE
  5
1ab
100
AcDbEntity
  8
Layer_1
 62
7
100
AcDbSpline
 70
8
 71
3
 72
8
 73
4
 74
0
 40
0
 40
0
 40
0
 40
0
 40
1
 40
1
 40
1
 40
1
 10
76.264843
 20
18.680740
 30
0.0
 10
75.741835
 20
18.892768
 30
0.0
 10
75.628754
 20
19.246153
 30
0.0
 10
75.628754
 20
19.472317
 30
0.0
  0
SPLINE
  5
1ac
100
AcDbEntity
  8
Layer_1
 62
7
100
AcDbSpline
 70
8
 71
3
 72
8
 73
4
 74
0
 40
0
 40
0
 40
0
 40
0
 40
1
 40
1
 40
1
 40
1
 10
75.628754
 20
19.472317
 30
0.0
 10
75.628754
 20
19.938783
 30
0.0
 10
76.066949
 20
20.278031
 30
0.0
 10
76.434467
 20
20.475925
 30
0.0
  0
LWPOLYLINE
  5
1ad
100
AcDbEntity
  8
Layer_1
 62
7
100
AcDbPolyline
 90
2
 70
0
 10
80.858823
 20
25.918025
 30
0.0
 10
80.745739
 20
26.752008
 30
0.0
  0
SPLINE
  5
1ae
100
AcDbEntity
  8
Layer_1
 62
7
100
AcDbSpline
 70
8
 71
3
 72
8
 73
4
 74
0
 40
0
 40
0
 40
0
 40
0
 40
1
 40
1
 40
1
 40
1
 10
83.643481
 20
23.260583
 30
0.0
 10
83.643481
 20
23.656372
 30
0.0
 10
83.657621
 20
24.080433
 30
0.0
 10
84.095810
 20
24.773063
 30
0.0
  0
SPLINE
  5
1af
100
AcDbEntity
  8
Layer_1
 62
7
100
AcDbSpline
 70
8
 71
3
 72
8
 73
4
 74
0
 40
0
 40
0
 40
0
 40
0
 40
1
 40
1
 40
1
 40
1
 10
84.095810
 20
24.773063
 30
0.0
 10
84.689493
 20
25.705994
 30
0.0
 10
85.452802
 20
25.861484
 30
0.0
 10
85.919268
 20
25.861484
 30
0.0
  0
SPLINE
  5
1b0
100
AcDbEntity
  8
Layer_1
 62
7
100
AcDbSpline
 70
8
 71
3
 72
8
 73
4
 74
0
 40
0
 40
0
 40
0
 40
0
 40
1
 40
1
 40
1
 40
1
 10
85.919268
 20
25.861484
 30
0.0
 10
86.456410
 20
25.861484
 30
0.0
 10
86.795658
 20
25.607047
 30
0.0
 10
86.979416
 20
25.380882
 30
0.0
  0
SPLINE
  5
1b1
100
AcDbEntity
  8
Layer_1
 62
7
100
AcDbSpline
 70
8
 71
3
 72
8
 73
4
 74
0
 40
0
 40
0
 40
0
 40
0
 40
1
 40
1
 40
1
 40
1
 10
86.979416
 20
25.380882
 30
0.0
 10
87.064229
 20
25.267801
 30
0.0
 10
87.106636
 20
25.154718
 30
0.0
 10
87.219717
 20
25.055771
 30
0.0
  0
LWPOLYLINE
  5
1b2
100
AcDbEntity
  8
Layer_1
 62
7
100
AcDbPolyline
 90
4
 70
0
 10
82.625737
 20
26.582384
 30
0.0
 10
82.625737
 20
20.122543
 30
0.0
 10
83.643481
 20
20.122543
 30
0.0
 10
83.643481
 20
23.260583
 30
0.0
  0
SPLINE
  5
1b3
100
AcDbEntity
  8
Layer_1
 62
7
100
AcDbSpline
 70
8
 71
3
 72
8
 73
4
 74
0
 40
0
 40
0
 40
0
 40
0
 40
1
 40
1
 40
1
 40
1
 10
87.700318
 20
26.031108
 30
0.0
 10
87.290394
 20
26.455167
 30
0.0
 10
86.696708
 20
26.737874
 30
0.0
 10
85.975808
 20
26.737874
 30
0.0
  0
SPLINE
  5
1b4
100
AcDbEntity
  8
Layer_1
 62
7
100
AcDbSpline
 70
8
 71
3
 72
8
 73
4
 74
0
 40
0
 40
0
 40
0
 40
0
 40
1
 40
1
 40
1
 40
1
 10
85.975808
 20
26.737874
 30
0.0
 10
85.028744
 20
26.737874
 30
0.0
 10
84.067540
 20
26.257273
 30
0.0
 10
83.643481
 20
25.338476
 30
0.0
  0
LWPOLYLINE
  5
1b5
100
AcDbEntity
  8
Layer_1
 62
7
100
AcDbPolyline
 90
2
 70
0
 10
87.219717
 20
25.055771
 30
0.0
 10
87.700318
 20
26.031108
 30
0.0
  0
LWPOLYLINE
  5
1b6
100
AcDbEntity
  8
Layer_1
 62
7
100
AcDbPolyline
 90
3
 70
0
 10
83.643481
 20
25.338476
 30
0.0
 10
83.685885
 20
26.582384
 30
0.0
 10
82.625737
 20
26.582384
 30
0.0
  0
SPLINE
  5
1b7
100
AcDbEntity
  8
Layer_1
 62
7
100
AcDbSpline
 70
8
 71
3
 72
8
 73
4
 74
0
 40
0
 40
0
 40
0
 40
0
 40
1
 40
1
 40
1
 40
1
 10
90.060915
 20
25.182988
 30
0.0
 10
90.598058
 20
25.734267
 30
0.0
 10
91.318961
 20
25.903891
 30
0.0
 10
91.926780
 20
25.903891
 30
0.0
  0
SPLINE
  5
1b8
100
AcDbEntity
  8
Layer_1
 62
7
100
AcDbSpline
 70
8
 71
3
 72
8
 73
4
 74
0
 40
0
 40
0
 40
0
 40
0
 40
1
 40
1
 40
1
 40
1
 10
91.926780
 20
25.903891
 30
0.0
 10
92.690086
 20
25.903891
 30
0.0
 10
93.071741
 20
25.578776
 30
0.0
 10
93.255499
 20
25.281935
 30
0.0
  0
SPLINE
  5
1b9
100
AcDbEntity
  8
Layer_1
 62
7
100
AcDbSpline
 70
8
 71
3
 72
8
 73
4
 74
0
 40
0
 40
0
 40
0
 40
0
 40
1
 40
1
 40
1
 40
1
 10
93.255499
 20
25.281935
 30
0.0
 10
93.467530
 20
24.928553
 30
0.0
 10
93.453393
 20
24.504492
 30
0.0
 10
93.453393
 20
24.165244
 30
0.0
  0
LWPOLYLINE
  5
1ba
100
AcDbEntity
  8
Layer_1
 62
7
100
AcDbPolyline
 90
2
 70
0
 10
89.566180
 20
25.833214
 30
0.0
 10
90.060915
 20
25.182988
 30
0.0
  0
SPLINE
  5
1bb
100
AcDbEntity
  8
Layer_1
 62
7
100
AcDbSpline
 70
8
 71
3
 72
8
 73
4
 74
0
 40
0
 40
0
 40
0
 40
0
 40
1
 40
1
 40
1
 40
1
 10
93.255499
 20
23.939079
 30
0.0
 10
92.294298
 20
23.939079
 30
0.0
 10
91.276554
 20
23.939079
 30
0.0
 10
90.456704
 20
23.642238
 30
0.0
  0
SPLINE
  5
1bc
100
AcDbEntity
  8
Layer_1
 62
7
100
AcDbSpline
 70
8
 71
3
 72
8
 73
4
 74
0
 40
0
 40
0
 40
0
 40
0
 40
1
 40
1
 40
1
 40
1
 10
90.456704
 20
23.642238
 30
0.0
 10
89.438963
 20
23.274720
 30
0.0
 10
88.986631
 20
22.511410
 30
0.0
 10
88.986631
 20
21.804647
 30
0.0
  0
SPLINE
  5
1bd
100
AcDbEntity
  8
Layer_1
 62
7
100
AcDbSpline
 70
8
 71
3
 72
8
 73
4
 74
0
 40
0
 40
0
 40
0
 40
0
 40
1
 40
1
 40
1
 40
1
 10
88.986631
 20
21.804647
 30
0.0
 10
88.986631
 20
20.857580
 30
0.0
 10
89.806481
 20
19.967056
 30
0.0
 10
91.149337
 20
19.967056
 30
0.0
  0
SPLINE
  5
1be
100
AcDbEntity
  8
Layer_1
 62
7
100
AcDbSpline
 70
8
 71
3
 72
8
 73
4
 74
0
 40
0
 40
0
 40
0
 40
0
 40
1
 40
1
 40
1
 40
1
 10
91.149337
 20
19.967056
 30
0.0
 10
91.940913
 20
19.967056
 30
0.0
 10
92.760763
 20
20.263897
 30
0.0
 10
93.467530
 20
20.843443
 30
0.0
  0
LWPOLYLINE
  5
1bf
100
AcDbEntity
  8
Layer_1
 62
7
100
AcDbPolyline
 90
3
 70
0
 10
93.453393
 20
24.165244
 30
0.0
 10
93.453393
 20
23.939079
 30
0.0
 10
93.255499
 20
23.939079
 30
0.0
  0
SPLINE
  5
1c0
100
AcDbEntity
  8
Layer_1
 62
7
100
AcDbSpline
 70
8
 71
3
 72
8
 73
4
 74
0
 40
0
 40
0
 40
0
 40
0
 40
1
 40
1
 40
1
 40
1
 10
94.428731
 20
24.136974
 30
0.0
 10
94.428731
 20
24.659982
 30
0.0
 10
94.414591
 20
25.154718
 30
0.0
 10
94.117753
 20
25.663590
 30
0.0
  0
SPLINE
  5
1c1
100
AcDbEntity
  8
Layer_1
 62
7
100
AcDbSpline
 70
8
 71
3
 72
8
 73
4
 74
0
 40
0
 40
0
 40
0
 40
0
 40
1
 40
1
 40
1
 40
1
 10
94.117753
 20
25.663590
 30
0.0
 10
93.693694
 20
26.356220
 30
0.0
 10
92.873844
 20
26.723738
 30
0.0
 10
91.870236
 20
26.723738
 30
0.0
  0
SPLINE
  5
1c2
100
AcDbEntity
  8
Layer_1
 62
7
100
AcDbSpline
 70
8
 71
3
 72
8
 73
4
 74
0
 40
0
 40
0
 40
0
 40
0
 40
1
 40
1
 40
1
 40
1
 10
91.870236
 20
26.723738
 30
0.0
 10
91.007983
 20
26.723738
 30
0.0
 10
90.173999
 20
26.455167
 30
0.0
 10
89.566180
 20
25.833214
 30
0.0
  0
LWPOLYLINE
  5
1c3
100
AcDbEntity
  8
Layer_1
 62
7
100
AcDbPolyline
 90
4
 70
0
 10
93.467530
 20
20.843443
 30
0.0
 10
93.467530
 20
20.136677
 30
0.0
 10
94.428731
 20
20.136677
 30
0.0
 10
94.428731
 20
24.136974
 30
0.0
  0
SPLINE
  5
1c4
100
AcDbEntity
  8
Layer_1
 62
7
100
AcDbSpline
 70
8
 71
3
 72
8
 73
4
 74
0
 40
0
 40
0
 40
0
 40
0
 40
1
 40
1
 40
1
 40
1
 10
93.495800
 20
22.723441
 30
0.0
 10
93.495800
 20
22.398330
 30
0.0
 10
93.495800
 20
21.974271
 30
0.0
 10
93.057605
 20
21.507806
 30
0.0
  0
SPLINE
  5
1c5
100
AcDbEntity
  8
Layer_1
 62
7
100
AcDbSpline
 70
8
 71
3
 72
8
 73
4
 74
0
 40
0
 40
0
 40
0
 40
0
 40
1
 40
1
 40
1
 40
1
 10
93.057605
 20
21.507806
 30
0.0
 10
92.817304
 20
21.267505
 30
0.0
 10
92.209485
 20
20.744496
 30
0.0
 10
91.361367
 20
20.744496
 30
0.0
  0
SPLINE
  5
1c6
100
AcDbEntity
  8
Layer_1
 62
7
100
AcDbSpline
 70
8
 71
3
 72
8
 73
4
 74
0
 40
0
 40
0
 40
0
 40
0
 40
1
 40
1
 40
1
 40
1
 10
91.361367
 20
20.744496
 30
0.0
 10
90.499113
 20
20.744496
 30
0.0
 10
90.004375
 20
21.295775
 30
0.0
 10
90.004375
 20
21.861187
 30
0.0
  0
SPLINE
  5
1c7
100
AcDbEntity
  8
Layer_1
 62
7
100
AcDbSpline
 70
8
 71
3
 72
8
 73
4
 74
0
 40
0
 40
0
 40
0
 40
0
 40
1
 40
1
 40
1
 40
1
 10
90.004375
 20
21.861187
 30
0.0
 10
90.004375
 20
22.341789
 30
0.0
 10
90.329489
 20
22.864795
 30
0.0
 10
91.135200
 20
23.062689
 30
0.0
  0
SPLINE
  5
1c8
100
AcDbEntity
  8
Layer_1
 62
7
100
AcDbSpline
 70
8
 71
3
 72
8
 73
4
 74
0
 40
0
 40
0
 40
0
 40
0
 40
1
 40
1
 40
1
 40
1
 10
91.135200
 20
23.062689
 30
0.0
 10
91.728883
 20
23.204043
 30
0.0
 10
92.591139
 20
23.161636
 30
0.0
 10
93.269635
 20
23.161636
 30
0.0
  0
LWPOLYLINE
  5
1c9
100
AcDbEntity
  8
Layer_1
 62
7
100
AcDbPolyline
 90
2
 70
0
 10
93.495800
 20
23.161636
 30
0.0
 10
93.495800
 20
22.723441
 30
0.0
  0
LWPOLYLINE
  5
1ca
100
AcDbEntity
  8
Layer_1
 62
7
100
AcDbPolyline
 90
2
 70
0
 10
93.269635
 20
23.161636
 30
0.0
 10
93.495800
 20
23.161636
 30
0.0
  0
SPLINE
  5
1cb
100
AcDbEntity
  8
Layer_1
 62
7
100
AcDbSpline
 70
8
 71
3
 72
8
 73
4
 74
0
 40
0
 40
0
 40
0
 40
0
 40
1
 40
1
 40
1
 40
1
 10
96.817603
 20
24.433815
 30
0.0
 10
96.817603
 20
24.744793
 30
0.0
 10
96.845874
 20
25.027501
 30
0.0
 10
97.029631
 20
25.366749
 30
0.0
  0
SPLINE
  5
1cc
100
AcDbEntity
  8
Layer_1
 62
7
100
AcDbSpline
 70
8
 71
3
 72
8
 73
4
 74
0
 40
0
 40
0
 40
0
 40
0
 40
1
 40
1
 40
1
 40
1
 10
97.029631
 20
25.366749
 30
0.0
 10
97.255796
 20
25.790807
 30
0.0
 10
97.538503
 20
25.960431
 30
0.0
 10
97.807074
 20
25.960431
 30
0.0
  0
SPLINE
  5
1cd
100
AcDbEntity
  8
Layer_1
 62
7
100
AcDbSpline
 70
8
 71
3
 72
8
 73
4
 74
0
 40
0
 40
0
 40
0
 40
0
 40
1
 40
1
 40
1
 40
1
 10
97.807074
 20
25.960431
 30
0.0
 10
98.033239
 20
25.960431
 30
0.0
 10
98.287676
 20
25.819077
 30
0.0
 10
98.400757
 20
25.465696
 30
0.0
  0
SPLINE
  5
1ce
100
AcDbEntity
  8
Layer_1
 62
7
100
AcDbSpline
 70
8
 71
3
 72
8
 73
4
 74
0
 40
0
 40
0
 40
0
 40
0
 40
1
 40
1
 40
1
 40
1
 10
98.400757
 20
25.465696
 30
0.0
 10
98.485571
 20
25.197125
 30
0.0
 10
98.471434
 20
24.886147
 30
0.0
 10
98.471434
 20
24.617576
 30
0.0
  0
LWPOLYLINE
  5
1cf
100
AcDbEntity
  8
Layer_1
 62
7
100
AcDbPolyline
 90
3
 70
0
 10
95.884670
 20
20.136677
 30
0.0
 10
96.817603
 20
20.136677
 30
0.0
 10
96.817603
 20
24.433815
 30
0.0
  0
SPLINE
  5
1d0
100
AcDbEntity
  8
Layer_1
 62
7
100
AcDbSpline
 70
8
 71
3
 72
8
 73
4
 74
0
 40
0
 40
0
 40
0
 40
0
 40
1
 40
1
 40
1
 40
1
 10
99.418501
 20
24.405545
 30
0.0
 10
99.418501
 20
24.744793
 30
0.0
 10
99.446771
 20
25.013364
 30
0.0
 10
99.687072
 20
25.423289
 30
0.0
  0
SPLINE
  5
1d1
100
AcDbEntity
  8
Layer_1
 62
7
100
AcDbSpline
 70
8
 71
3
 72
8
 73
4
 74
0
 40
0
 40
0
 40
0
 40
0
 40
1
 40
1
 40
1
 40
1
 10
99.687072
 20
25.423289
 30
0.0
 10
99.800156
 20
25.592913
 30
0.0
 10
100.040457
 20
26.002838
 30
0.0
 10
100.436245
 20
26.002838
 30
0.0
  0
SPLINE
  5
1d2
100
AcDbEntity
  8
Layer_1
 62
7
100
AcDbSpline
 70
8
 71
3
 72
8
 73
4
 74
0
 40
0
 40
0
 40
0
 40
0
 40
1
 40
1
 40
1
 40
1
 10
100.436245
 20
26.002838
 30
0.0
 10
100.648273
 20
26.002838
 30
0.0
 10
100.846170
 20
25.875618
 30
0.0
 10
100.945117
 20
25.635320
 30
0.0
  0
SPLINE
  5
1d3
100
AcDbEntity
  8
Layer_1
 62
7
100
AcDbSpline
 70
8
 71
3
 72
8
 73
4
 74
0
 40
0
 40
0
 40
0
 40
0
 40
1
 40
1
 40
1
 40
1
 10
100.945117
 20
25.635320
 30
0.0
 10
101.072335
 20
25.366749
 30
0.0
 10
101.044065
 20
24.999228
 30
0.0
 10
101.044065
 20
24.702386
 30
0.0
  0
LWPOLYLINE
  5
1d4
100
AcDbEntity
  8
Layer_1
 62
7
100
AcDbPolyline
 90
4
 70
0
 10
98.471434
 20
24.617576
 30
0.0
 10
98.471434
 20
20.136677
 30
0.0
 10
99.418501
 20
20.136677
 30
0.0
 10
99.418501
 20
24.405545
 30
0.0
  0
SPLINE
  5
1d5
100
AcDbEntity
  8
Layer_1
 62
7
100
AcDbSpline
 70
8
 71
3
 72
8
 73
4
 74
0
 40
0
 40
0
 40
0
 40
0
 40
1
 40
1
 40
1
 40
1
 10
102.005265
 20
24.716523
 30
0.0
 10
102.005265
 20
25.253665
 30
0.0
 10
102.019405
 20
25.790807
 30
0.0
 10
101.736694
 20
26.229002
 30
0.0
  0
SPLINE
  5
1d6
100
AcDbEntity
  8
Layer_1
 62
7
100
AcDbSpline
 70
8
 71
3
 72
8
 73
4
 74
0
 40
0
 40
0
 40
0
 40
0
 40
1
 40
1
 40
1
 40
1
 10
101.736694
 20
26.229002
 30
0.0
 10
101.496393
 20
26.596521
 30
0.0
 10
101.086468
 20
26.737874
 30
0.0
 10
100.733087
 20
26.737874
 30
0.0
  0
SPLINE
  5
1d7
100
AcDbEntity
  8
Layer_1
 62
7
100
AcDbSpline
 70
8
 71
3
 72
8
 73
4
 74
0
 40
0
 40
0
 40
0
 40
0
 40
1
 40
1
 40
1
 40
1
 10
100.733087
 20
26.737874
 30
0.0
 10
100.111134
 20
26.737874
 30
0.0
 10
99.531585
 20
26.370356
 30
0.0
 10
99.277147
 20
25.804944
 30
0.0
  0
SPLINE
  5
1d8
100
AcDbEntity
  8
Layer_1
 62
7
100
AcDbSpline
 70
8
 71
3
 72
8
 73
4
 74
0
 40
0
 40
0
 40
0
 40
0
 40
1
 40
1
 40
1
 40
1
 10
99.277147
 20
25.804944
 30
0.0
 10
99.178200
 20
26.342083
 30
0.0
 10
98.725869
 20
26.737874
 30
0.0
 10
98.146322
 20
26.737874
 30
0.0
  0
SPLINE
  5
1d9
100
AcDbEntity
  8
Layer_1
 62
7
100
AcDbSpline
 70
8
 71
3
 72
8
 73
4
 74
0
 40
0
 40
0
 40
0
 40
0
 40
1
 40
1
 40
1
 40
1
 10
98.146322
 20
26.737874
 30
0.0
 10
97.609180
 20
26.737874
 30
0.0
 10
97.114445
 20
26.398626
 30
0.0
 10
96.817603
 20
25.946295
 30
0.0
  0
LWPOLYLINE
  5
1da
100
AcDbEntity
  8
Layer_1
 62
7
100
AcDbPolyline
 90
4
 70
0
 10
101.044065
 20
24.702386
 30
0.0
 10
101.044065
 20
20.122543
 30
0.0
 10
102.005265
 20
20.122543
 30
0.0
 10
102.005265
 20
24.716523
 30
0.0
  0
LWPOLYLINE
  5
1db
100
AcDbEntity
  8
Layer_1
 62
7
100
AcDbPolyline
 90
4
 70
0
 10
96.817603
 20
25.946295
 30
0.0
 10
96.831743
 20
26.582384
 30
0.0
 10
95.884675
 20
26.582384
 30
0.0
 10
95.884675
 20
20.136677
 30
0.0
  0
SPLINE
  5
1dc
100
AcDbEntity
  8
Layer_1
 62
7
100
AcDbSpline
 70
8
 71
3
 72
8
 73
4
 74
0
 40
0
 40
0
 40
0
 40
0
 40
1
 40
1
 40
1
 40
1
 10
103.885263
 20
24.433815
 30
0.0
 10
103.885263
 20
24.744793
 30
0.0
 10
103.913534
 20
25.027501
 30
0.0
 10
104.097291
 20
25.366749
 30
0.0
  0
SPLINE
  5
1dd
100
AcDbEntity
  8
Layer_1
 62
7
100
AcDbSpline
 70
8
 71
3
 72
8
 73
4
 74
0
 40
0
 40
0
 40
0
 40
0
 40
1
 40
1
 40
1
 40
1
 10
104.097291
 20
25.366749
 30
0.0
 10
104.323459
 20
25.790807
 30
0.0
 10
104.606163
 20
25.960431
 30
0.0
 10
104.874735
 20
25.960431
 30
0.0
  0
SPLINE
  5
1de
100
AcDbEntity
  8
Layer_1
 62
7
100
AcDbSpline
 70
8
 71
3
 72
8
 73
4
 74
0
 40
0
 40
0
 40
0
 40
0
 40
1
 40
1
 40
1
 40
1
 10
104.874735
 20
25.960431
 30
0.0
 10
105.100899
 20
25.960431
 30
0.0
 10
105.355336
 20
25.819077
 30
0.0
 10
105.468420
 20
25.465696
 30
0.0
  0
SPLINE
  5
1df
100
AcDbEntity
  8
Layer_1
 62
7
100
AcDbSpline
 70
8
 71
3
 72
8
 73
4
 74
0
 40
0
 40
0
 40
0
 40
0
 40
1
 40
1
 40
1
 40
1
 10
105.468420
 20
25.465696
 30
0.0
 10
105.553231
 20
25.197125
 30
0.0
 10
105.539097
 20
24.886147
 30
0.0
 10
105.539097
 20
24.617576
 30
0.0
  0
LWPOLYLINE
  5
1e0
100
AcDbEntity
  8
Layer_1
 62
7
100
AcDbPolyline
 90
3
 70
0
 10
102.952333
 20
20.136677
 30
0.0
 10
103.885263
 20
20.136677
 30
0.0
 10
103.885263
 20
24.433815
 30
0.0
  0
SPLINE
  5
1e1
100
AcDbEntity
  8
Layer_1
 62
7
100
AcDbSpline
 70
8
 71
3
 72
8
 73
4
 74
0
 40
0
 40
0
 40
0
 40
0
 40
1
 40
1
 40
1
 40
1
 10
106.486161
 20
24.405545
 30
0.0
 10
106.486161
 20
24.744793
 30
0.0
 10
106.514434
 20
25.013364
 30
0.0
 10
106.754732
 20
25.423289
 30
0.0
  0
SPLINE
  5
1e2
100
AcDbEntity
  8
Layer_1
 62
7
100
AcDbSpline
 70
8
 71
3
 72
8
 73
4
 74
0
 40
0
 40
0
 40
0
 40
0
 40
1
 40
1
 40
1
 40
1
 10
106.754732
 20
25.423289
 30
0.0
 10
106.867816
 20
25.592913
 30
0.0
 10
107.108117
 20
26.002838
 30
0.0
 10
107.503905
 20
26.002838
 30
0.0
  0
SPLINE
  5
1e3
100
AcDbEntity
  8
Layer_1
 62
7
100
AcDbSpline
 70
8
 71
3
 72
8
 73
4
 74
0
 40
0
 40
0
 40
0
 40
0
 40
1
 40
1
 40
1
 40
1
 10
107.503905
 20
26.002838
 30
0.0
 10
107.715936
 20
26.002838
 30
0.0
 10
107.913830
 20
25.875618
 30
0.0
 10
108.012778
 20
25.635320
 30
0.0
  0
SPLINE
  5
1e4
100
AcDbEntity
  8
Layer_1
 62
7
100
AcDbSpline
 70
8
 71
3
 72
8
 73
4
 74
0
 40
0
 40
0
 40
0
 40
0
 40
1
 40
1
 40
1
 40
1
 10
108.012778
 20
25.635320
 30
0.0
 10
108.139995
 20
25.366749
 30
0.0
 10
108.111725
 20
24.999228
 30
0.0
 10
108.111725
 20
24.702386
 30
0.0
  0
LWPOLYLINE
  5
1e5
100
AcDbEntity
  8
Layer_1
 62
7
100
AcDbPolyline
 90
4
 70
0
 10
105.539097
 20
24.617576
 30
0.0
 10
105.539097
 20
20.136677
 30
0.0
 10
106.486161
 20
20.136677
 30
0.0
 10
106.486161
 20
24.405545
 30
0.0
  0
SPLINE
  5
1e6
100
AcDbEntity
  8
Layer_1
 62
7
100
AcDbSpline
 70
8
 71
3
 72
8
 73
4
 74
0
 40
0
 40
0
 40
0
 40
0
 40
1
 40
1
 40
1
 40
1
 10
109.072926
 20
24.716523
 30
0.0
 10
109.072926
 20
25.253665
 30
0.0
 10
109.087065
 20
25.790807
 30
0.0
 10
108.804354
 20
26.229002
 30
0.0
  0
SPLINE
  5
1e7
100
AcDbEntity
  8
Layer_1
 62
7
100
AcDbSpline
 70
8
 71
3
 72
8
 73
4
 74
0
 40
0
 40
0
 40
0
 40
0
 40
1
 40
1
 40
1
 40
1
 10
108.804354
 20
26.229002
 30
0.0
 10
108.564053
 20
26.596521
 30
0.0
 10
108.154129
 20
26.737874
 30
0.0
 10
107.800747
 20
26.737874
 30
0.0
  0
SPLINE
  5
1e8
100
AcDbEntity
  8
Layer_1
 62
7
100
AcDbSpline
 70
8
 71
3
 72
8
 73
4
 74
0
 40
0
 40
0
 40
0
 40
0
 40
1
 40
1
 40
1
 40
1
 10
107.800747
 20
26.737874
 30
0.0
 10
107.178794
 20
26.737874
 30
0.0
 10
106.599245
 20
26.370356
 30
0.0
 10
106.344810
 20
25.804944
 30
0.0
  0
SPLINE
  5
1e9
100
AcDbEntity
  8
Layer_1
 62
7
100
AcDbSpline
 70
8
 71
3
 72
8
 73
4
 74
0
 40
0
 40
0
 40
0
 40
0
 40
1
 40
1
 40
1
 40
1
 10
106.344810
 20
25.804944
 30
0.0
 10
106.245860
 20
26.342083
 30
0.0
 10
105.793532
 20
26.737874
 30
0.0
 10
105.213983
 20
26.737874
 30
0.0
  0
SPLINE
  5
1ea
100
AcDbEntity
  8
Layer_1
 62
7
100
AcDbSpline
 70
8
 71
3
 72
8
 73
4
 74
0
 40
0
 40
0
 40
0
 40
0
 40
1
 40
1
 40
1
 40
1
 10
105.213983
 20
26.737874
 30
0.0
 10
104.676840
 20
26.737874
 30
0.0
 10
104.182105
 20
26.398626
 30
0.0
 10
103.885263
 20
25.946295
 30
0.0
  0
LWPOLYLINE
  5
1eb
100
AcDbEntity
  8
Layer_1
 62
7
100
AcDbPolyline
 90
4
 70
0
 10
108.111725
 20
24.702386
 30
0.0
 10
108.111725
 20
20.122543
 30
0.0
 10
109.072926
 20
20.122543
 30
0.0
 10
109.072926
 20
24.716523
 30
0.0
  0
LWPOLYLINE
  5
1ec
100
AcDbEntity
  8
Layer_1
 62
7
100
AcDbPolyline
 90
4
 70
0
 10
103.885263
 20
25.946295
 30
0.0
 10
103.899403
 20
26.582384
 30
0.0
 10
102.952338
 20
26.582384
 30
0.0
 10
102.952338
 20
20.136677
 30
0.0
  0
SPLINE
  5
1ed
100
AcDbEntity
  8
Layer_1
 62
7
100
AcDbSpline
 70
8
 71
3
 72
8
 73
4
 74
0
 40
0
 40
0
 40
0
 40
0
 40
1
 40
1
 40
1
 40
1
 10
113.087356
 20
29.395316
 30
0.0
 10
112.677434
 20
29.395316
 30
0.0
 10
112.352320
 20
29.070201
 30
0.0
 10
112.352320
 20
28.674413
 30
0.0
  0
SPLINE
  5
1ee
100
AcDbEntity
  8
Layer_1
 62
7
100
AcDbSpline
 70
8
 71
3
 72
8
 73
4
 74
0
 40
0
 40
0
 40
0
 40
0
 40
1
 40
1
 40
1
 40
1
 10
112.352320
 20
28.674413
 30
0.0
 10
112.352320
 20
28.278624
 30
0.0
 10
112.677434
 20
27.953513
 30
0.0
 10
113.087356
 20
27.953513
 30
0.0
  0
SPLINE
  5
1ef
100
AcDbEntity
  8
Layer_1
 62
7
100
AcDbSpline
 70
8
 71
3
 72
8
 73
4
 74
0
 40
0
 40
0
 40
0
 40
0
 40
1
 40
1
 40
1
 40
1
 10
113.087356
 20
27.953513
 30
0.0
 10
113.497281
 20
27.953513
 30
0.0
 10
113.822395
 20
28.278624
 30
0.0
 10
113.822395
 20
28.674413
 30
0.0
  0
SPLINE
  5
1f0
100
AcDbEntity
  8
Layer_1
 62
7
100
AcDbSpline
 70
8
 71
3
 72
8
 73
4
 74
0
 40
0
 40
0
 40
0
 40
0
 40
1
 40
1
 40
1
 40
1
 10
113.822395
 20
28.674413
 30
0.0
 10
113.822395
 20
29.070201
 30
0.0
 10
113.497281
 20
29.395316
 30
0.0
 10
113.087356
 20
29.395316
 30
0.0
  0
LWPOLYLINE
  5
1f1
100
AcDbEntity
  8
Layer_1
 62
7
100
AcDbPolyline
 90
11
 70
0
 10
110.995330
 20
26.596521
 30
0.0
 10
110.995330
 20
25.762537
 30
0.0
 10
112.550214
 20
25.762537
 30
0.0
 10
112.550214
 20
20.942390
 30
0.0
 10
110.910517
 20
20.942390
 30
0.0
 10
110.910517
 20
20.136677
 30
0.0
 10
115.094574
 20
20.136677
 30
0.0
 10
115.094574
 20
20.942390
 30
0.0
 10
113.582094
 20
20.942390
 30
0.0
 10
113.582094
 20
26.596521
 30
0.0
 10
110.995330
 20
26.596521
 30
0.0
  0
SPLINE
  5
1f2
100
AcDbEntity
  8
Layer_1
 62
7
100
AcDbSpline
 70
8
 71
3
 72
8
 73
4
 74
0
 40
0
 40
0
 40
0
 40
0
 40
1
 40
1
 40
1
 40
1
 10
118.557726
 20
23.854269
 30
0.0
 10
118.557726
 20
24.278328
 30
0.0
 10
118.614269
 20
24.603442
 30
0.0
 10
118.882840
 20
24.956824
 30
0.0
  0
SPLINE
  5
1f3
100
AcDbEntity
  8
Layer_1
 62
7
100
AcDbSpline
 70
8
 71
3
 72
8
 73
4
 74
0
 40
0
 40
0
 40
0
 40
0
 40
1
 40
1
 40
1
 40
1
 10
118.882840
 20
24.956824
 30
0.0
 10
119.123138
 20
25.281935
 30
0.0
 10
119.745094
 20
25.861484
 30
0.0
 10
120.423590
 20
25.861484
 30
0.0
  0
SPLINE
  5
1f4
100
AcDbEntity
  8
Layer_1
 62
7
100
AcDbSpline
 70
8
 71
3
 72
8
 73
4
 74
0
 40
0
 40
0
 40
0
 40
0
 40
1
 40
1
 40
1
 40
1
 10
120.423590
 20
25.861484
 30
0.0
 10
120.748702
 20
25.861484
 30
0.0
 10
121.073813
 20
25.720130
 30
0.0
 10
121.299980
 20
25.451559
 30
0.0
  0
SPLINE
  5
1f5
100
AcDbEntity
  8
Layer_1
 62
7
100
AcDbSpline
 70
8
 71
3
 72
8
 73
4
 74
0
 40
0
 40
0
 40
0
 40
0
 40
1
 40
1
 40
1
 40
1
 10
121.299980
 20
25.451559
 30
0.0
 10
121.653362
 20
25.027501
 30
0.0
 10
121.653362
 20
24.476222
 30
0.0
 10
121.653362
 20
24.023893
 30
0.0
  0
LWPOLYLINE
  5
1f6
100
AcDbEntity
  8
Layer_1
 62
7
100
AcDbPolyline
 90
3
 70
0
 10
117.525848
 20
20.136677
 30
0.0
 10
118.557726
 20
20.136677
 30
0.0
 10
118.557726
 20
23.854269
 30
0.0
  0
SPLINE
  5
1f7
100
AcDbEntity
  8
Layer_1
 62
7
100
AcDbSpline
 70
8
 71
3
 72
8
 73
4
 74
0
 40
0
 40
0
 40
0
 40
0
 40
1
 40
1
 40
1
 40
1
 10
122.656970
 20
24.052163
 30
0.0
 10
122.656970
 20
24.546899
 30
0.0
 10
122.656970
 20
25.084041
 30
0.0
 10
122.430805
 20
25.607047
 30
0.0
  0
SPLINE
  5
1f8
100
AcDbEntity
  8
Layer_1
 62
7
100
AcDbSpline
 70
8
 71
3
 72
8
 73
4
 74
0
 40
0
 40
0
 40
0
 40
0
 40
1
 40
1
 40
1
 40
1
 10
122.430805
 20
25.607047
 30
0.0
 10
122.105694
 20
26.327949
 30
0.0
 10
121.441331
 20
26.737874
 30
0.0
 10
120.706295
 20
26.737874
 30
0.0
  0
SPLINE
  5
1f9
100
AcDbEntity
  8
Layer_1
 62
7
100
AcDbSpline
 70
8
 71
3
 72
8
 73
4
 74
0
 40
0
 40
0
 40
0
 40
0
 40
1
 40
1
 40
1
 40
1
 10
120.706295
 20
26.737874
 30
0.0
 10
119.829907
 20
26.737874
 30
0.0
 10
119.038328
 20
26.172459
 30
0.0
 10
118.557726
 20
25.451559
 30
0.0
  0
LWPOLYLINE
  5
1fa
100
AcDbEntity
  8
Layer_1
 62
7
100
AcDbPolyline
 90
4
 70
0
 10
121.653362
 20
24.023893
 30
0.0
 10
121.653362
 20
20.136677
 30
0.0
 10
122.656970
 20
20.136677
 30
0.0
 10
122.656970
 20
24.052163
 30
0.0
  0
SPLINE
  5
1fb
100
AcDbEntity
  8
Layer_1
 62
7
100
AcDbSpline
 70
8
 71
3
 72
8
 73
4
 74
0
 40
0
 40
0
 40
0
 40
0
 40
1
 40
1
 40
1
 40
1
 10
125.399221
 20
24.575169
 30
0.0
 10
125.399221
 20
25.352612
 30
0.0
 10
126.049447
 20
25.988701
 30
0.0
 10
126.826891
 20
25.988701
 30
0.0
  0
SPLINE
  5
1fc
100
AcDbEntity
  8
Layer_1
 62
7
100
AcDbSpline
 70
8
 71
3
 72
8
 73
4
 74
0
 40
0
 40
0
 40
0
 40
0
 40
1
 40
1
 40
1
 40
1
 10
126.826891
 20
25.988701
 30
0.0
 10
127.618467
 20
25.988701
 30
0.0
 10
128.254557
 20
25.352612
 30
0.0
 10
128.254557
 20
24.575169
 30
0.0
  0
SPLINE
  5
1fd
100
AcDbEntity
  8
Layer_1
 62
7
100
AcDbSpline
 70
8
 71
3
 72
8
 73
4
 74
0
 40
0
 40
0
 40
0
 40
0
 40
1
 40
1
 40
1
 40
1
 10
128.254557
 20
24.575169
 30
0.0
 10
128.254557
 20
23.797728
 30
0.0
 10
127.618467
 20
23.161636
 30
0.0
 10
126.826891
 20
23.161636
 30
0.0
  0
SPLINE
  5
1fe
100
AcDbEntity
  8
Layer_1
 62
7
100
AcDbSpline
 70
8
 71
3
 72
8
 73
4
 74
0
 40
0
 40
0
 40
0
 40
0
 40
1
 40
1
 40
1
 40
1
 10
126.826891
 20
23.161636
 30
0.0
 10
126.035314
 20
23.161636
 30
0.0
 10
125.399221
 20
23.797728
 30
0.0
 10
125.399221
 20
24.575169
 30
0.0
  0
SPLINE
  5
1ff
100
AcDbEntity
  8
Layer_1
 62
7
100
AcDbSpline
 70
8
 71
3
 72
8
 73
4
 74
0
 40
0
 40
0
 40
0
 40
0
 40
1
 40
1
 40
1
 40
1
 10
126.883431
 20
26.794415
 30
0.0
 10
125.597118
 20
26.794415
 30
0.0
 10
124.480427
 20
25.776671
 30
0.0
 10
124.480427
 20
24.518628
 30
0.0
  0
SPLINE
  5
200
100
AcDbEntity
  8
Layer_1
 62
7
100
AcDbSpline
 70
8
 71
3
 72
8
 73
4
 74
0
 40
0
 40
0
 40
0
 40
0
 40
1
 40
1
 40
1
 40
1
 10
124.480427
 20
24.518628
 30
0.0
 10
124.480427
 20
23.811862
 30
0.0
 10
124.833809
 20
23.147503
 30
0.0
 10
125.427492
 20
22.765848
 30
0.0
  0
SPLINE
  5
201
100
AcDbEntity
  8
Layer_1
 62
7
100
AcDbSpline
 70
8
 71
3
 72
8
 73
4
 74
0
 40
0
 40
0
 40
0
 40
0
 40
1
 40
1
 40
1
 40
1
 10
125.427492
 20
22.765848
 30
0.0
 10
124.961026
 20
22.370059
 30
0.0
 10
124.692455
 20
21.931864
 30
0.0
 10
124.692455
 20
21.521939
 30
0.0
  0
SPLINE
  5
202
100
AcDbEntity
  8
Layer_1
 62
7
100
AcDbSpline
 70
8
 71
3
 72
8
 73
4
 74
0
 40
0
 40
0
 40
0
 40
0
 40
1
 40
1
 40
1
 40
1
 10
124.692455
 20
21.521939
 30
0.0
 10
124.692455
 20
21.253368
 30
0.0
 10
124.805539
 20
20.871713
 30
0.0
 10
125.215464
 20
20.659685
 30
0.0
  0
SPLINE
  5
203
100
AcDbEntity
  8
Layer_1
 62
7
100
AcDbSpline
 70
8
 71
3
 72
8
 73
4
 74
0
 40
0
 40
0
 40
0
 40
0
 40
1
 40
1
 40
1
 40
1
 10
125.215464
 20
20.659685
 30
0.0
 10
124.522834
 20
20.221490
 30
0.0
 10
124.169449
 20
19.740888
 30
0.0
 10
124.169449
 20
19.232016
 30
0.0
  0
SPLINE
  5
204
100
AcDbEntity
  8
Layer_1
 62
7
100
AcDbSpline
 70
8
 71
3
 72
8
 73
4
 74
0
 40
0
 40
0
 40
0
 40
0
 40
1
 40
1
 40
1
 40
1
 10
124.169449
 20
19.232016
 30
0.0
 10
124.169449
 20
18.525253
 30
0.0
 10
124.819675
 20
17.691267
 30
0.0
 10
127.081325
 20
17.691267
 30
0.0
  0
SPLINE
  5
205
100
AcDbEntity
  8
Layer_1
 62
7
100
AcDbSpline
 70
8
 71
3
 72
8
 73
4
 74
0
 40
0
 40
0
 40
0
 40
0
 40
1
 40
1
 40
1
 40
1
 10
127.081325
 20
17.691267
 30
0.0
 10
129.272298
 20
17.691267
 30
0.0
 10
130.063878
 20
18.807958
 30
0.0
 10
130.063878
 20
19.670212
 30
0.0
  0
SPLINE
  5
206
100
AcDbEntity
  8
Layer_1
 62
7
100
AcDbSpline
 70
8
 71
3
 72
8
 73
4
 74
0
 40
0
 40
0
 40
0
 40
0
 40
1
 40
1
 40
1
 40
1
 10
130.063878
 20
19.670212
 30
0.0
 10
130.063878
 20
20.235624
 30
0.0
 10
129.738766
 20
20.801039
 30
0.0
 10
129.060270
 20
21.069610
 30
0.0
  0
SPLINE
  5
207
100
AcDbEntity
  8
Layer_1
 62
7
100
AcDbSpline
 70
8
 71
3
 72
8
 73
4
 74
0
 40
0
 40
0
 40
0
 40
0
 40
1
 40
1
 40
1
 40
1
 10
129.060270
 20
21.069610
 30
0.0
 10
128.381777
 20
21.352315
 30
0.0
 10
127.604331
 20
21.253368
 30
0.0
 10
126.869294
 20
21.253368
 30
0.0
  0
SPLINE
  5
208
100
AcDbEntity
  8
Layer_1
 62
7
100
AcDbSpline
 70
8
 71
3
 72
8
 73
4
 74
0
 40
0
 40
0
 40
0
 40
0
 40
1
 40
1
 40
1
 40
1
 10
126.869294
 20
21.253368
 30
0.0
 10
126.388695
 20
21.253368
 30
0.0
 10
126.077718
 20
21.295775
 30
0.0
 10
125.950500
 20
21.338182
 30
0.0
  0
SPLINE
  5
209
100
AcDbEntity
  8
Layer_1
 62
7
100
AcDbSpline
 70
8
 71
3
 72
8
 73
4
 74
0
 40
0
 40
0
 40
0
 40
0
 40
1
 40
1
 40
1
 40
1
 10
125.950500
 20
21.338182
 30
0.0
 10
125.696066
 20
21.408858
 30
0.0
 10
125.554712
 20
21.564346
 30
0.0
 10
125.554712
 20
21.762240
 30
0.0
  0
SPLINE
  5
20a
100
AcDbEntity
  8
Layer_1
 62
7
100
AcDbSpline
 70
8
 71
3
 72
8
 73
4
 74
0
 40
0
 40
0
 40
0
 40
0
 40
1
 40
1
 40
1
 40
1
 10
125.554712
 20
21.762240
 30
0.0
 10
125.554712
 20
22.101488
 30
0.0
 10
125.950500
 20
22.426600
 30
0.0
 10
126.021177
 20
22.483143
 30
0.0
  0
SPLINE
  5
20b
100
AcDbEntity
  8
Layer_1
 62
7
100
AcDbSpline
 70
8
 71
3
 72
8
 73
4
 74
0
 40
0
 40
0
 40
0
 40
0
 40
1
 40
1
 40
1
 40
1
 10
126.021177
 20
22.483143
 30
0.0
 10
126.275612
 20
22.384196
 30
0.0
 10
126.558319
 20
22.341789
 30
0.0
 10
126.841024
 20
22.341789
 30
0.0
  0
SPLINE
  5
20c
100
AcDbEntity
  8
Layer_1
 62
7
100
AcDbSpline
 70
8
 71
3
 72
8
 73
4
 74
0
 40
0
 40
0
 40
0
 40
0
 40
1
 40
1
 40
1
 40
1
 10
126.841024
 20
22.341789
 30
0.0
 10
128.113203
 20
22.341789
 30
0.0
 10
129.159217
 20
23.359533
 30
0.0
 10
129.159217
 20
24.546899
 30
0.0
  0
SPLINE
  5
20d
100
AcDbEntity
  8
Layer_1
 62
7
100
AcDbSpline
 70
8
 71
3
 72
8
 73
4
 74
0
 40
0
 40
0
 40
0
 40
0
 40
1
 40
1
 40
1
 40
1
 10
129.159217
 20
24.546899
 30
0.0
 10
129.159217
 20
24.942687
 30
0.0
 10
129.046137
 20
25.324342
 30
0.0
 10
128.834106
 20
25.649453
 30
0.0
  0
SPLINE
  5
20e
100
AcDbEntity
  8
Layer_1
 62
7
100
AcDbSpline
 70
8
 71
3
 72
8
 73
4
 74
0
 40
0
 40
0
 40
0
 40
0
 40
1
 40
1
 40
1
 40
1
 10
128.834106
 20
25.649453
 30
0.0
 10
129.173354
 20
25.847348
 30
0.0
 10
129.569142
 20
25.960431
 30
0.0
 10
129.964931
 20
25.960431
 30
0.0
  0
SPLINE
  5
20f
100
AcDbEntity
  8
Layer_1
 62
7
100
AcDbSpline
 70
8
 71
3
 72
8
 73
4
 74
0
 40
0
 40
0
 40
0
 40
0
 40
1
 40
1
 40
1
 40
1
 10
129.964931
 20
25.960431
 30
0.0
 10
130.092148
 20
25.960431
 30
0.0
 10
130.205232
 20
25.946292
 30
0.0
 10
130.332449
 20
25.918025
 30
0.0
  0
LWPOLYLINE
  5
210
100
AcDbEntity
  8
Layer_1
 62
7
100
AcDbPolyline
 90
4
 70
0
 10
118.557726
 20
25.451559
 30
0.0
 10
118.557726
 20
26.582384
 30
0.0
 10
117.525848
 20
26.582384
 30
0.0
 10
117.525848
 20
20.136677
 30
0.0
  0
SPLINE
  5
211
100
AcDbEntity
  8
Layer_1
 62
7
100
AcDbSpline
 70
8
 71
3
 72
8
 73
4
 74
0
 40
0
 40
0
 40
0
 40
0
 40
1
 40
1
 40
1
 40
1
 10
130.219368
 20
26.752008
 30
0.0
 10
129.569142
 20
26.808551
 30
0.0
 10
128.918916
 20
26.596521
 30
0.0
 10
128.424181
 20
26.186596
 30
0.0
  0
SPLINE
  5
212
100
AcDbEntity
  8
Layer_1
 62
7
100
AcDbSpline
 70
8
 71
3
 72
8
 73
4
 74
0
 40
0
 40
0
 40
0
 40
0
 40
1
 40
1
 40
1
 40
1
 10
128.424181
 20
26.186596
 30
0.0
 10
128.014256
 20
26.582384
 30
0.0
 10
127.477114
 20
26.794415
 30
0.0
 10
126.883431
 20
26.794415
 30
0.0
  0
SPLINE
  5
213
100
AcDbEntity
  8
Layer_1
 62
7
100
AcDbSpline
 70
8
 71
3
 72
8
 73
4
 74
0
 40
0
 40
0
 40
0
 40
0
 40
1
 40
1
 40
1
 40
1
 10
125.908094
 20
20.475925
 30
0.0
 10
126.148394
 20
20.447655
 30
0.0
 10
126.487642
 20
20.419385
 30
0.0
 10
126.982378
 20
20.391114
 30
0.0
  0
SPLINE
  5
214
100
AcDbEntity
  8
Layer_1
 62
7
100
AcDbSpline
 70
8
 71
3
 72
8
 73
4
 74
0
 40
0
 40
0
 40
0
 40
0
 40
1
 40
1
 40
1
 40
1
 10
126.982378
 20
20.391114
 30
0.0
 10
127.462980
 20
20.376975
 30
0.0
 10
127.985986
 20
20.419385
 30
0.0
 10
128.353504
 20
20.362844
 30
0.0
  0
SPLINE
  5
215
100
AcDbEntity
  8
Layer_1
 62
7
100
AcDbSpline
 70
8
 71
3
 72
8
 73
4
 74
0
 40
0
 40
0
 40
0
 40
0
 40
1
 40
1
 40
1
 40
1
 10
128.353504
 20
20.362844
 30
0.0
 10
128.947187
 20
20.263897
 30
0.0
 10
129.130947
 20
19.896379
 30
0.0
 10
129.130947
 20
19.613671
 30
0.0
  0
SPLINE
  5
216
100
AcDbEntity
  8
Layer_1
 62
7
100
AcDbSpline
 70
8
 71
3
 72
8
 73
4
 74
0
 40
0
 40
0
 40
0
 40
0
 40
1
 40
1
 40
1
 40
1
 10
129.130947
 20
19.613671
 30
0.0
 10
129.130947
 20
19.330966
 30
0.0
 10
128.961323
 20
18.991715
 30
0.0
 10
128.523128
 20
18.751417
 30
0.0
  0
SPLINE
  5
217
100
AcDbEntity
  8
Layer_1
 62
7
100
AcDbSpline
 70
8
 71
3
 72
8
 73
4
 74
0
 40
0
 40
0
 40
0
 40
0
 40
1
 40
1
 40
1
 40
1
 10
128.523128
 20
18.751417
 30
0.0
 10
128.042529
 20
18.496980
 30
0.0
 10
127.505384
 20
18.468710
 30
0.0
 10
127.067191
 20
18.468710
 30
0.0
  0
SPLINE
  5
218
100
AcDbEntity
  8
Layer_1
 62
7
100
AcDbSpline
 70
8
 71
3
 72
8
 73
4
 74
0
 40
0
 40
0
 40
0
 40
0
 40
1
 40
1
 40
1
 40
1
 10
127.067191
 20
18.468710
 30
0.0
 10
126.770350
 20
18.468710
 30
0.0
 10
126.219071
 20
18.482849
 30
0.0
 10
125.738469
 20
18.680740
 30
0.0
  0
SPLINE
  5
219
100
AcDbEntity
  8
Layer_1
 62
7
100
AcDbSpline
 70
8
 71
3
 72
8
 73
4
 74
0
 40
0
 40
0
 40
0
 40
0
 40
1
 40
1
 40
1
 40
1
 10
125.738469
 20
18.680740
 30
0.0
 10
125.215464
 20
18.892768
 30
0.0
 10
125.102380
 20
19.246153
 30
0.0
 10
125.102380
 20
19.472317
 30
0.0
  0
SPLINE
  5
21a
100
AcDbEntity
  8
Layer_1
 62
7
100
AcDbSpline
 70
8
 71
3
 72
8
 73
4
 74
0
 40
0
 40
0
 40
0
 40
0
 40
1
 40
1
 40
1
 40
1
 10
125.102380
 20
19.472317
 30
0.0
 10
125.102380
 20
19.938783
 30
0.0
 10
125.540575
 20
20.278031
 30
0.0
 10
125.908094
 20
20.475925
 30
0.0
  0
SPLINE
  5
21b
100
AcDbEntity
  8
Layer_1
 62
7
100
AcDbSpline
 70
8
 71
3
 72
8
 73
4
 74
0
 40
0
 40
0
 40
0
 40
0
 40
1
 40
1
 40
1
 40
1
 10
56.795913
 20
14.583958
 30
0.0
 10
55.622681
 20
14.583958
 30
0.0
 10
53.389299
 20
13.848918
 30
0.0
 10
53.389299
 20
9.989978
 30
0.0
  0
SPLINE
  5
21c
100
AcDbEntity
  8
Layer_1
 62
7
100
AcDbSpline
 70
8
 71
3
 72
8
 73
4
 74
0
 40
0
 40
0
 40
0
 40
0
 40
1
 40
1
 40
1
 40
1
 10
53.389299
 20
9.989978
 30
0.0
 10
53.389299
 20
6.654046
 30
0.0
 10
55.255163
 20
5.551486
 30
0.0
 10
56.781776
 20
5.551486
 30
0.0
  0
SPLINE
  5
21d
100
AcDbEntity
  8
Layer_1
 62
7
100
AcDbSpline
 70
8
 71
3
 72
8
 73
4
 74
0
 40
0
 40
0
 40
0
 40
0
 40
1
 40
1
 40
1
 40
1
 10
56.781776
 20
5.551486
 30
0.0
 10
57.601626
 20
5.551486
 30
0.0
 10
58.548693
 20
5.848330
 30
0.0
 10
59.368540
 20
6.470283
 30
0.0
  0
LWPOLYLINE
  5
21e
100
AcDbEntity
  8
Layer_1
 62
7
100
AcDbPolyline
 90
2
 70
0
 10
130.332449
 20
25.918025
 30
0.0
 10
130.219368
 20
26.752008
 30
0.0
  0
SPLINE
  5
21f
100
AcDbEntity
  8
Layer_1
 62
7
100
AcDbSpline
 70
8
 71
3
 72
8
 73
4
 74
0
 40
0
 40
0
 40
0
 40
0
 40
1
 40
1
 40
1
 40
1
 10
58.463880
 20
6.950882
 30
0.0
 10
57.969144
 20
6.597500
 30
0.0
 10
57.403732
 20
6.413740
 30
0.0
 10
56.880723
 20
6.413740
 30
0.0
  0
SPLINE
  5
220
100
AcDbEntity
  8
Layer_1
 62
7
100
AcDbSpline
 70
8
 71
3
 72
8
 73
4
 74
0
 40
0
 40
0
 40
0
 40
0
 40
1
 40
1
 40
1
 40
1
 10
56.880723
 20
6.413740
 30
0.0
 10
56.301177
 20
6.413740
 30
0.0
 10
55.679221
 20
6.639907
 30
0.0
 10
55.198622
 20
7.191183
 30
0.0
  0
SPLINE
  5
221
100
AcDbEntity
  8
Layer_1
 62
7
100
AcDbSpline
 70
8
 71
3
 72
8
 73
4
 74
0
 40
0
 40
0
 40
0
 40
0
 40
1
 40
1
 40
1
 40
1
 10
55.198622
 20
7.191183
 30
0.0
 10
54.463586
 20
8.025167
 30
0.0
 10
54.364636
 20
9.269078
 30
0.0
 10
54.364636
 20
10.187872
 30
0.0
  0
SPLINE
  5
222
100
AcDbEntity
  8
Layer_1
 62
7
100
AcDbSpline
 70
8
 71
3
 72
8
 73
4
 74
0
 40
0
 40
0
 40
0
 40
0
 40
1
 40
1
 40
1
 40
1
 10
54.364636
 20
10.187872
 30
0.0
 10
54.364636
 20
11.007719
 30
0.0
 10
54.463586
 20
11.799299
 30
0.0
 10
54.802831
 20
12.449525
 30
0.0
  0
SPLINE
  5
223
100
AcDbEntity
  8
Layer_1
 62
7
100
AcDbSpline
 70
8
 71
3
 72
8
 73
4
 74
0
 40
0
 40
0
 40
0
 40
0
 40
1
 40
1
 40
1
 40
1
 10
54.802831
 20
12.449525
 30
0.0
 10
55.255163
 20
13.311779
 30
0.0
 10
56.046743
 20
13.707567
 30
0.0
 10
56.781776
 20
13.707567
 30
0.0
  0
SPLINE
  5
224
100
AcDbEntity
  8
Layer_1
 62
7
100
AcDbSpline
 70
8
 71
3
 72
8
 73
4
 74
0
 40
0
 40
0
 40
0
 40
0
 40
1
 40
1
 40
1
 40
1
 10
56.781776
 20
13.707567
 30
0.0
 10
57.573356
 20
13.707567
 30
0.0
 10
58.195309
 20
13.269372
 30
0.0
 10
58.463880
 20
12.675689
 30
0.0
  0
SPLINE
  5
225
100
AcDbEntity
  8
Layer_1
 62
7
100
AcDbSpline
 70
8
 71
3
 72
8
 73
4
 74
0
 40
0
 40
0
 40
0
 40
0
 40
1
 40
1
 40
1
 40
1
 10
58.463880
 20
12.675689
 30
0.0
 10
58.506287
 20
12.576742
 30
0.0
 10
58.548693
 20
12.463659
 30
0.0
 10
58.661774
 20
12.392982
 30
0.0
  0
LWPOLYLINE
  5
226
100
AcDbEntity
  8
Layer_1
 62
7
100
AcDbPolyline
 90
6
 70
0
 10
59.368540
 20
6.470283
 30
0.0
 10
59.368540
 20
9.905165
 30
0.0
 10
56.866590
 20
9.905165
 30
0.0
 10
56.866590
 20
9.057047
 30
0.0
 10
58.463880
 20
9.057047
 30
0.0
 10
58.463880
 20
6.950882
 30
0.0
  0
SPLINE
  5
227
100
AcDbEntity
  8
Layer_1
 62
7
100
AcDbSpline
 70
8
 71
3
 72
8
 73
4
 74
0
 40
0
 40
0
 40
0
 40
0
 40
1
 40
1
 40
1
 40
1
 10
59.354407
 20
13.099748
 30
0.0
 10
58.845535
 20
14.018545
 30
0.0
 10
57.884331
 20
14.583958
 30
0.0
 10
56.795913
 20
14.583958
 30
0.0
  0
LWPOLYLINE
  5
228
100
AcDbEntity
  8
Layer_1
 62
7
100
AcDbPolyline
 90
2
 70
0
 10
58.661774
 20
12.392982
 30
0.0
 10
59.354407
 20
13.099748
 30
0.0
  0
SPLINE
  5
229
100
AcDbEntity
  8
Layer_1
 62
7
100
AcDbSpline
 70
8
 71
3
 72
8
 73
4
 74
0
 40
0
 40
0
 40
0
 40
0
 40
1
 40
1
 40
1
 40
1
 10
62.365230
 20
8.816746
 30
0.0
 10
62.365230
 20
9.212535
 30
0.0
 10
62.379369
 20
9.636596
 30
0.0
 10
62.817561
 20
10.329226
 30
0.0
  0
SPLINE
  5
22a
100
AcDbEntity
  8
Layer_1
 62
7
100
AcDbSpline
 70
8
 71
3
 72
8
 73
4
 74
0
 40
0
 40
0
 40
0
 40
0
 40
1
 40
1
 40
1
 40
1
 10
62.817561
 20
10.329226
 30
0.0
 10
63.411244
 20
11.262157
 30
0.0
 10
64.174551
 20
11.417644
 30
0.0
 10
64.641016
 20
11.417644
 30
0.0
  0
SPLINE
  5
22b
100
AcDbEntity
  8
Layer_1
 62
7
100
AcDbSpline
 70
8
 71
3
 72
8
 73
4
 74
0
 40
0
 40
0
 40
0
 40
0
 40
1
 40
1
 40
1
 40
1
 10
64.641016
 20
11.417644
 30
0.0
 10
65.178158
 20
11.417644
 30
0.0
 10
65.517406
 20
11.163210
 30
0.0
 10
65.701167
 20
10.937045
 30
0.0
  0
SPLINE
  5
22c
100
AcDbEntity
  8
Layer_1
 62
7
100
AcDbSpline
 70
8
 71
3
 72
8
 73
4
 74
0
 40
0
 40
0
 40
0
 40
0
 40
1
 40
1
 40
1
 40
1
 10
65.701167
 20
10.937045
 30
0.0
 10
65.785977
 20
10.823962
 30
0.0
 10
65.828384
 20
10.710878
 30
0.0
 10
65.941465
 20
10.611931
 30
0.0
  0
LWPOLYLINE
  5
22d
100
AcDbEntity
  8
Layer_1
 62
7
100
AcDbPolyline
 90
4
 70
0
 10
61.347485
 20
12.138547
 30
0.0
 10
61.347485
 20
5.678703
 30
0.0
 10
62.365230
 20
5.678703
 30
0.0
 10
62.365230
 20
8.816746
 30
0.0
  0
SPLINE
  5
22e
100
AcDbEntity
  8
Layer_1
 62
7
100
AcDbSpline
 70
8
 71
3
 72
8
 73
4
 74
0
 40
0
 40
0
 40
0
 40
0
 40
1
 40
1
 40
1
 40
1
 10
66.422067
 20
11.587268
 30
0.0
 10
66.012145
 20
12.011330
 30
0.0
 10
65.418459
 20
12.294035
 30
0.0
 10
64.697559
 20
12.294035
 30
0.0
  0
SPLINE
  5
22f
100
AcDbEntity
  8
Layer_1
 62
7
100
AcDbSpline
 70
8
 71
3
 72
8
 73
4
 74
0
 40
0
 40
0
 40
0
 40
0
 40
1
 40
1
 40
1
 40
1
 10
64.697559
 20
12.294035
 30
0.0
 10
63.750492
 20
12.294035
 30
0.0
 10
62.789288
 20
11.813433
 30
0.0
 10
62.365230
 20
10.894639
 30
0.0
  0
LWPOLYLINE
  5
230
100
AcDbEntity
  8
Layer_1
 62
7
100
AcDbPolyline
 90
2
 70
0
 10
65.941465
 20
10.611931
 30
0.0
 10
66.422067
 20
11.587268
 30
0.0
  0
LWPOLYLINE
  5
231
100
AcDbEntity
  8
Layer_1
 62
7
100
AcDbPolyline
 90
3
 70
0
 10
62.365230
 20
10.894639
 30
0.0
 10
62.407636
 20
12.138547
 30
0.0
 10
61.347485
 20
12.138547
 30
0.0
  0
SPLINE
  5
232
100
AcDbEntity
  8
Layer_1
 62
7
100
AcDbSpline
 70
8
 71
3
 72
8
 73
4
 74
0
 40
0
 40
0
 40
0
 40
0
 40
1
 40
1
 40
1
 40
1
 10
68.782667
 20
10.739151
 30
0.0
 10
69.319809
 20
11.290427
 30
0.0
 10
70.040712
 20
11.460051
 30
0.0
 10
70.648528
 20
11.460051
 30
0.0
  0
SPLINE
  5
233
100
AcDbEntity
  8
Layer_1
 62
7
100
AcDbSpline
 70
8
 71
3
 72
8
 73
4
 74
0
 40
0
 40
0
 40
0
 40
0
 40
1
 40
1
 40
1
 40
1
 10
70.648528
 20
11.460051
 30
0.0
 10
71.411835
 20
11.460051
 30
0.0
 10
71.793489
 20
11.134939
 30
0.0
 10
71.977250
 20
10.838098
 30
0.0
  0
SPLINE
  5
234
100
AcDbEntity
  8
Layer_1
 62
7
100
AcDbSpline
 70
8
 71
3
 72
8
 73
4
 74
0
 40
0
 40
0
 40
0
 40
0
 40
1
 40
1
 40
1
 40
1
 10
71.977250
 20
10.838098
 30
0.0
 10
72.189278
 20
10.484714
 30
0.0
 10
72.175144
 20
10.060655
 30
0.0
 10
72.175144
 20
9.721407
 30
0.0
  0
LWPOLYLINE
  5
235
100
AcDbEntity
  8
Layer_1
 62
7
100
AcDbPolyline
 90
2
 70
0
 10
68.287931
 20
11.389374
 30
0.0
 10
68.782667
 20
10.739151
 30
0.0
  0
SPLINE
  5
236
100
AcDbEntity
  8
Layer_1
 62
7
100
AcDbSpline
 70
8
 71
3
 72
8
 73
4
 74
0
 40
0
 40
0
 40
0
 40
0
 40
1
 40
1
 40
1
 40
1
 10
71.977250
 20
9.495242
 30
0.0
 10
71.016049
 20
9.495242
 30
0.0
 10
69.998302
 20
9.495242
 30
0.0
 10
69.178455
 20
9.198401
 30
0.0
  0
SPLINE
  5
237
100
AcDbEntity
  8
Layer_1
 62
7
100
AcDbSpline
 70
8
 71
3
 72
8
 73
4
 74
0
 40
0
 40
0
 40
0
 40
0
 40
1
 40
1
 40
1
 40
1
 10
69.178455
 20
9.198401
 30
0.0
 10
68.160714
 20
8.830883
 30
0.0
 10
67.708382
 20
8.067573
 30
0.0
 10
67.708382
 20
7.360807
 30
0.0
  0
SPLINE
  5
238
100
AcDbEntity
  8
Layer_1
 62
7
100
AcDbSpline
 70
8
 71
3
 72
8
 73
4
 74
0
 40
0
 40
0
 40
0
 40
0
 40
1
 40
1
 40
1
 40
1
 10
67.708382
 20
7.360807
 30
0.0
 10
67.708382
 20
6.413743
 30
0.0
 10
68.528232
 20
5.523216
 30
0.0
 10
69.871085
 20
5.523216
 30
0.0
  0
SPLINE
  5
239
100
AcDbEntity
  8
Layer_1
 62
7
100
AcDbSpline
 70
8
 71
3
 72
8
 73
4
 74
0
 40
0
 40
0
 40
0
 40
0
 40
1
 40
1
 40
1
 40
1
 10
69.871085
 20
5.523216
 30
0.0
 10
70.662665
 20
5.523216
 30
0.0
 10
71.482514
 20
5.820057
 30
0.0
 10
72.189278
 20
6.399606
 30
0.0
  0
LWPOLYLINE
  5
23a
100
AcDbEntity
  8
Layer_1
 62
7
100
AcDbPolyline
 90
3
 70
0
 10
72.175144
 20
9.721407
 30
0.0
 10
72.175144
 20
9.495242
 30
0.0
 10
71.977250
 20
9.495242
 30
0.0
  0
SPLINE
  5
23b
100
AcDbEntity
  8
Layer_1
 62
7
100
AcDbSpline
 70
8
 71
3
 72
8
 73
4
 74
0
 40
0
 40
0
 40
0
 40
0
 40
1
 40
1
 40
1
 40
1
 10
73.150482
 20
9.693137
 30
0.0
 10
73.150482
 20
10.216142
 30
0.0
 10
73.136342
 20
10.710881
 30
0.0
 10
72.839504
 20
11.219750
 30
0.0
  0
SPLINE
  5
23c
100
AcDbEntity
  8
Layer_1
 62
7
100
AcDbSpline
 70
8
 71
3
 72
8
 73
4
 74
0
 40
0
 40
0
 40
0
 40
0
 40
1
 40
1
 40
1
 40
1
 10
72.839504
 20
11.219750
 30
0.0
 10
72.415445
 20
11.912380
 30
0.0
 10
71.595595
 20
12.279901
 30
0.0
 10
70.591988
 20
12.279901
 30
0.0
  0
SPLINE
  5
23d
100
AcDbEntity
  8
Layer_1
 62
7
100
AcDbSpline
 70
8
 71
3
 72
8
 73
4
 74
0
 40
0
 40
0
 40
0
 40
0
 40
1
 40
1
 40
1
 40
1
 10
70.591988
 20
12.279901
 30
0.0
 10
69.729734
 20
12.279901
 30
0.0
 10
68.895747
 20
12.011327
 30
0.0
 10
68.287931
 20
11.389374
 30
0.0
  0
LWPOLYLINE
  5
23e
100
AcDbEntity
  8
Layer_1
 62
7
100
AcDbPolyline
 90
4
 70
0
 10
72.189278
 20
6.399606
 30
0.0
 10
72.189278
 20
5.692840
 30
0.0
 10
73.150482
 20
5.692840
 30
0.0
 10
73.150482
 20
9.693137
 30
0.0
  0
SPLINE
  5
23f
100
AcDbEntity
  8
Layer_1
 62
7
100
AcDbSpline
 70
8
 71
3
 72
8
 73
4
 74
0
 40
0
 40
0
 40
0
 40
0
 40
1
 40
1
 40
1
 40
1
 10
72.217548
 20
8.279604
 30
0.0
 10
72.217548
 20
7.954493
 30
0.0
 10
72.217548
 20
7.530431
 30
0.0
 10
71.779356
 20
7.063966
 30
0.0
  0
SPLINE
  5
240
100
AcDbEntity
  8
Layer_1
 62
7
100
AcDbSpline
 70
8
 71
3
 72
8
 73
4
 74
0
 40
0
 40
0
 40
0
 40
0
 40
1
 40
1
 40
1
 40
1
 10
71.779356
 20
7.063966
 30
0.0
 10
71.539055
 20
6.823665
 30
0.0
 10
70.931236
 20
6.300659
 30
0.0
 10
70.083116
 20
6.300659
 30
0.0
  0
SPLINE
  5
241
100
AcDbEntity
  8
Layer_1
 62
7
100
AcDbSpline
 70
8
 71
3
 72
8
 73
4
 74
0
 40
0
 40
0
 40
0
 40
0
 40
1
 40
1
 40
1
 40
1
 10
70.083116
 20
6.300659
 30
0.0
 10
69.220862
 20
6.300659
 30
0.0
 10
68.726126
 20
6.851938
 30
0.0
 10
68.726126
 20
7.417350
 30
0.0
  0
SPLINE
  5
242
100
AcDbEntity
  8
Layer_1
 62
7
100
AcDbSpline
 70
8
 71
3
 72
8
 73
4
 74
0
 40
0
 40
0
 40
0
 40
0
 40
1
 40
1
 40
1
 40
1
 10
68.726126
 20
7.417350
 30
0.0
 10
68.726126
 20
7.897949
 30
0.0
 10
69.051238
 20
8.420958
 30
0.0
 10
69.856951
 20
8.618852
 30
0.0
  0
SPLINE
  5
243
100
AcDbEntity
  8
Layer_1
 62
7
100
AcDbSpline
 70
8
 71
3
 72
8
 73
4
 74
0
 40
0
 40
0
 40
0
 40
0
 40
1
 40
1
 40
1
 40
1
 10
69.856951
 20
8.618852
 30
0.0
 10
70.450634
 20
8.760206
 30
0.0
 10
71.312890
 20
8.717799
 30
0.0
 10
71.991384
 20
8.717799
 30
0.0
  0
LWPOLYLINE
  5
244
100
AcDbEntity
  8
Layer_1
 62
7
100
AcDbPolyline
 90
2
 70
0
 10
72.217548
 20
8.717799
 30
0.0
 10
72.217548
 20
8.279604
 30
0.0
  0
LWPOLYLINE
  5
245
100
AcDbEntity
  8
Layer_1
 62
7
100
AcDbPolyline
 90
2
 70
0
 10
71.991384
 20
8.717799
 30
0.0
 10
72.217548
 20
8.717799
 30
0.0
  0
SPLINE
  5
246
100
AcDbEntity
  8
Layer_1
 62
7
100
AcDbSpline
 70
8
 71
3
 72
8
 73
4
 74
0
 40
0
 40
0
 40
0
 40
0
 40
1
 40
1
 40
1
 40
1
 10
80.430172
 20
6.639907
 30
0.0
 10
80.260548
 20
6.668177
 30
0.0
 10
80.204008
 20
6.555094
 30
0.0
 10
80.006114
 20
6.555094
 30
0.0
  0
LWPOLYLINE
  5
247
100
AcDbEntity
  8
Layer_1
 62
7
100
AcDbPolyline
 90
7
 70
0
 10
75.072886
 20
12.152681
 30
0.0
 10
75.072886
 20
11.262157
 30
0.0
 10
78.790475
 20
11.262157
 30
0.0
 10
74.790179
 20
6.371336
 30
0.0
 10
74.790179
 20
5.678703
 30
0.0
 10
80.430172
 20
5.678703
 30
0.0
 10
80.430172
 20
6.639907
 30
0.0
  0
LWPOLYLINE
  5
248
100
AcDbEntity
  8
Layer_1
 62
7
100
AcDbPolyline
 90
5
 70
0
 10
80.006114
 20
6.555094
 30
0.0
 10
76.161305
 20
6.555094
 30
0.0
 10
80.105061
 20
11.460051
 30
0.0
 10
80.105061
 20
12.152681
 30
0.0
 10
75.072886
 20
12.152681
 30
0.0
  0
ENDSEC
  0
SECTION
  2
OBJECTS
  0
DICTIONARY
  5
C
330
0
100
AcDbDictionary
  3
ACAD_GROUP
350
D
  3
ACAD_MLINESTYLE
350
17
  0
DICTIONARY
  5
D
330
C
100
AcDbDictionary
  0
DICTIONARY
  5
1A
330
C
100
AcDbDictionary
  0
DICTIONARY
  5
17
330
C
100
AcDbDictionary
  3
STANDARD
350
18
  0
DICTIONARY
  5
19
330
C
100
AcDbDictionary
  0
ENDSEC
  0
EOF
